<?xml version="1.0" encoding="UTF-8" standalone="no"?>
<!-- Created with Inkscape (http://www.inkscape.org/) -->
<svg id="svg7384" xmlns:rdf="http://www.w3.org/1999/02/22-rdf-syntax-ns#" xmlns="http://www.w3.org/2000/svg" height="16" width="16" version="1.1" xmlns:cc="http://creativecommons.org/ns#" xmlns:dc="http://purl.org/dc/elements/1.1/">
 <metadata id="metadata90">
  <rdf:RDF>
   <cc:Work rdf:about="">
    <dc:format>image/svg+xml</dc:format>
    <dc:type rdf:resource="http://purl.org/dc/dcmitype/StillImage"/>
    <dc:title>Gnome Symbolic Icon Theme</dc:title>
   </cc:Work>
  </rdf:RDF>
 </metadata>
 <title id="title9167">Gnome Symbolic Icon Theme</title>
 <g id="layer10" transform="translate(-201 -448)">
  <path id="path39797" style="block-progression:tb;text-indent:0;color:#bebebe;text-transform:none;fill:#bebebe" d="m208.99 449c-3.8423 0-6.9933 3.151-6.9933 6.9933s3.151 7.0156 6.9933 7.0156 7.0156-3.1733 7.0156-7.0156-3.1733-6.9933-7.0156-6.9933zm0 4.0089c1.6805 0 3.0067 1.3039 3.0067 2.9844s-1.3261 3.0067-3.0067 3.0067-2.9844-1.3261-2.9844-3.0067c0-1.6805 1.3039-2.9844 2.9844-2.9844z"/>
  <path id="path40342" style="block-progression:tb;text-indent:0;color:#bebebe;text-transform:none;fill:#bebebe" d="m209.01 454.01c-1.0986 0-2.0132 0.89789-2.0132 1.9965s0.91452 1.9965 2.0132 1.9965c1.0986 0 1.9965-0.89789 1.9965-1.9965s-0.89789-1.9965-1.9965-1.9965zm0 0.99827c0.55821 0 0.99827 0.44006 0.99827 0.99827 0 0.5582-0.44006 0.99826-0.99827 0.99826s-0.99827-0.44006-0.99827-0.99826c0-0.55821 0.44006-0.99827 0.99827-0.99827z"/>
 </g>
</svg>
