<?xml version="1.0" encoding="UTF-8" standalone="no"?>
<!-- Created with Inkscape (http://www.inkscape.org/) -->

<svg
   xmlns:dc="http://purl.org/dc/elements/1.1/"
   xmlns:cc="http://creativecommons.org/ns#"
   xmlns:rdf="http://www.w3.org/1999/02/22-rdf-syntax-ns#"
   xmlns:svg="http://www.w3.org/2000/svg"
   xmlns="http://www.w3.org/2000/svg"
   xmlns:sodipodi="http://sodipodi.sourceforge.net/DTD/sodipodi-0.dtd"
   xmlns:inkscape="http://www.inkscape.org/namespaces/inkscape"
   width="16px"
   height="16px"
   id="svg3862"
   version="1.1"
   inkscape:version="0.91 r13725"
   sodipodi:docname="network-workgroup-symbolic.svg">
  <defs
     id="defs3864" />
  <sodipodi:namedview
     id="base"
     pagecolor="#ffffff"
     bordercolor="#666666"
     borderopacity="1.0"
     inkscape:pageopacity="0.0"
     inkscape:pageshadow="2"
     inkscape:zoom="16"
     inkscape:cx="8.4195537"
     inkscape:cy="4.0546592"
     inkscape:current-layer="layer1"
     showgrid="false"
     inkscape:grid-bbox="true"
     inkscape:document-units="px"
     inkscape:window-width="453"
     inkscape:window-height="430"
     inkscape:window-x="412"
     inkscape:window-y="177"
     inkscape:window-maximized="0">
    <inkscape:grid
       type="xygrid"
       id="grid4134" />
  </sodipodi:namedview>
  <metadata
     id="metadata3867">
    <rdf:RDF>
      <cc:Work
         rdf:about="">
        <dc:format>image/svg+xml</dc:format>
        <dc:type
           rdf:resource="http://purl.org/dc/dcmitype/StillImage" />
        <dc:title />
      </cc:Work>
    </rdf:RDF>
  </metadata>
  <g
     id="layer1"
     inkscape:label="Layer 1"
     inkscape:groupmode="layer">
    <path
       style="color:#bebebe;fill:#bebebe;fill-opacity:1;fill-rule:nonzero;stroke:none;stroke-width:1;marker:none;visibility:visible;display:inline;overflow:visible;enable-background:accumulate"
       d="M 8 0 A 8 8 0 0 0 7.1816406 0.041015625 C 6.3748309 0.12295161 5.6045488 0.32528973 4.8867188 0.62890625 A 8 8 0 0 0 4.8847656 0.63085938 C 4.6392845 0.73478448 4.4001947 0.84954938 4.1679688 0.9765625 A 8 8 0 0 0 4 1.0800781 C 3.8356847 1.1752963 3.6703168 1.2706454 3.5136719 1.3769531 A 8 8 0 0 0 3.1953125 1.6152344 C 3.0911864 1.6937287 2.9848456 1.7681859 2.8847656 1.8515625 A 8 8 0 0 0 2.5878906 2.1210938 C 2.4947746 2.2068711 2.3995004 2.2907999 2.3105469 2.3808594 A 8 8 0 0 0 2.0527344 2.6640625 C 1.9621473 2.764942 1.8686375 2.8633404 1.7832031 2.96875 A 8 8 0 0 0 1.5546875 3.2753906 C 1.4755361 3.3831721 1.3960509 3.4897641 1.3222656 3.6015625 A 8 8 0 0 0 1.1464844 3.8886719 C 1.0631808 4.0272035 0.98123358 4.1667211 0.90625 4.3105469 A 8 8 0 0 0 0.79101562 4.5488281 C 0.71728391 4.7024928 0.64604505 4.8567128 0.58203125 5.015625 A 8 8 0 0 0 0.47460938 5.3066406 C 0.42033558 5.4581891 0.36749661 5.6100045 0.32226562 5.765625 A 8 8 0 0 0 0.24414062 6.0664062 C 0.2045079 6.2257307 0.16859184 6.3858888 0.13867188 6.5488281 A 8 8 0 0 0 0.08984375 6.859375 C 0.068313263 7.0097705 0.048199003 7.1595267 0.03515625 7.3125 A 8 8 0 0 0 0 8 A 8 8 0 0 0 0.041015625 8.8085938 C 0.041336951 8.8117961 0.040690523 8.8151581 0.041015625 8.8183594 C 0.12295161 9.6251691 0.32528973 10.395451 0.62890625 11.113281 A 8 8 0 0 0 0.63085938 11.115234 C 0.73478448 11.360716 0.84954938 11.599805 0.9765625 11.832031 A 8 8 0 0 0 1.0800781 12 C 1.1752963 12.164315 1.2706454 12.329683 1.3769531 12.486328 A 8 8 0 0 0 1.6152344 12.804688 C 1.6937287 12.908814 1.7681859 13.015154 1.8515625 13.115234 A 8 8 0 0 0 2.1210938 13.412109 C 2.2068711 13.505225 2.2907999 13.6005 2.3808594 13.689453 A 8 8 0 0 0 2.6640625 13.947266 C 2.764942 14.037853 2.8633404 14.131362 2.96875 14.216797 A 8 8 0 0 0 3.2753906 14.445312 C 3.3831721 14.524464 3.4897641 14.603949 3.6015625 14.677734 A 8 8 0 0 0 3.8886719 14.853516 C 4.0272035 14.936819 4.1667211 15.018766 4.3105469 15.09375 A 8 8 0 0 0 4.5488281 15.208984 C 4.7024928 15.282716 4.8567128 15.353955 5.015625 15.417969 A 8 8 0 0 0 5.3066406 15.525391 C 5.4581891 15.579664 5.6100045 15.632503 5.765625 15.677734 A 8 8 0 0 0 6.0664062 15.755859 C 6.2257307 15.795492 6.3858888 15.831408 6.5488281 15.861328 A 8 8 0 0 0 6.859375 15.910156 C 7.0097705 15.931687 7.1595267 15.951801 7.3125 15.964844 A 8 8 0 0 0 8 16 C 8.2695354 16 8.5361425 15.986973 8.7988281 15.960938 A 8 8 0 0 0 8.8183594 15.958984 C 9.6251691 15.877048 10.395451 15.67471 11.113281 15.371094 C 11.114085 15.370754 11.114431 15.369481 11.115234 15.369141 C 11.360716 15.265216 11.599805 15.150451 11.832031 15.023438 C 11.833305 15.022741 11.834664 15.022182 11.835938 15.021484 A 8 8 0 0 0 12 14.919922 C 12.164315 14.824704 12.329683 14.729355 12.486328 14.623047 A 8 8 0 0 0 12.804688 14.384766 C 12.908814 14.306271 13.015154 14.231814 13.115234 14.148438 A 8 8 0 0 0 13.412109 13.878906 C 13.505225 13.793129 13.6005 13.7092 13.689453 13.619141 A 8 8 0 0 0 13.947266 13.335938 C 14.037853 13.235058 14.131362 13.13666 14.216797 13.03125 A 8 8 0 0 0 14.445312 12.724609 C 14.524464 12.616828 14.603949 12.510236 14.677734 12.398438 A 8 8 0 0 0 14.853516 12.111328 C 14.936819 11.972797 15.018766 11.833279 15.09375 11.689453 A 8 8 0 0 0 15.208984 11.451172 C 15.282716 11.297507 15.353955 11.143287 15.417969 10.984375 A 8 8 0 0 0 15.525391 10.693359 C 15.579664 10.541811 15.632503 10.389996 15.677734 10.234375 A 8 8 0 0 0 15.755859 9.9335938 C 15.795492 9.7742693 15.831408 9.6141112 15.861328 9.4511719 A 8 8 0 0 0 15.910156 9.140625 C 15.931687 8.9902295 15.951801 8.8404733 15.964844 8.6875 A 8 8 0 0 0 16 8 C 16 7.7304646 15.986973 7.4638575 15.960938 7.2011719 A 8 8 0 0 0 15.958984 7.1816406 C 15.877048 6.3748309 15.67471 5.6045488 15.371094 4.8867188 C 15.370754 4.8859148 15.369481 4.8855694 15.369141 4.8847656 C 15.265216 4.6392845 15.150451 4.4001947 15.023438 4.1679688 C 15.022741 4.1666947 15.022182 4.1653361 15.021484 4.1640625 A 8 8 0 0 0 14.919922 4 C 14.824704 3.8356847 14.729355 3.6703168 14.623047 3.5136719 A 8 8 0 0 0 14.384766 3.1953125 C 14.306271 3.0911864 14.231814 2.9848456 14.148438 2.8847656 A 8 8 0 0 0 13.878906 2.5878906 C 13.793129 2.4947746 13.7092 2.3995004 13.619141 2.3105469 A 8 8 0 0 0 13.335938 2.0527344 C 13.235058 1.9621473 13.13666 1.8686375 13.03125 1.7832031 A 8 8 0 0 0 12.724609 1.5546875 C 12.616828 1.4755361 12.510236 1.3960509 12.398438 1.3222656 A 8 8 0 0 0 12.111328 1.1464844 C 11.972797 1.0631808 11.833279 0.98123358 11.689453 0.90625 A 8 8 0 0 0 11.451172 0.79101562 C 11.297507 0.71728391 11.143287 0.64604505 10.984375 0.58203125 A 8 8 0 0 0 10.693359 0.47460938 C 10.541811 0.42033558 10.389996 0.36749661 10.234375 0.32226562 A 8 8 0 0 0 9.9335938 0.24414062 C 9.7742693 0.2045079 9.6141112 0.16859184 9.4511719 0.13867188 A 8 8 0 0 0 9.140625 0.08984375 C 8.9902295 0.068313263 8.8404733 0.048199003 8.6875 0.03515625 A 8 8 0 0 0 8 0 z M 8.5859375 2.0292969 A 6 6 0 0 1 8.7421875 2.0507812 L 8.59375 2.125 L 8.5625 2.09375 L 8.5859375 2.0292969 z M 8.90625 2.0761719 A 6 6 0 0 1 10.53125 2.5683594 L 10.53125 2.59375 L 10 2.9375 L 10.125 3.4375 L 10.40625 3.21875 L 10.59375 3.4375 L 10.8125 3.5625 L 10.9375 3.1875 L 10.875 2.96875 L 10.9375 2.8125 L 10.964844 2.7890625 A 6 6 0 0 1 11.25 2.9628906 L 11.25 3.125 C 11.314086 3.1072039 11.37999 3.101358 11.445312 3.0917969 A 6 6 0 0 1 11.513672 3.1425781 L 11.28125 3.3125 L 11.25 3.46875 L 10.84375 3.8125 L 10.4375 3.71875 L 10.4375 3.46875 L 10.25 3.59375 L 10.34375 3.8125 L 10.03125 3.8125 L 9.875 4.09375 L 9.6875 4.3125 L 9.3125 4.375 L 9.53125 4.59375 L 9.59375 4.8125 L 9.3125 4.8125 L 8.96875 5 L 8.96875 5.5625 L 9.125 5.5625 L 9.28125 5.71875 L 9.625 5.5625 L 9.75 5.21875 L 10 5.0625 L 10.03125 4.9375 L 10.4375 4.84375 L 10.65625 5.09375 L 10.90625 5.21875 L 10.75 5.5 L 10.96875 5.4375 L 11.09375 5.15625 L 10.8125 4.84375 L 10.9375 4.84375 L 11.1875 5.0625 L 11.25 5.375 L 11.46875 5.65625 L 11.53125 5.25 L 11.65625 5.1875 C 11.788583 5.327668 11.888544 5.4985 12 5.65625 L 12.4375 5.6875 L 12.65625 5.84375 L 12.5625 6 L 12.3125 6.21875 L 11.96875 6.21875 L 11.5 6.0625 L 11.28125 6.09375 L 11.09375 6.28125 L 10.59375 5.78125 L 10.25 5.6875 L 9.75 5.75 L 9.28125 5.875 C 9.0259385 6.170326 8.7729014 6.474542 8.53125 6.78125 L 8.25 7.5 L 8.375 7.625 L 8.125 8 L 8.40625 8.65625 C 8.6338357 8.91893 8.8664959 9.174635 9.09375 9.4375 L 9.4375 9.15625 L 9.5625 9.3125 L 9.9375 9.09375 L 10.0625 9.21875 L 10.40625 9.21875 L 10.625 9.46875 L 10.5 9.90625 L 10.75 10.1875 L 10.71875 10.6875 L 10.9375 11.0625 L 10.78125 11.375 C 10.76792 11.602439 10.75 11.835024 10.75 12.0625 C 10.859688 12.370674 10.990174 12.658359 11.09375 12.96875 L 11.113281 13.123047 A 6 6 0 0 1 8 14 A 6 6 0 0 1 5.5429688 13.466797 L 5.78125 12.8125 L 5.71875 12.65625 L 5.875 12.375 L 6.28125 12.28125 L 6.46875 11.8125 L 6.4375 11.1875 L 6.75 10.75 L 6.78125 10.3125 C 6.3548156 10.09675 5.954505 9.878395 5.53125 9.65625 L 5.3125 9.21875 L 4.9375 9.125 L 4.71875 8.5625 L 4.21875 8.625 L 3.75 8.28125 L 3.28125 8.71875 L 3.28125 8.78125 C 3.1397511 8.739582 2.9697439 8.735292 2.84375 8.65625 L 2.75 8.34375 L 2.75 8.03125 L 2.4375 8.0625 C 2.463514 7.852424 2.505061 7.616289 2.53125 7.40625 L 2.34375 7.40625 L 2.15625 7.65625 L 2.0136719 7.7285156 A 6 6 0 0 1 2.1660156 6.625 L 2.4375 6.625 L 2.5 6.4375 L 2.875 6.53125 L 3.15625 6.875 L 3.21875 6.28125 L 3.71875 5.875 L 3.875 5.40625 L 4.25 5.25 L 4.46875 4.96875 L 4.9375 4.875 L 5.15625 4.5 L 4.46875 4.5 L 4.90625 4.3125 L 5.21875 4.3125 L 5.625 4.15625 L 5.6875 4.5625 L 5.875 4.28125 L 5.65625 4.125 L 5.71875 3.96875 L 5.5625 3.8125 L 5.375 3.78125 L 5.4375 3.59375 L 5.28125 3.3125 L 4.96875 3.4375 L 5.03125 3.1875 L 4.6992188 2.9941406 A 6 6 0 0 1 5.9980469 2.3515625 C 6.009301 2.359455 6.0198627 2.3671248 6.03125 2.375 L 6.09375 2.3183594 A 6 6 0 0 1 6.65625 2.1601562 L 6.65625 2.21875 L 6.40625 2.5 L 6.75 3.1875 L 7 3.0625 L 7.28125 2.59375 C 7.7007355 2.461422 8.104073 2.308025 8.5 2.125 L 8.46875 2.3125 L 8.65625 2.4375 L 9 2.1875 L 8.90625 2.0761719 z M 9.21875 2.84375 L 9.21875 3.03125 L 9.34375 3.1875 L 9.34375 3.46875 L 9.28125 3.875 L 9.59375 3.8125 L 9.84375 3.59375 L 9.625 3.375 C 9.556461 3.18878 9.4920315 3.022357 9.40625 2.84375 L 9.21875 2.84375 z M 4.609375 3.0566406 L 4.375 3.5 L 4.40625 3.65625 L 4.125 3.78125 L 3.9375 4.1875 L 3.875 3.8125 L 3.7539062 3.7675781 A 6 6 0 0 1 4.609375 3.0566406 z M 8.9375 3.25 L 8.75 3.3125 L 8.78125 3.6875 L 9.0625 3.53125 L 8.9375 3.25 z M 13.8125 6.5351562 A 6 6 0 0 1 13.886719 6.8691406 L 13.8125 6.8125 L 13.8125 6.5351562 z M 12.59375 6.59375 L 12.875 6.9375 L 13.25 7.71875 L 13.46875 7.96875 L 13.34375 8.25 L 13.5625 8.5 C 13.47122 8.5061 13.375072 8.5 13.28125 8.5 C 13.110809 8.134572 12.973543 7.757297 12.84375 7.375 L 12.625 7.125 L 12.5 6.65625 L 12.59375 6.59375 z M 13.996094 8.0917969 A 6 6 0 0 1 13.978516 8.4492188 C 13.849097 8.4682919 13.722917 8.4906195 13.59375 8.5 L 13.90625 8.15625 L 13.996094 8.0917969 z M 2.0097656 8.2832031 L 2.34375 8.375 L 2.5625 8.6875 L 2.9375 8.96875 L 3.125 8.90625 L 3.28125 9 L 3.28125 9.03125 L 3.09375 9.625 L 2.9375 9.84375 L 2.96875 9.96875 L 2.84375 10.4375 L 3.3125 11.28125 L 3.78125 11.71875 L 4 12 L 3.9785156 12.443359 A 6 6 0 0 1 2.0097656 8.2832031 z M 13.90625 9.0253906 A 6 6 0 0 1 13.1875 11.003906 L 13.1875 10.3125 L 13.4375 9.78125 L 13.71875 9.46875 L 13.90625 9.0253906 z "
       id="path6534" />
  </g>
</svg>
