<?xml version="1.0" encoding="UTF-8" standalone="no"?>
<!-- Created with Inkscape (http://www.inkscape.org/) -->

<svg
   xmlns:dc="http://purl.org/dc/elements/1.1/"
   xmlns:cc="http://creativecommons.org/ns#"
   xmlns:rdf="http://www.w3.org/1999/02/22-rdf-syntax-ns#"
   xmlns:svg="http://www.w3.org/2000/svg"
   xmlns="http://www.w3.org/2000/svg"
   xmlns:sodipodi="http://sodipodi.sourceforge.net/DTD/sodipodi-0.dtd"
   xmlns:inkscape="http://www.inkscape.org/namespaces/inkscape"
   width="16"
   height="16"
   id="svg2"
   sodipodi:version="0.32"
   inkscape:version="0.48.2 r9819"
   version="1.0"
   sodipodi:docname="battery-missing-symbolic.svg"
   inkscape:output_extension="org.inkscape.output.svg.inkscape"
   style="display:inline">
  <defs
     id="defs4" />
  <sodipodi:namedview
     id="base"
     pagecolor="#ffffff"
     bordercolor="#fd0000"
     borderopacity="1"
     inkscape:pageopacity="0.0"
     inkscape:pageshadow="2"
     inkscape:zoom="15.810166"
     inkscape:cx="-21.768453"
     inkscape:cy="1.4258958"
     inkscape:document-units="px"
     inkscape:current-layer="layer1"
     showgrid="true"
     inkscape:showpageshadow="false"
     showguides="false"
     inkscape:guide-bbox="true"
     inkscape:window-width="1920"
     inkscape:window-height="1030"
     inkscape:window-x="0"
     inkscape:window-y="22"
     inkscape:window-maximized="1">
    <sodipodi:guide
       orientation="1,0"
       position="0,112"
       id="guide2383" />
    <sodipodi:guide
       orientation="0,1"
       position="26.278146,128"
       id="guide2385" />
    <sodipodi:guide
       orientation="1,0"
       position="128,54.082119"
       id="guide2387" />
    <sodipodi:guide
       orientation="0,1"
       position="78.156291,0"
       id="guide2389" />
    <sodipodi:guide
       orientation="0,1"
       position="60.863576,64.084768"
       id="guide2391" />
    <inkscape:grid
       type="xygrid"
       id="grid3672"
       visible="true"
       enabled="true"
       empspacing="8"
       snapvisiblegridlinesonly="true" />
  </sodipodi:namedview>
  <metadata
     id="metadata7">
    <rdf:RDF>
      <cc:Work
         rdf:about="">
        <dc:format>image/svg+xml</dc:format>
        <dc:type
           rdf:resource="http://purl.org/dc/dcmitype/StillImage" />
        <dc:title />
      </cc:Work>
    </rdf:RDF>
  </metadata>
  <g
     inkscape:label="Icon"
     inkscape:groupmode="layer"
     id="layer1"
     style="display:inline"
     transform="translate(0,-6)">
    <path
       inkscape:connector-curvature="0"
       style="opacity:0.45;fill:#bebebe;fill-opacity:1;stroke:none;display:inline"
       d="m 32,20.75 c 0,0.6925 0.5575,1.25 1.25,1.25 l 8.5,0 C 42.4425,22 43,21.4425 43,20.75 L 43,9.25 C 43,8.5575 42.4425,8 41.75,8 L 40,8 40,7 40,6.5 C 40,6.223 39.777,6 39.5,6 L 39,6 36,6 35.5,6 C 35.223,6 35,6.223 35,6.5 L 35,7 35,8 33.25,8 C 32.5575,8 32,8.5575 32,9.25 l 0,11.5 z m 2,-1.5 0,-8.5 C 34,10.3345 34.3345,10 34.75,10 l 5.5,0 c 0.4155,0 0.75,0.3345 0.75,0.75 l 0,8.5 C 41,19.6655 40.6655,20 40.25,20 l -5.5,0 C 34.3345,20 34,19.6655 34,19.25 z"
       id="path3775" />
    <path
       id="path3777"
       d="M 6.5,7 C 6.223,7 6,7.223 6,7.5 L 6,8 4,8 C 3.446,8 3,8.446 3,9 l 0,11 c 0,0.554 0.446,1 1,1 l 8,0 c 0.554,0 1,-0.446 1,-1 L 13,9 C 13,8.446 12.554,8 12,8 L 10,8 10,7.5 C 10,7.223 9.777,7 9.5,7 l -3,0 z m -1,3 5,0 c 0.277,0 0.5,0.223 0.5,0.5 l 0,8 c 0,0.277 -0.223,0.5 -0.5,0.5 l -5,0 C 5.223,19 5,18.777 5,18.5 l 0,-8 C 5,10.223 5.223,10 5.5,10 z"
       style="color:#000000;fill:#bebebe;fill-opacity:1;fill-rule:nonzero;stroke:none;stroke-width:8;marker:none;visibility:visible;display:inline;overflow:visible;enable-background:accumulate;opacity:0.45"
       inkscape:connector-curvature="0" />
  </g>
</svg>
