<?xml version="1.0" encoding="UTF-8" standalone="no"?>
<!-- Created with Inkscape (http://www.inkscape.org/) -->

<svg
   xmlns:dc="http://purl.org/dc/elements/1.1/"
   xmlns:cc="http://creativecommons.org/ns#"
   xmlns:rdf="http://www.w3.org/1999/02/22-rdf-syntax-ns#"
   xmlns:svg="http://www.w3.org/2000/svg"
   xmlns="http://www.w3.org/2000/svg"
   xmlns:sodipodi="http://sodipodi.sourceforge.net/DTD/sodipodi-0.dtd"
   xmlns:inkscape="http://www.inkscape.org/namespaces/inkscape"
   id="svg7384"
   sodipodi:docname="channel-insecure-symbolic.svg"
   version="1.1"
   inkscape:version="0.91 r13725"
   height="16"
   width="16">
  <metadata
     id="metadata90">
    <rdf:RDF>
      <cc:Work
         rdf:about="">
        <dc:format>image/svg+xml</dc:format>
        <dc:type
           rdf:resource="http://purl.org/dc/dcmitype/StillImage" />
        <dc:title>Gnome Symbolic Icon Theme</dc:title>
      </cc:Work>
    </rdf:RDF>
  </metadata>
  <sodipodi:namedview
     inkscape:cy="14.57916"
     pagecolor="#555753"
     borderopacity="1"
     showborder="false"
     inkscape:bbox-paths="false"
     guidetolerance="10"
     inkscape:object-paths="true"
     inkscape:window-width="1539"
     showguides="true"
     inkscape:object-nodes="true"
     inkscape:snap-bbox="true"
     inkscape:pageshadow="2"
     inkscape:guide-bbox="true"
     inkscape:snap-nodes="true"
     bordercolor="#666666"
     objecttolerance="10"
     id="namedview88"
     showgrid="false"
     inkscape:window-maximized="0"
     inkscape:window-x="1676"
     inkscape:snap-global="true"
     inkscape:window-y="120"
     gridtolerance="10"
     inkscape:window-height="948"
     inkscape:snap-to-guides="true"
     inkscape:current-layer="layer9"
     inkscape:snap-bbox-midpoints="false"
     inkscape:zoom="1"
     inkscape:cx="235.69749"
     inkscape:snap-grids="true"
     inkscape:pageopacity="1">
    <inkscape:grid
       spacingx="1px"
       spacingy="1px"
       id="grid4866"
       empspacing="2"
       enabled="true"
       type="xygrid"
       snapvisiblegridlinesonly="true"
       visible="true" />
  </sodipodi:namedview>
  <title
     id="title9167">Gnome Symbolic Icon Theme</title>
  <defs
     id="defs7386" />
  <g
     inkscape:label="status"
     transform="translate(-101.0002,-397)"
     inkscape:groupmode="layer"
     id="layer9"
     style="display:inline">
    <g
       inkscape:label="lock"
       transform="translate(81.0002,121)"
       id="g4053-3-8"
       style="fill:#bebebe;fill-opacity:1" />
    <path
       inkscape:connector-curvature="0"
       d="m 106.0002,397 c -1.64469,0 -3,1.35529 -3,3 l 0,3 2,0 0,-3 c 0,-0.57129 0.42873,-1 1,-1 l 2,0 c 0.57127,0 1,0.42871 1,1 l 0,0.25 c 0.26687,-0.14912 0.55674,-0.25 0.875,-0.25 l 1.125,0 c 0,-1.64471 -1.35531,-3 -3,-3 z m -3.0625,9 c -0.554,0 -1.06473,0.44979 -1,1 l 0,0.53125 0,4.46875 10.0625,0 0,-2 -2.125,0 c -1.01035,0 -1.875,-0.86466 -1.875,-1.875 l 0,-2.125 z"
       id="rect4063-6-6"
       sodipodi:nodetypes="ssccsssscscssssccccsscs"
       style="color:#bebebe;fill:#bebebe;fill-opacity:1;fill-rule:nonzero;stroke:none;stroke-width:2;marker:none;visibility:visible;display:inline;overflow:visible" />
    <path
       inkscape:connector-curvature="0"
       class="warning"
       d="m 109.875,401 c -0.49245,0 -0.875,0.38256 -0.875,0.875 l 0,6.25 c 0,0.49244 0.38255,0.875 0.875,0.875 l 6.25,0 c 0.49245,0 0.875,-0.38256 0.875,-0.875 l 0,-6.25 C 117,401.38256 116.61745,401 116.125,401 l -6.25,0 z m 2.125,1 2,0 0,4 -2,0 0,-4 z m 0,5 2,0 0,1 -2,0 0,-1 z"
       id="path10898-3-1"
       sodipodi:nodetypes="ccccccccccccccccccc"
       style="color:#bebebe;fill:#f57900;fill-opacity:1;fill-rule:nonzero;stroke:none;stroke-width:2;marker:none;visibility:visible;display:inline;overflow:visible" />
  </g>
  <g
     inkscape:label="devices"
     transform="translate(-101.0002,-397)"
     inkscape:groupmode="layer"
     id="layer10" />
  <g
     inkscape:label="apps"
     transform="translate(-101.0002,-397)"
     inkscape:groupmode="layer"
     id="layer11" />
  <g
     inkscape:label="actions"
     transform="translate(-101.0002,-397)"
     inkscape:groupmode="layer"
     id="layer12" />
  <g
     inkscape:label="places"
     transform="translate(-101.0002,-397)"
     inkscape:groupmode="layer"
     id="layer13" />
  <g
     inkscape:label="mimetypes"
     transform="translate(-101.0002,-397)"
     inkscape:groupmode="layer"
     id="layer14" />
  <g
     inkscape:label="emblems"
     transform="translate(-101.0002,-397)"
     inkscape:groupmode="layer"
     id="layer15"
     style="display:inline" />
  <g
     inkscape:label="categories"
     transform="translate(-101.0002,-397)"
     inkscape:groupmode="layer"
     id="g4953"
     style="display:inline" />
</svg>
