<?xml version="1.0" encoding="UTF-8" standalone="no"?>
<!-- Created with Inkscape (http://www.inkscape.org/) -->

<svg
   xmlns:dc="http://purl.org/dc/elements/1.1/"
   xmlns:cc="http://creativecommons.org/ns#"
   xmlns:rdf="http://www.w3.org/1999/02/22-rdf-syntax-ns#"
   xmlns:svg="http://www.w3.org/2000/svg"
   xmlns="http://www.w3.org/2000/svg"
   xmlns:sodipodi="http://sodipodi.sourceforge.net/DTD/sodipodi-0.dtd"
   xmlns:inkscape="http://www.inkscape.org/namespaces/inkscape"
   width="16"
   height="16"
   id="svg2"
   sodipodi:version="0.32"
   inkscape:version="0.91 r13725"
   version="1.0"
   sodipodi:docname="dialog-question-symbolic.svg"
   inkscape:output_extension="org.inkscape.output.svg.inkscape">
  <defs
     id="defs4" />
  <sodipodi:namedview
     id="base"
     pagecolor="#ffffff"
     bordercolor="#9a9a9a"
     borderopacity="1"
     inkscape:pageopacity="0.0"
     inkscape:pageshadow="2"
     inkscape:zoom="22.762856"
     inkscape:cx="-5.2471493"
     inkscape:cy="6.070678"
     inkscape:document-units="px"
     inkscape:current-layer="layer3"
     showgrid="true"
     inkscape:showpageshadow="false"
     showguides="true"
     inkscape:guide-bbox="true"
     inkscape:window-width="1920"
     inkscape:window-height="1028"
     inkscape:window-x="0"
     inkscape:window-y="25"
     inkscape:window-maximized="1">
    <sodipodi:guide
       orientation="1,0"
       position="0,112"
       id="guide2383" />
    <sodipodi:guide
       orientation="0,1"
       position="26.278146,128"
       id="guide2385" />
    <sodipodi:guide
       orientation="1,0"
       position="128,54.082119"
       id="guide2387" />
    <sodipodi:guide
       orientation="0,1"
       position="78.156291,0"
       id="guide2389" />
    <inkscape:grid
       type="xygrid"
       id="grid3672"
       visible="true"
       enabled="true" />
  </sodipodi:namedview>
  <metadata
     id="metadata7">
    <rdf:RDF>
      <cc:Work
         rdf:about="">
        <dc:format>image/svg+xml</dc:format>
        <dc:type
           rdf:resource="http://purl.org/dc/dcmitype/StillImage" />
        <dc:title />
      </cc:Work>
    </rdf:RDF>
  </metadata>
  <g
     inkscape:groupmode="layer"
     id="layer3"
     inkscape:label="Cross"
     style="display:inline"
     transform="translate(-0.4642613,-2.999982)">
    <path
       inkscape:connector-curvature="0"
       style="fill:#bebebe;fill-opacity:1;stroke:none;display:inline"
       d="m 8.464261,3.999982 c -4.4182777,0 -7.9999997,2.91629 -7.9999997,6.53125 0,2.302655 1.459222,4.333261 3.65625,5.5 -0.08355,0.608184 -0.480102,2.115864 -2.28125,2.625 2.332827,0.253533 3.89629,-0.891527 4.71875,-1.75 0.6117587,0.122546 1.2483267,0.1875 1.9062497,0.1875 4.418278,0 8,-2.94754 8,-6.5625 0,-3.61496 -3.581722,-6.53125 -8,-6.53125 z m -0.21875,2 c 0.432284,8.9e-6 0.850501,0.05219 1.21875,0.15625 0.368241,0.1000754 0.669316,0.2413777 0.9375,0.4375 0.268173,0.1921362 0.472893,0.4385711 0.625,0.71875 0.152095,0.2801942 0.249994,0.5812697 0.25,0.9375 -6e-6,0.328225 -0.05219,0.646082 -0.15625,0.90625 -0.100072,0.260179 -0.26462,0.502611 -0.46875,0.71875 -0.204142,0.216149 -0.473049,0.409632 -0.78125,0.59375 -0.304207,0.180125 -0.654232,0.331892 -1.0625,0.5 l -0.25,1.125 -0.75,0 -0.25,-1.5 c 0.352232,-0.140089 0.650847,-0.31187 0.875,-0.5 0.224146,-0.192123 0.403161,-0.408851 0.53125,-0.625 0.132084,-0.220141 0.233214,-0.447334 0.28125,-0.6875 0.04803,-0.240153 0.06249,-0.474581 0.0625,-0.71875 -4e-6,-0.1961236 -0.02648,-0.3711361 -0.0625,-0.53125 C 9.209481,7.3671301 9.169311,7.241067 9.089261,7.124982 9.013211,7.0049098 8.90084,6.9077827 8.776761,6.843732 8.656677,6.779698 8.507369,6.74999 8.339261,6.749982 c -0.184126,8.1e-6 -0.344671,0.040952 -0.46875,0.125 -0.124086,0.084064 -0.205201,0.1724144 -0.28125,0.3125 -0.07605,0.140101 -0.151478,0.311882 -0.1875,0.5 -0.03202,0.1881325 -0.03125,0.385618 -0.03125,0.59375 -0.25217,7e-6 -0.47536,-0.02647 -0.6874997,-0.0625 -0.2121408,-0.03601 -0.406397,-0.0882 -0.5625,-0.15625 -0.1521022,-0.072041 -0.2869419,-0.141921 -0.375,-0.25 -0.084057,-0.1080649 -0.1250005,-0.2308966 -0.125,-0.375 -5e-7,-0.2001257 0.05218,-0.3903774 0.15625,-0.5625 0.1040687,-0.1761092 0.2878576,-0.3406562 0.5,-0.46875 C 6.4929041,6.2781552 6.7610409,6.1970387 7.089261,6.124982 7.417478,6.04894 7.793207,5.9999909 8.245511,5.999982 z m -0.0625,7.03125 c 0.136087,2e-6 0.254917,0.03048 0.375,0.0625 0.124079,0.03202 0.251685,0.0802 0.34375,0.15625 0.09206,0.07605 0.135462,0.184416 0.1875,0.3125 0.05603,0.124084 0.09374,0.280626 0.09375,0.46875 -4e-6,0.184123 -0.03771,0.313418 -0.09375,0.4375 -0.05204,0.124083 -0.09544,0.23645 -0.1875,0.3125 -0.09206,0.07605 -0.219671,0.124229 -0.34375,0.15625 -0.120083,0.03602 -0.238913,0.0625 -0.375,0.0625 -0.140097,0 -0.28217,-0.02647 -0.40625,-0.0625 -0.124085,-0.03202 -0.220441,-0.0802 -0.3125,-0.15625 -0.08806,-0.07605 -0.166717,-0.188417 -0.21875,-0.3125 -0.05204,-0.124082 -0.0625,-0.253377 -0.0625,-0.4375 -2e-6,-0.188124 0.01046,-0.344666 0.0625,-0.46875 0.05203,-0.128084 0.130689,-0.236448 0.21875,-0.3125 0.09206,-0.07605 0.188415,-0.124227 0.3125,-0.15625 0.12408,-0.03202 0.266153,-0.0625 0.40625,-0.0625 z"
       id="path3620" />
  </g>
</svg>
