<?xml version="1.0" encoding="UTF-8" standalone="no"?>
<!-- Created with Inkscape (http://www.inkscape.org/) -->

<svg
   xmlns:dc="http://purl.org/dc/elements/1.1/"
   xmlns:cc="http://creativecommons.org/ns#"
   xmlns:rdf="http://www.w3.org/1999/02/22-rdf-syntax-ns#"
   xmlns:svg="http://www.w3.org/2000/svg"
   xmlns="http://www.w3.org/2000/svg"
   xmlns:sodipodi="http://sodipodi.sourceforge.net/DTD/sodipodi-0.dtd"
   xmlns:inkscape="http://www.inkscape.org/namespaces/inkscape"
   sodipodi:docname="rotation-allowed-symbolic.svg"
   height="16"
   id="svg7384"
   inkscape:version="0.91 r13725"
   version="1.1"
   width="16">
  <metadata
     id="metadata90">
    <rdf:RDF>
      <cc:Work
         rdf:about="">
        <dc:format>image/svg+xml</dc:format>
        <dc:type
           rdf:resource="http://purl.org/dc/dcmitype/StillImage" />
        <dc:title>Gnome Symbolic Icon Theme</dc:title>
      </cc:Work>
    </rdf:RDF>
  </metadata>
  <sodipodi:namedview
     inkscape:bbox-nodes="false"
     inkscape:bbox-paths="true"
     bordercolor="#666666"
     borderopacity="1"
     inkscape:current-layer="layer9"
     inkscape:cx="33.925102"
     inkscape:cy="8.37166"
     gridtolerance="10"
     inkscape:guide-bbox="true"
     guidetolerance="10"
     id="namedview88"
     inkscape:object-nodes="false"
     inkscape:object-paths="false"
     objecttolerance="10"
     pagecolor="#3a3b39"
     inkscape:pageopacity="1"
     inkscape:pageshadow="2"
     showborder="false"
     showgrid="false"
     showguides="true"
     inkscape:snap-bbox="true"
     inkscape:snap-bbox-midpoints="false"
     inkscape:snap-global="true"
     inkscape:snap-grids="true"
     inkscape:snap-nodes="false"
     inkscape:snap-others="false"
     inkscape:snap-to-guides="true"
     inkscape:window-height="1376"
     inkscape:window-maximized="1"
     inkscape:window-width="2560"
     inkscape:window-x="2560"
     inkscape:window-y="27"
     inkscape:zoom="1">
    <inkscape:grid
       empspacing="2"
       enabled="true"
       id="grid4866"
       originx="60px"
       originy="140px"
       snapvisiblegridlinesonly="true"
       spacingx="1px"
       spacingy="1px"
       type="xygrid"
       visible="true" />
  </sodipodi:namedview>
  <title
     id="title9167">Gnome Symbolic Icon Theme</title>
  <defs
     id="defs7386" />
  <g
     inkscape:groupmode="layer"
     id="layer9"
     inkscape:label="status"
     style="display:inline"
     transform="translate(-181.0002,-357)">
    <path
       inkscape:connector-curvature="0"
       d="m 195.07599,369.90653 a 1.0001,1.0001 0 0 0 -0.0314,-0.12504 1.0001,1.0001 0 0 0 -1,-0.78125 l -1.68749,0 c 0.57793,-0.3823 1.08222,-0.84927 1.5,-1.40624 0.86676,-1.15564 1.25227,-2.53199 1.18749,-3.87501 -0.009,-0.19188 -0.0353,-0.37222 -0.0625,-0.56249 -0.21741,-1.52218 -1.02304,-2.97814 -2.34378,-3.96874 -2.64143,-1.98119 -6.42504,-1.42267 -8.40624,1.21875 -1.98122,2.64147 -1.42266,6.42504 1.21875,8.40624 a 1.0063276,1.0063276 0 0 0 0.59377,0.18747 1.0063276,1.0063276 0 0 0 0.1562,3e-5 l 0.84375,0 10e-6,-0.81251 -3e-5,-0.0938 a 1.0063276,1.0063276 0 0 0 -2e-5,-0.0938 1.0063276,1.0063276 0 0 0 -0.40627,-0.81248 c -1.77675,-1.33265 -2.11391,-3.81701 -0.78125,-5.59376 1.33264,-1.77674 3.81698,-2.11389 5.59375,-0.78124 1.77673,1.33264 2.1139,3.81698 0.78125,5.59374 -0.3221,0.42949 -0.73294,0.76958 -1.1875,1.03125 l -1e-5,-1.43749 a 1.0001,1.0001 0 0 0 -1,-1 1.0001,1.0001 0 0 0 -0.21874,-2e-5 l -0.78124,1e-5 0,0.84375 -3e-5,0.15622 0,4.00001 0,0.99999 1,1e-5 4.00001,-1e-5 a 1.0001,1.0001 0 0 0 0.1875,-8e-5 l 0.81249,0 -10e-6,-0.81251 a 1.0001,1.0001 0 0 0 0.0313,-0.28123 z"
       id="path10365"
       style="font-size:medium;font-style:normal;font-variant:normal;font-weight:normal;font-stretch:normal;text-indent:0;text-align:start;text-decoration:none;line-height:normal;letter-spacing:normal;word-spacing:normal;text-transform:none;direction:ltr;block-progression:tb;writing-mode:lr-tb;text-anchor:start;baseline-shift:baseline;color:#bebebe;fill:#bebebe;fill-opacity:1;stroke:none;stroke-width:2;marker:none;visibility:visible;display:inline;overflow:visible;enable-background:accumulate;font-family:Sans;-inkscape-font-specification:Sans" />
  </g>
  <g
     inkscape:groupmode="layer"
     id="layer10"
     inkscape:label="devices"
     transform="translate(-181.0002,-357)" />
  <g
     inkscape:groupmode="layer"
     id="layer11"
     inkscape:label="apps"
     transform="translate(-181.0002,-357)" />
  <g
     inkscape:groupmode="layer"
     id="layer13"
     inkscape:label="places"
     transform="translate(-181.0002,-357)" />
  <g
     inkscape:groupmode="layer"
     id="layer14"
     inkscape:label="mimetypes"
     transform="translate(-181.0002,-357)" />
  <g
     inkscape:groupmode="layer"
     id="layer15"
     inkscape:label="emblems"
     style="display:inline"
     transform="translate(-181.0002,-357)" />
  <g
     inkscape:groupmode="layer"
     id="g71291"
     inkscape:label="emotes"
     style="display:inline"
     transform="translate(-181.0002,-357)" />
  <g
     inkscape:groupmode="layer"
     id="g4953"
     inkscape:label="categories"
     style="display:inline"
     transform="translate(-181.0002,-357)" />
  <g
     inkscape:groupmode="layer"
     id="layer12"
     inkscape:label="actions"
     style="display:inline"
     transform="translate(-181.0002,-357)" />
</svg>
