<?xml version="1.0" encoding="UTF-8" standalone="no"?>
<!-- Created with Inkscape (http://www.inkscape.org/) -->

<svg
   xmlns:dc="http://purl.org/dc/elements/1.1/"
   xmlns:cc="http://creativecommons.org/ns#"
   xmlns:rdf="http://www.w3.org/1999/02/22-rdf-syntax-ns#"
   xmlns:svg="http://www.w3.org/2000/svg"
   xmlns="http://www.w3.org/2000/svg"
   xmlns:sodipodi="http://sodipodi.sourceforge.net/DTD/sodipodi-0.dtd"
   xmlns:inkscape="http://www.inkscape.org/namespaces/inkscape"
   width="16"
   height="16"
   id="svg2"
   sodipodi:version="0.32"
   inkscape:version="0.91 r13725"
   version="1.0"
   sodipodi:docname="weather-storm-symbolic.svg"
   inkscape:output_extension="org.inkscape.output.svg.inkscape">
  <defs
     id="defs4" />
  <sodipodi:namedview
     id="base"
     pagecolor="#ffffff"
     bordercolor="#e7e7e7"
     borderopacity="1"
     inkscape:pageopacity="0.0"
     inkscape:pageshadow="2"
     inkscape:zoom="11.258999"
     inkscape:cx="-18.099698"
     inkscape:cy="0.17940683"
     inkscape:document-units="px"
     inkscape:current-layer="layer1"
     showgrid="true"
     inkscape:showpageshadow="false"
     showguides="true"
     inkscape:guide-bbox="true"
     inkscape:window-width="1920"
     inkscape:window-height="1029"
     inkscape:window-x="0"
     inkscape:window-y="24"
     inkscape:window-maximized="1"
     inkscape:snap-global="true"
     inkscape:snap-grids="false"
     inkscape:snap-bbox="true"
     inkscape:bbox-paths="true"
     inkscape:bbox-nodes="true"
     inkscape:snap-bbox-edge-midpoints="true"
     inkscape:snap-bbox-midpoints="true"
     inkscape:snap-nodes="true"
     inkscape:object-paths="true"
     inkscape:snap-intersection-paths="true"
     inkscape:object-nodes="true"
     inkscape:snap-smooth-nodes="true"
     inkscape:snap-midpoints="true"
     inkscape:snap-object-midpoints="true"
     inkscape:snap-center="true">
    <sodipodi:guide
       orientation="1,0"
       position="0,112"
       id="guide2383" />
    <sodipodi:guide
       orientation="0,1"
       position="78.156291,0"
       id="guide2389" />
    <inkscape:grid
       type="xygrid"
       id="grid3672"
       visible="true"
       enabled="true" />
    <sodipodi:guide
       orientation="1,0"
       position="22.008699,4.1542523"
       id="guide2950" />
    <sodipodi:guide
       orientation="0,1"
       position="11.22532,22.008699"
       id="guide2952" />
  </sodipodi:namedview>
  <metadata
     id="metadata7">
    <rdf:RDF>
      <cc:Work
         rdf:about="">
        <dc:format>image/svg+xml</dc:format>
        <dc:type
           rdf:resource="http://purl.org/dc/dcmitype/StillImage" />
        <dc:title />
      </cc:Work>
    </rdf:RDF>
  </metadata>
  <g
     inkscape:label="Calque 1"
     inkscape:groupmode="layer"
     id="layer1">
    <path
       sodipodi:type="arc"
       style="color:#000000;fill:#000000;fill-opacity:1;fill-rule:nonzero;stroke:none;stroke-width:2;marker:none;visibility:visible;display:inline;overflow:visible;enable-background:accumulate"
       id="path3085"
       sodipodi:cx="4"
       sodipodi:cy="6"
       sodipodi:rx="3"
       sodipodi:ry="3"
       d="M 7,6 A 3,3 0 1 1 1,6 3,3 0 1 1 7,6 z"
       transform="translate(-13,0)" />
    <path
       d="M 7,6 A 3,3 0 1 1 1,6 3,3 0 1 1 7,6 z"
       sodipodi:ry="3"
       sodipodi:rx="3"
       sodipodi:cy="6"
       sodipodi:cx="4"
       id="path3087"
       style="color:#000000;fill:#000000;fill-opacity:1;fill-rule:nonzero;stroke:none;stroke-width:2;marker:none;visibility:visible;display:inline;overflow:visible;enable-background:accumulate"
       sodipodi:type="arc"
       transform="matrix(1.5,0,0,1.5,-18.5,-4.5)" />
    <path
       transform="matrix(0.83333333,0,0,0.83333333,-19.833333,1.5)"
       sodipodi:type="arc"
       style="color:#000000;fill:#000000;fill-opacity:1;fill-rule:nonzero;stroke:none;stroke-width:2;marker:none;visibility:visible;display:inline;overflow:visible;enable-background:accumulate"
       id="path3089"
       sodipodi:cx="4"
       sodipodi:cy="6"
       sodipodi:rx="3"
       sodipodi:ry="3"
       d="M 7,6 A 3,3 0 1 1 1,6 3,3 0 1 1 7,6 z" />
    <rect
       style="color:#000000;fill:#000000;fill-opacity:1;fill-rule:nonzero;stroke:none;stroke-width:2;marker:none;visibility:visible;display:inline;overflow:visible;enable-background:accumulate"
       id="rect3091"
       width="7.5"
       height="4"
       x="-16.5"
       y="5" />
    <path
       transform="translate(-12,-20)"
       d="M 7,6 A 3,3 0 1 1 1,6 3,3 0 1 1 7,6 z"
       sodipodi:ry="3"
       sodipodi:rx="3"
       sodipodi:cy="6"
       sodipodi:cx="4"
       id="path3094"
       style="color:#000000;fill:#000000;fill-opacity:1;fill-rule:nonzero;stroke:none;stroke-width:2;marker:none;visibility:visible;display:inline;overflow:visible;enable-background:accumulate"
       sodipodi:type="arc" />
    <path
       transform="matrix(1.5,0,0,1.5,-18.5,-24.5)"
       sodipodi:type="arc"
       style="color:#000000;fill:#000000;fill-opacity:1;fill-rule:nonzero;stroke:none;stroke-width:2;marker:none;visibility:visible;display:inline;overflow:visible;enable-background:accumulate"
       id="path3096"
       sodipodi:cx="4"
       sodipodi:cy="6"
       sodipodi:rx="3"
       sodipodi:ry="3"
       d="M 7,6 A 3,3 0 1 1 1,6 3,3 0 1 1 7,6 z" />
    <rect
       y="-15"
       x="-13"
       height="4"
       width="5"
       id="rect3100"
       style="color:#000000;fill:#000000;fill-opacity:1;fill-rule:nonzero;stroke:none;stroke-width:2;marker:none;visibility:visible;display:inline;overflow:visible;enable-background:accumulate" />
    <path
       transform="translate(-12,20)"
       d="M 7,6 A 3,3 0 1 1 1,6 3,3 0 1 1 7,6 z"
       sodipodi:ry="3"
       sodipodi:rx="3"
       sodipodi:cy="6"
       sodipodi:cx="4"
       id="path3102"
       style="color:#000000;fill:#000000;fill-opacity:1;fill-rule:nonzero;stroke:none;stroke-width:2;marker:none;visibility:visible;display:inline;overflow:visible;enable-background:accumulate"
       sodipodi:type="arc" />
    <path
       transform="matrix(1.5,0,0,1.5,-18.5,15.5)"
       sodipodi:type="arc"
       style="color:#000000;fill:#000000;fill-opacity:1;fill-rule:nonzero;stroke:none;stroke-width:2;marker:none;visibility:visible;display:inline;overflow:visible;enable-background:accumulate"
       id="path3104"
       sodipodi:cx="4"
       sodipodi:cy="6"
       sodipodi:rx="3"
       sodipodi:ry="3"
       d="M 7,6 A 3,3 0 1 1 1,6 3,3 0 1 1 7,6 z" />
    <path
       d="M 7,6 A 3,3 0 1 1 1,6 3,3 0 1 1 7,6 z"
       sodipodi:ry="3"
       sodipodi:rx="3"
       sodipodi:cy="6"
       sodipodi:cx="4"
       id="path3106"
       style="color:#000000;fill:#000000;fill-opacity:1;fill-rule:nonzero;stroke:none;stroke-width:2;marker:none;visibility:visible;display:inline;overflow:visible;enable-background:accumulate"
       sodipodi:type="arc"
       transform="matrix(0.83333333,0,0,0.83333333,-19.833333,21.5)" />
    <rect
       y="25"
       x="-16.5"
       height="4"
       width="8.5"
       id="rect3108"
       style="color:#000000;fill:#000000;fill-opacity:1;fill-rule:nonzero;stroke:none;stroke-width:2;marker:none;visibility:visible;display:inline;overflow:visible;enable-background:accumulate" />
    <path
       transform="matrix(1.1666667,0,0,1.1666667,-33.166667,-1.5)"
       d="M 7,6 A 3,3 0 1 1 1,6 3,3 0 1 1 7,6 z"
       sodipodi:ry="3"
       sodipodi:rx="3"
       sodipodi:cy="6"
       sodipodi:cx="4"
       id="path3110"
       style="color:#000000;fill:#000000;fill-opacity:1;fill-rule:nonzero;stroke:none;stroke-width:2;marker:none;visibility:visible;display:inline;overflow:visible;enable-background:accumulate"
       sodipodi:type="arc" />
    <path
       transform="matrix(1.5,0,0,1.5,-38.5,-4.5)"
       sodipodi:type="arc"
       style="color:#000000;fill:#000000;fill-opacity:1;fill-rule:nonzero;stroke:none;stroke-width:2;marker:none;visibility:visible;display:inline;overflow:visible;enable-background:accumulate"
       id="path3112"
       sodipodi:cx="4"
       sodipodi:cy="6"
       sodipodi:rx="3"
       sodipodi:ry="3"
       d="M 7,6 A 3,3 0 1 1 1,6 3,3 0 1 1 7,6 z" />
    <path
       d="M 7,6 A 3,3 0 1 1 1,6 3,3 0 1 1 7,6 z"
       sodipodi:ry="3"
       sodipodi:rx="3"
       sodipodi:cy="6"
       sodipodi:cx="4"
       id="path3114"
       style="color:#000000;fill:#000000;fill-opacity:1;fill-rule:nonzero;stroke:none;stroke-width:2;marker:none;visibility:visible;display:inline;overflow:visible;enable-background:accumulate"
       sodipodi:type="arc"
       transform="matrix(0.83333333,0,0,0.83333333,-39.833333,1.5)" />
    <rect
       y="5"
       x="-36.5"
       height="4"
       width="8"
       id="rect3116"
       style="color:#000000;fill:#000000;fill-opacity:1;fill-rule:nonzero;stroke:none;stroke-width:2;marker:none;visibility:visible;display:inline;overflow:visible;enable-background:accumulate" />
    <path
       style="color:#000000;fill:#bebebe;fill-opacity:1;fill-rule:nonzero;stroke:none;stroke-width:2;marker:none;visibility:visible;display:inline;overflow:visible;enable-background:accumulate"
       d="M 7.5 0 C 5.164201 0 3.253781 1.7851525 3.03125 4.0625 C 1.877066 4.2838766 1 5.2812563 1 6.5 C 1 7.8807119 2.119288 9 3.5 9 L 4.71875 9 L 5.03125 7.75 A 0.99228672 0.99228672 0 0 1 5.90625 7 A 0.99228672 0.99228672 0 0 1 6 7 L 9 7 A 0.99228672 0.99228672 0 0 1 9.875 8.4375 L 9.59375 9 L 10.09375 9 L 11.5 9 C 13.432997 9 15 7.4329967 15 5.5 C 15 3.5670033 13.432997 2 11.5 2 C 11.415681 2 11.332827 2.0253863 11.25 2.03125 C 10.446562 0.80268909 9.077518 0 7.5 0 z "
       id="path3126" />
    <path
       style="fill:#bebebe;fill-opacity:1;stroke:none"
       d="m 6,8 -1,4 2,0 -1,4 4,-6 -2,0 1,-2 z"
       id="path3134"
       inkscape:connector-curvature="0"
       sodipodi:nodetypes="cccccccc" />
    <path
       style="color:#000000;fill:#000000;fill-opacity:1;fill-rule:nonzero;stroke:none;stroke-width:2;marker:none;visibility:visible;display:inline;overflow:visible;enable-background:accumulate"
       d="m -32.5,20 c -2.335799,0 -4.246219,1.785153 -4.46875,4.0625 C -38.122934,24.283877 -39,25.281256 -39,26.5 c 0,1.380712 1.119288,2.5 2.5,2.5 l 4,0 4,0 c 1.932997,0 3.5,-1.567003 3.5,-3.5 0,-1.932997 -1.567003,-3.5 -3.5,-3.5 -0.08432,0 -0.167173,0.02539 -0.25,0.03125 C -29.553438,20.802689 -30.922482,20 -32.5,20 z"
       id="path3901"
       inkscape:connector-curvature="0" />
  </g>
</svg>
