<?xml version="1.0" encoding="UTF-8" standalone="no"?>
<!-- Created with Inkscape (http://www.inkscape.org/) -->

<svg
   xmlns:dc="http://purl.org/dc/elements/1.1/"
   xmlns:cc="http://creativecommons.org/ns#"
   xmlns:rdf="http://www.w3.org/1999/02/22-rdf-syntax-ns#"
   xmlns:svg="http://www.w3.org/2000/svg"
   xmlns="http://www.w3.org/2000/svg"
   xmlns:sodipodi="http://sodipodi.sourceforge.net/DTD/sodipodi-0.dtd"
   xmlns:inkscape="http://www.inkscape.org/namespaces/inkscape"
   width="16"
   height="16"
   id="svg2"
   sodipodi:version="0.32"
   inkscape:version="0.91 r13725"
   version="1.0"
   sodipodi:docname="weather-showers-symbolic.svg"
   inkscape:output_extension="org.inkscape.output.svg.inkscape">
  <defs
     id="defs4" />
  <sodipodi:namedview
     id="base"
     pagecolor="#ffffff"
     bordercolor="#e7e7e7"
     borderopacity="1"
     inkscape:pageopacity="0.0"
     inkscape:pageshadow="2"
     inkscape:zoom="13.346717"
     inkscape:cx="-33.124689"
     inkscape:cy="6.3106338"
     inkscape:document-units="px"
     inkscape:current-layer="layer1"
     showgrid="true"
     inkscape:showpageshadow="false"
     showguides="true"
     inkscape:guide-bbox="true"
     inkscape:window-width="1920"
     inkscape:window-height="1029"
     inkscape:window-x="0"
     inkscape:window-y="24"
     inkscape:window-maximized="1"
     inkscape:snap-global="true">
    <sodipodi:guide
       orientation="1,0"
       position="0,112"
       id="guide2383" />
    <sodipodi:guide
       orientation="0,1"
       position="78.156291,0"
       id="guide2389" />
    <inkscape:grid
       type="xygrid"
       id="grid3672"
       visible="true"
       enabled="true" />
    <sodipodi:guide
       orientation="1,0"
       position="22.008699,4.1542523"
       id="guide2950" />
    <sodipodi:guide
       orientation="0,1"
       position="11.22532,22.008699"
       id="guide2952" />
  </sodipodi:namedview>
  <metadata
     id="metadata7">
    <rdf:RDF>
      <cc:Work
         rdf:about="">
        <dc:format>image/svg+xml</dc:format>
        <dc:type
           rdf:resource="http://purl.org/dc/dcmitype/StillImage" />
        <dc:title />
      </cc:Work>
    </rdf:RDF>
  </metadata>
  <g
     inkscape:label="Calque 1"
     inkscape:groupmode="layer"
     id="layer1">
    <path
       inkscape:transform-center-y="-0.48682856"
       sodipodi:nodetypes="ssscs"
       inkscape:connector-curvature="0"
       id="path3878"
       d="M 8.5,14.874521 C 8.5,15.522552 8.0604763,16 7.5000004,16 6.9356517,16 6.5,15.526117 6.5,14.874523 6.5,13.98275 7.4999997,13 7.4999997,13 7.4999997,13 8.5,13.983027 8.5,14.874521 z"
       style="color:#000000;fill:#bebebe;fill-opacity:1;fill-rule:nonzero;stroke:none;stroke-width:1;marker:none;visibility:visible;display:inline;overflow:visible;enable-background:accumulate" />
    <path
       style="color:#000000;fill:#bebebe;fill-opacity:1;fill-rule:nonzero;stroke:none;stroke-width:2;marker:none;visibility:visible;display:inline;overflow:visible;enable-background:accumulate"
       d="M 7.5,0 C 5.164201,0 3.253781,1.785153 3.03125,4.0625 1.877066,4.283877 1,5.281256 1,6.5 1,7.880712 2.119288,9 3.5,9 l 4,0 4,0 C 13.432997,9 15,7.432997 15,5.5 15,3.567003 13.432997,2 11.5,2 11.41568,2 11.332827,2.02539 11.25,2.03125 10.446562,0.802689 9.077518,0 7.5,0 z"
       id="path3901"
       inkscape:connector-curvature="0" />
    <path
       style="color:#000000;fill:#bebebe;fill-opacity:1;fill-rule:nonzero;stroke:none;stroke-width:1;marker:none;visibility:visible;display:inline;overflow:visible;enable-background:accumulate"
       d="M 11.5,12.874521 C 11.5,13.522552 11.060476,14 10.5,14 9.9356517,14 9.5,13.526117 9.5,12.874523 9.5,11.98275 10.5,11 10.5,11 c 0,0 1,0.983027 1,1.874521 z"
       id="path3886"
       inkscape:connector-curvature="0"
       sodipodi:nodetypes="ssscs"
       inkscape:transform-center-y="-0.48682856" />
    <path
       inkscape:transform-center-y="-0.48682856"
       sodipodi:nodetypes="ssscs"
       inkscape:connector-curvature="0"
       id="path3888"
       d="M 5.5,11.874521 C 5.5,12.522552 5.060476,13 4.5,13 3.9356517,13 3.5,12.526117 3.5,11.874523 3.5,10.98275 4.5,10 4.5,10 c 0,0 1,0.983027 1,1.874521 z"
       style="color:#000000;fill:#bebebe;fill-opacity:1;fill-rule:nonzero;stroke:none;stroke-width:1;marker:none;visibility:visible;display:inline;overflow:visible;enable-background:accumulate" />
  </g>
</svg>
