<?xml version="1.0" encoding="UTF-8" standalone="no"?>
<!-- Created with Inkscape (http://www.inkscape.org/) -->

<svg
   xmlns:dc="http://purl.org/dc/elements/1.1/"
   xmlns:cc="http://creativecommons.org/ns#"
   xmlns:rdf="http://www.w3.org/1999/02/22-rdf-syntax-ns#"
   xmlns:svg="http://www.w3.org/2000/svg"
   xmlns="http://www.w3.org/2000/svg"
   xmlns:sodipodi="http://sodipodi.sourceforge.net/DTD/sodipodi-0.dtd"
   xmlns:inkscape="http://www.inkscape.org/namespaces/inkscape"
   width="16"
   height="16"
   id="svg2"
   sodipodi:version="0.32"
   inkscape:version="0.91 r13725"
   version="1.0"
   sodipodi:docname="weather-clear-night-symbolic.svg"
   inkscape:output_extension="org.inkscape.output.svg.inkscape">
  <defs
     id="defs4" />
  <sodipodi:namedview
     id="base"
     pagecolor="#ffffff"
     bordercolor="#e7e7e7"
     borderopacity="1"
     inkscape:pageopacity="0.0"
     inkscape:pageshadow="2"
     inkscape:zoom="8.221397"
     inkscape:cx="-2.4983039"
     inkscape:cy="11.73892"
     inkscape:document-units="px"
     inkscape:current-layer="layer1"
     showgrid="true"
     inkscape:showpageshadow="false"
     showguides="true"
     inkscape:guide-bbox="true"
     inkscape:window-width="1920"
     inkscape:window-height="1029"
     inkscape:window-x="0"
     inkscape:window-y="24"
     inkscape:window-maximized="1"
     inkscape:snap-global="true"
     inkscape:snap-grids="true"
     inkscape:snap-bbox="true"
     inkscape:bbox-nodes="true"
     inkscape:bbox-paths="true"
     inkscape:snap-bbox-edge-midpoints="true"
     inkscape:snap-bbox-midpoints="true"
     inkscape:object-paths="true"
     inkscape:snap-intersection-paths="true"
     inkscape:object-nodes="true"
     inkscape:snap-smooth-nodes="true"
     inkscape:snap-midpoints="true"
     inkscape:snap-object-midpoints="true"
     inkscape:snap-center="true">
    <sodipodi:guide
       orientation="1,0"
       position="0,112"
       id="guide2383" />
    <sodipodi:guide
       orientation="0,1"
       position="78.156291,0"
       id="guide2389" />
    <inkscape:grid
       type="xygrid"
       id="grid3672"
       visible="true"
       enabled="true" />
    <sodipodi:guide
       orientation="1,0"
       position="22.008699,4.1542523"
       id="guide2950" />
    <sodipodi:guide
       orientation="0,1"
       position="11.22532,22.008699"
       id="guide2952" />
  </sodipodi:namedview>
  <metadata
     id="metadata7">
    <rdf:RDF>
      <cc:Work
         rdf:about="">
        <dc:format>image/svg+xml</dc:format>
        <dc:type
           rdf:resource="http://purl.org/dc/dcmitype/StillImage" />
        <dc:title />
      </cc:Work>
    </rdf:RDF>
  </metadata>
  <g
     inkscape:label="Calque 1"
     inkscape:groupmode="layer"
     id="layer1">
    <path
       style="opacity:0.35;color:#000000;fill:#bebebe;fill-opacity:1;fill-rule:nonzero;stroke:none;stroke-width:1.5;marker:none;visibility:visible;display:inline;overflow:visible;enable-background:accumulate"
       d="m -12,2 c -3.313709,0 -6,2.686291 -6,6 0,3.313709 2.686291,6 6,6 3.313709,0 6,-2.686291 6,-6 0,-3.313709 -2.686291,-6 -6,-6 z m -1.625,1.895833 c 0.265845,0.298884 -0.236753,0.922718 -0.645833,0.75 -0.480292,-0.382976 0.282291,-0.771353 0.645833,-0.75 z m 3.020833,0.145834 c 0.324859,0.04561 0.624942,0.191226 0.916667,0.333333 0.454567,0.0963 0.494669,0.631288 0.75,0.9375 0.297028,0.209856 0.717557,0.584745 0.520833,0.979167 C -8.647026,6.278207 -8.743722,5.773235 -9.0625,5.6875 -9.325035,5.288997 -10.057008,5.60104 -10.125,5.083333 -9.964197,4.601772 -11.125805,4.495893 -10.604167,4.041667 z M -12.083333,4.6875 c 0.192809,0.02472 0.373829,0.0336 0.5625,0.08333 0.588764,0.121654 0.818082,0.878422 0.583333,1.375 -0.214431,0.434628 -0.780819,0.30842 -1.083333,0.04167 -0.455922,-0.361357 -0.789968,0.177137 -0.958334,0.541667 -0.217148,0.535421 -0.739949,-0.128091 -1,0.270833 -0.243049,0.470094 -0.658973,-0.08378 -0.604166,-0.354167 0.396765,0.06432 0.70969,-0.342391 0.5,-0.708333 -0.387483,-0.361897 0.03472,-0.716325 0.416666,-0.791667 0.445914,-0.368351 1.069688,-0.257611 1.583334,-0.458333 z M -14.8125,4.916667 c 0.605963,-0.05854 0.324414,0.736034 0.1875,1.0625 -0.260421,0.307342 -1.015845,0.632471 -1.270833,0.145833 -0.01624,-0.558853 0.541776,-0.832041 0.875,-1.1875 0.07235,0 0.135973,-0.02183 0.208333,-0.02083 z m 5.416667,0.875 0.08333,0.0625 c 0.570882,0.03572 0.196996,0.687018 0.604167,0.895833 0.60847,0.187331 0.06164,0.7570113 0.1875,1.1458333 0.577136,0.4557587 0.528478,-0.7464213 1,-0.625 0.390398,0.3632707 0.03867,0.94628 0.04167,1.3958334 0.03086,0.541128 -0.48214,0.9197658 -0.541666,1.4166663 -0.279526,0.165903 -0.48141,0.421793 -0.708334,0.583334 -0.264214,0.252804 -0.314863,0.627409 -0.729166,0.708333 -0.341106,0.20316 -0.824945,0.427717 -1.166667,0.104167 -0.457975,-0.358819 -0.221395,-0.97563 0.208333,-1.1875 0.308648,-0.173305 0.943338,-0.09972 0.6875,-0.6250003 -0.174947,-0.2397302 -0.969326,-0.2562502 -0.541666,-0.6875 C -9.869824,8.60148 -10.619967,8.4540333 -10.75,8.8333333 c -0.35901,0.4149387 -0.971165,0.5110206 -1.479167,0.6458334 -0.26146,0.1071846 -0.81041,-0.039106 -0.4375,-0.3541667 0.257329,0.057808 0.762968,-0.092503 0.5,-0.4583333 -0.477796,-0.3353247 0.101358,-0.6589674 0.4375,-0.75 0.04873,-0.3285327 0.392234,-0.3746334 0.6875,-0.3333334 -0.06406,-0.1773073 -0.329656,-0.5545986 0.145834,-0.4791666 0.576952,-0.05632 0.367753,-0.6508997 0.395833,-1.0208337 0.236438,-0.360031 0.733364,-0.28398 1.104167,-0.291666 z m -2.958334,0.604166 c 0.301571,0.05503 0.795758,0.08492 0.875,0.458334 0.02052,0.500091 -0.68377,0.8380077 -1.083333,0.5416663 -0.492477,-0.1783466 -0.301979,-1.0558663 0.208333,-1.0000003 z m -2.75,0.458334 c 0.04906,2.14e-4 0.08494,0.0091 0.125,0.02083 0.373252,0.3606247 -0.215202,0.7177873 -0.541666,0.5416667 -0.422487,-0.292332 0.07324,-0.5639987 0.416666,-0.5624997 z M -11.125,9.4166667 c 0.07311,-0.012653 0.154779,-9.197e-4 0.229167,0 0.368302,0.1719436 0.259365,0.8125323 -0.125,0.8958333 -0.295184,0.479369 -0.78046,0.148786 -1.1875,0.104167 -0.375824,0.378476 -1.024824,0.441697 -1.354167,-0.0625 -0.208046,-0.5024493 0.50556,-0.8586999 0.916667,-0.6875003 0.525096,0.2063681 1.009073,-0.1614327 1.520833,-0.25 z m -1.75,1.5625003 c 0.115267,0.02925 0.194173,0.138626 0.229167,0.25 -0.07854,0.546375 -0.810064,-0.294012 -0.229167,-0.25 z m 0.895833,0 0.08333,0.02083 0.104166,0.02083 c 0.602471,-0.03622 0.354851,0.970889 -0.145833,0.895833 -0.421612,-0.08209 -0.560764,-0.917677 -0.04167,-0.9375 z"
       id="path3891"
       inkscape:connector-curvature="0" />
    <path
       style="color:#000000;fill:#bebebe;fill-opacity:1;fill-rule:nonzero;stroke:none;stroke-width:1.5;marker:none;visibility:visible;display:inline;overflow:visible;enable-background:accumulate"
       d="m -12,2 c -3.313709,0 -6,2.686291 -6,6 0,3.313709 2.686291,6 6,6 3.313709,0 6,-2.686291 6,-6 0,-3.313709 -2.686291,-6 -6,-6 z m 0,1.333333 c 2.577329,0 4.666667,2.089338 4.666667,4.666667 0,2.577329 -2.089338,4.666667 -4.666667,4.666667 -2.577329,0 -4.666667,-2.089338 -4.666667,-4.666667 0,-2.577329 2.089338,-4.666667 4.666667,-4.666667 z"
       id="path3098"
       inkscape:connector-curvature="0" />
    <path
       style="color:#000000;fill:#bebebe;fill-opacity:1;fill-rule:nonzero;stroke:none;stroke-width:1.5;marker:none;visibility:visible;display:inline;overflow:visible;enable-background:accumulate"
       d="m 38,2 c -3.313709,0 -6,2.686291 -6,6 0,3.313708 2.686291,6 6,6 3.313708,0 6,-2.686292 6,-6 0,-0.7731988 -0.171148,-1.5087754 -0.4375,-2.1875 0.0576,0.2814714 0.09375,0.5765013 0.09375,0.875 C 43.65625,9.0754894 41.70049,11 39.3125,11 36.92451,11 35,9.0754894 35,6.6875 c 0,-2.3879894 1.92451,-4.34375 4.3125,-4.34375 0.298499,0 0.593528,0.036153 0.875,0.09375 C 39.508775,2.1711481 38.773198,2 38,2 z"
       id="path3092"
       inkscape:connector-curvature="0" />
    <path
       style="color:#000000;fill:#bebebe;fill-opacity:1;fill-rule:nonzero;stroke:none;stroke-width:2;marker:none;visibility:visible;display:inline;overflow:visible;enable-background:accumulate"
       d="m 8,22 c -3.3137085,0 -6,2.686291 -6,6 0,3.313708 2.6862915,6 6,6 3.313708,0 6,-2.686292 6,-6 0,-3.313709 -2.686292,-6 -6,-6 z m 0,1.5 c 2.485281,0 4.5,2.014719 4.5,4.5 0,2.485281 -2.014719,4.5 -4.5,4.5 C 5.5147186,32.5 3.5,30.485281 3.5,28 3.5,25.514719 5.5147186,23.5 8,23.5 z M 6.5,25 C 6.2238576,25 6,25.223858 6,25.5 6,25.776142 6.2238576,26 6.5,26 6.7761424,26 7,25.776142 7,25.5 7,25.223858 6.7761424,25 6.5,25 z m 3.5,1 c -0.5522847,0 -1,0.447715 -1,1 0,0.552285 0.4477153,1 1,1 0.552285,0 1,-0.447715 1,-1 0,-0.552285 -0.447715,-1 -1,-1 z M 6.5,28 C 5.6715729,28 5,28.671573 5,29.5 5,30.328427 5.6715729,31 6.5,31 7.3284271,31 8,30.328427 8,29.5 8,28.671573 7.3284271,28 6.5,28 z"
       id="path3863"
       inkscape:connector-curvature="0" />
    <path
       style="font-size:medium;font-style:normal;font-variant:normal;font-weight:normal;font-stretch:normal;text-indent:0;text-align:start;text-decoration:none;line-height:normal;letter-spacing:normal;word-spacing:normal;text-transform:none;direction:ltr;block-progression:tb;writing-mode:lr-tb;text-anchor:start;baseline-shift:baseline;color:#000000;fill:#bebebe;fill-opacity:1;stroke:none;stroke-width:1.50000000000000000;marker:none;visibility:visible;display:inline;overflow:visible;enable-background:accumulate;font-family:Sans;-inkscape-font-specification:Sans"
       d="M 7.96875,2 C 4.6800742,2.0195351 2,4.7071798 2,8 c 0,3.304825 2.6951749,6 6,6 2.604032,0 4.830608,-1.674255 5.65625,-4 l 0.5,-1.46875 -1.46875,0.5 C 12.29519,9.1643758 11.911392,9.25 11.5,9.25 9.4200488,9.25 7.75,7.5799513 7.75,5.5 7.75,4.6443455 8.0623457,3.8637624 8.5625,3.21875 L 9.5,2 7.96875,2 z M 6.5625,3.8125 C 6.3724566,4.3446346 6.25,4.9006198 6.25,5.5 c 0,2.8243327 2.2629088,5.113973 5.0625,5.21875 C 10.491747,11.726914 9.4068215,12.5 8,12.5 5.5058351,12.5 3.5,10.494165 3.5,8 3.5,6.0150917 4.7864763,4.4140218 6.5625,3.8125 z"
       id="path3085"
       inkscape:connector-curvature="0" />
  </g>
</svg>
