<?xml version="1.0" encoding="UTF-8" standalone="no"?>
<!-- Created with Inkscape (http://www.inkscape.org/) -->

<svg
   xmlns:dc="http://purl.org/dc/elements/1.1/"
   xmlns:cc="http://creativecommons.org/ns#"
   xmlns:rdf="http://www.w3.org/1999/02/22-rdf-syntax-ns#"
   xmlns:svg="http://www.w3.org/2000/svg"
   xmlns="http://www.w3.org/2000/svg"
   xmlns:sodipodi="http://sodipodi.sourceforge.net/DTD/sodipodi-0.dtd"
   xmlns:inkscape="http://www.inkscape.org/namespaces/inkscape"
   width="16"
   height="16"
   id="svg2"
   sodipodi:version="0.32"
   inkscape:version="0.91 r13725"
   version="1.0"
   sodipodi:docname="weather-clouds-night-symbolic.svg"
   inkscape:output_extension="org.inkscape.output.svg.inkscape">
  <defs
     id="defs4" />
  <sodipodi:namedview
     id="base"
     pagecolor="#ffffff"
     bordercolor="#e7e7e7"
     borderopacity="1"
     inkscape:pageopacity="0.0"
     inkscape:pageshadow="2"
     inkscape:zoom="17.126463"
     inkscape:cx="26.696856"
     inkscape:cy="2.6543236"
     inkscape:document-units="px"
     inkscape:current-layer="layer1"
     showgrid="true"
     inkscape:showpageshadow="false"
     showguides="true"
     inkscape:guide-bbox="true"
     inkscape:window-width="1920"
     inkscape:window-height="1029"
     inkscape:window-x="0"
     inkscape:window-y="24"
     inkscape:window-maximized="1"
     inkscape:snap-global="true">
    <sodipodi:guide
       orientation="1,0"
       position="0,112"
       id="guide2383" />
    <sodipodi:guide
       orientation="0,1"
       position="78.156291,0"
       id="guide2389" />
    <inkscape:grid
       type="xygrid"
       id="grid3672"
       visible="true"
       enabled="true" />
    <sodipodi:guide
       orientation="1,0"
       position="22.008699,4.1542523"
       id="guide2950" />
    <sodipodi:guide
       orientation="0,1"
       position="20,-8"
       id="guide2952" />
  </sodipodi:namedview>
  <metadata
     id="metadata7">
    <rdf:RDF>
      <cc:Work
         rdf:about="">
        <dc:format>image/svg+xml</dc:format>
        <dc:type
           rdf:resource="http://purl.org/dc/dcmitype/StillImage" />
        <dc:title />
      </cc:Work>
    </rdf:RDF>
  </metadata>
  <g
     inkscape:label="Calque 1"
     inkscape:groupmode="layer"
     id="layer1">
    <path
       style="color:#000000;fill:#bebebe;fill-opacity:1;fill-rule:nonzero;stroke:none;stroke-width:2;marker:none;visibility:visible;display:inline;overflow:visible;enable-background:accumulate"
       d="M 8.5,7 C 6.164201,7 4.253781,8.785153 4.03125,11.0625 2.877066,11.283877 2,12.281256 2,13.5 2,14.880712 3.119288,16 4.5,16 l 4,0 4,0 C 14.432997,16 16,14.432997 16,12.5 16,10.567003 14.432997,9 12.5,9 12.41568,9 12.332827,9.025386 12.25,9.03125 11.446562,7.802689 10.077518,7 8.5,7 z"
       id="path3110"
       inkscape:connector-curvature="0" />
    <path
       style="font-size:medium;font-style:normal;font-variant:normal;font-weight:normal;font-stretch:normal;text-indent:0;text-align:start;text-decoration:none;line-height:normal;letter-spacing:normal;word-spacing:normal;text-transform:none;direction:ltr;block-progression:tb;writing-mode:lr-tb;text-anchor:start;baseline-shift:baseline;color:#000000;fill:#bebebe;fill-opacity:1;stroke:none;stroke-width:1.5;marker:none;visibility:visible;display:inline;overflow:visible;enable-background:accumulate;font-family:Sans;-inkscape-font-specification:Sans"
       d="M 7.96875 2 C 4.6800742 2.0195351 2 4.7071798 2 8 C 2 8.9914475 2.2274277 9.9245987 2.65625 10.75 C 2.8281384 10.644205 3.0007752 10.550527 3.1875 10.46875 C 3.2822718 9.9896735 3.4493497 9.5535047 3.65625 9.125 C 3.5628783 8.7627109 3.5 8.3923671 3.5 8 C 3.5 6.0150917 4.7864763 4.4140218 6.5625 3.8125 C 6.3724566 4.3446346 6.25 4.9006198 6.25 5.5 C 6.25 5.831316 6.2842564 6.1548138 6.34375 6.46875 C 6.8028053 6.2626063 7.2943651 6.1303211 7.8125 6.0625 C 7.7840541 5.8753403 7.75 5.6954437 7.75 5.5 C 7.75 4.6443455 8.0623457 3.8637624 8.5625 3.21875 L 9.5 2 L 7.96875 2 z "
       id="path3085" />
  </g>
</svg>
