<?xml version="1.0" encoding="UTF-8" standalone="no"?>
<!-- Created with Inkscape (http://www.inkscape.org/) -->

<svg
   xmlns:dc="http://purl.org/dc/elements/1.1/"
   xmlns:cc="http://creativecommons.org/ns#"
   xmlns:rdf="http://www.w3.org/1999/02/22-rdf-syntax-ns#"
   xmlns:svg="http://www.w3.org/2000/svg"
   xmlns="http://www.w3.org/2000/svg"
   xmlns:sodipodi="http://sodipodi.sourceforge.net/DTD/sodipodi-0.dtd"
   xmlns:inkscape="http://www.inkscape.org/namespaces/inkscape"
   width="16"
   height="16"
   id="svg2"
   sodipodi:version="0.32"
   inkscape:version="0.91 r13725"
   version="1.0"
   sodipodi:docname="weather-fog-symbolic.svg"
   inkscape:output_extension="org.inkscape.output.svg.inkscape">
  <defs
     id="defs4" />
  <sodipodi:namedview
     id="base"
     pagecolor="#ffffff"
     bordercolor="#e7e7e7"
     borderopacity="1"
     inkscape:pageopacity="0.0"
     inkscape:pageshadow="2"
     inkscape:zoom="14.490211"
     inkscape:cx="0.56852789"
     inkscape:cy="-0.97764222"
     inkscape:document-units="px"
     inkscape:current-layer="layer1"
     showgrid="true"
     inkscape:showpageshadow="false"
     showguides="true"
     inkscape:guide-bbox="true"
     inkscape:window-width="1920"
     inkscape:window-height="1028"
     inkscape:window-x="0"
     inkscape:window-y="24"
     inkscape:window-maximized="1"
     inkscape:snap-global="true">
    <sodipodi:guide
       orientation="1,0"
       position="0,112"
       id="guide2383" />
    <sodipodi:guide
       orientation="0,1"
       position="78.156291,0"
       id="guide2389" />
    <inkscape:grid
       type="xygrid"
       id="grid3672"
       visible="true"
       enabled="true" />
    <sodipodi:guide
       orientation="1,0"
       position="22.008699,4.1542523"
       id="guide2950" />
    <sodipodi:guide
       orientation="0,1"
       position="11.22532,22.008699"
       id="guide2952" />
  </sodipodi:namedview>
  <metadata
     id="metadata7">
    <rdf:RDF>
      <cc:Work
         rdf:about="">
        <dc:format>image/svg+xml</dc:format>
        <dc:type
           rdf:resource="http://purl.org/dc/dcmitype/StillImage" />
        <dc:title />
      </cc:Work>
    </rdf:RDF>
  </metadata>
  <g
     inkscape:label="Calque 1"
     inkscape:groupmode="layer"
     id="layer1">
    <path
       id="path3798"
       d="M 7.5,19 C 6.0502525,19 4.8125789,19.868797 4.28125,21.125 4.033772,21.042976 3.7749966,21 3.5,21 2.1192881,21 1,22.119288 1,23.5 1,24.880712 2.1192881,26 3.5,26 l 4,0 5.5,0 c 1.104569,0 2,-0.895431 2,-2 0,-1.104569 -0.895431,-2 -2,-2 l -0.09375,0 C 12.959892,21.845681 13,21.672589 13,21.5 13,20.671573 12.328427,20 11.5,20 11.054111,20 10.649751,20.191152 10.375,20.5 9.7429986,19.589757 8.6920859,19 7.5,19 z"
       style="color:#000000;fill:#ff0000;fill-opacity:1;fill-rule:nonzero;stroke:none;stroke-width:1;marker:none;visibility:visible;display:inline;overflow:visible;enable-background:accumulate" />
    <path
       sodipodi:nodetypes="ccsccscsscc"
       id="path3863"
       d="m -13,-18 c -1.876884,0 -3.443707,1.287639 -3.875,3.03125 -1.20095,0.18255 -2.125,1.216816 -2.125,2.46875 0,1.380712 1.119288,2.5 2.5,2.5 l 9,0 c 1.380712,0 2.5,-1.119288 2.5,-2.5 0,-1.208123 -0.860792,-2.204384 -2,-2.4375 6.5e-4,-0.02096 0,-0.04138 0,-0.0625 0,-1.104569 -0.895431,-2 -2,-2 -0.379916,0 -0.728742,0.128564 -1.03125,0.3125 C -10.763238,-17.497359 -11.822389,-18 -13,-18 z"
       style="color:#000000;fill:#6e6e6e;fill-opacity:1;fill-rule:nonzero;stroke:none;stroke-width:1;marker:none;visibility:visible;display:inline;overflow:visible;enable-background:accumulate"
       inkscape:connector-curvature="0" />
    <path
       inkscape:connector-curvature="0"
       style="font-size:medium;font-style:normal;font-variant:normal;font-weight:normal;font-stretch:normal;text-indent:0;text-align:start;text-decoration:none;line-height:normal;letter-spacing:normal;word-spacing:normal;text-transform:none;direction:ltr;block-progression:tb;writing-mode:lr-tb;text-anchor:start;color:#000000;fill:#bebebe;fill-opacity:1;stroke:none;stroke-width:1.5;marker:none;visibility:visible;display:inline;overflow:visible;enable-background:accumulate;font-family:Abandoned Bitplane;-inkscape-font-specification:Abandoned Bitplane"
       d="m 57.707462,7.220267 c -3.484844,2.0649336 -5.544695,0.07251 -5.544695,0.07251 -0.268614,-0.3713631 -0.79862,-0.3309797 -1.031734,0.078611 -0.233115,0.409591 -0.105903,1.0769334 0.247636,1.2990797 0,0 3.075122,2.3817813 7.087555,-0.24115 1.830658,-1.1967033 4.364742,-1.7266232 6.409889,0.059647 -1.457298,-3.1678993 -5.088188,-2.50147 -7.168651,-1.2686978 z"
       id="path3090"
       sodipodi:nodetypes="scscscs" />
    <path
       sodipodi:nodetypes="scscscs"
       id="path3092"
       d="m 58.181571,4.63728 c 3.484844,-2.0649339 5.544695,-0.07251 5.544695,-0.07251 0.268614,0.371363 0.79862,0.330979 1.031734,-0.07861 0.233114,-0.409591 0.105903,-1.076934 -0.247636,-1.29908 0,0 -3.075123,-2.381781 -7.087555,0.24115 -1.830658,1.196703 -4.364742,1.726623 -6.409889,-0.05965 1.457298,3.167899 5.088187,2.50147 7.168651,1.268698 z"
       style="font-size:medium;font-style:normal;font-variant:normal;font-weight:normal;font-stretch:normal;text-indent:0;text-align:start;text-decoration:none;line-height:normal;letter-spacing:normal;word-spacing:normal;text-transform:none;direction:ltr;block-progression:tb;writing-mode:lr-tb;text-anchor:start;color:#000000;fill:#bebebe;fill-opacity:1;stroke:none;stroke-width:1.5;marker:none;visibility:visible;display:inline;overflow:visible;enable-background:accumulate;font-family:Abandoned Bitplane;-inkscape-font-specification:Abandoned Bitplane"
       inkscape:connector-curvature="0" />
    <path
       inkscape:connector-curvature="0"
       style="font-size:medium;font-style:normal;font-variant:normal;font-weight:normal;font-stretch:normal;text-indent:0;text-align:start;text-decoration:none;line-height:normal;letter-spacing:normal;word-spacing:normal;text-transform:none;direction:ltr;block-progression:tb;writing-mode:lr-tb;text-anchor:start;color:#000000;fill:#bebebe;fill-opacity:1;stroke:none;stroke-width:1.5;marker:none;visibility:visible;display:inline;overflow:visible;enable-background:accumulate;font-family:Abandoned Bitplane;-inkscape-font-specification:Abandoned Bitplane"
       d="m 58.181571,12.63728 c 3.484844,-2.064934 5.544695,-0.07251 5.544695,-0.07251 0.268614,0.371363 0.79862,0.330979 1.031734,-0.07861 0.233114,-0.409591 0.105903,-1.076934 -0.247636,-1.29908 0,0 -3.075123,-2.381781 -7.087555,0.24115 -1.830658,1.196703 -4.364742,1.726623 -6.409889,-0.05965 1.457298,3.167899 5.088187,2.50147 7.168651,1.268698 z"
       id="path3094"
       sodipodi:nodetypes="scscscs" />
    <rect
       style="color:#000000;fill:#bebebe;fill-opacity:1;fill-rule:nonzero;stroke:none;stroke-width:2;marker:none;visibility:visible;display:inline;overflow:visible;enable-background:accumulate"
       id="rect3858"
       width="7"
       height="2"
       x="5"
       y="-17"
       rx="0.5" />
    <rect
       y="5"
       x="-45"
       height="1"
       width="8"
       id="rect3091"
       style="color:#000000;fill:#bebebe;fill-opacity:1;fill-rule:nonzero;stroke:none;stroke-width:2;marker:none;visibility:visible;display:inline;overflow:visible;enable-background:accumulate" />
    <rect
       style="color:#000000;fill:#bebebe;fill-opacity:1;fill-rule:nonzero;stroke:none;stroke-width:2;marker:none;visibility:visible;display:inline;overflow:visible;enable-background:accumulate"
       id="rect3093"
       width="7"
       height="1"
       x="-50"
       y="7" />
    <rect
       y="7"
       x="-42"
       height="1"
       width="8"
       id="rect3095"
       style="color:#000000;fill:#bebebe;fill-opacity:1;fill-rule:nonzero;stroke:none;stroke-width:2;marker:none;visibility:visible;display:inline;overflow:visible;enable-background:accumulate" />
    <rect
       style="color:#000000;fill:#bebebe;fill-opacity:1;fill-rule:nonzero;stroke:none;stroke-width:2;marker:none;visibility:visible;display:inline;overflow:visible;enable-background:accumulate"
       id="rect3097"
       width="9"
       height="1"
       x="-47"
       y="9" />
    <rect
       y="11"
       x="-44"
       height="1"
       width="8"
       id="rect3099"
       style="color:#000000;fill:#bebebe;fill-opacity:1;fill-rule:nonzero;stroke:none;stroke-width:2;marker:none;visibility:visible;display:inline;overflow:visible;enable-background:accumulate" />
    <rect
       rx="0.5"
       y="-14"
       x="0"
       height="2"
       width="7"
       id="rect3101"
       style="color:#000000;fill:#bebebe;fill-opacity:1;fill-rule:nonzero;stroke:none;stroke-width:2;marker:none;visibility:visible;display:inline;overflow:visible;enable-background:accumulate" />
    <rect
       style="color:#000000;fill:#bebebe;fill-opacity:1;fill-rule:nonzero;stroke:none;stroke-width:2;marker:none;visibility:visible;display:inline;overflow:visible;enable-background:accumulate"
       id="rect3103"
       width="6.9999995"
       height="2"
       x="9"
       y="-14"
       rx="0.5" />
    <rect
       rx="0.5"
       y="-11"
       x="3"
       height="2"
       width="8"
       id="rect3105"
       style="color:#000000;fill:#bebebe;fill-opacity:1;fill-rule:nonzero;stroke:none;stroke-width:2;marker:none;visibility:visible;display:inline;overflow:visible;enable-background:accumulate" />
    <rect
       style="color:#000000;fill:#bebebe;fill-opacity:1;fill-rule:nonzero;stroke:none;stroke-width:2;marker:none;visibility:visible;display:inline;overflow:visible;enable-background:accumulate"
       id="rect3107"
       width="7"
       height="2"
       x="7"
       y="-8"
       rx="0.5" />
    <path
       style="fill:#bebebe;fill-opacity:1;stroke:none"
       d="m -21,5 3,-3 3,3 3,-3 3,3 3,-3 3,3 0,2 -3,-3 -3,3 -3,-3 -3,3 -3,-3 -3,3 z"
       id="path3109"
       inkscape:connector-curvature="0"
       sodipodi:nodetypes="ccccccccccccccc" />
    <path
       sodipodi:nodetypes="ccccccccccccccc"
       inkscape:connector-curvature="0"
       id="path3111"
       d="m -21,9 3,-3 3,3 3,-3 3,3 3,-3 3,3 0,2 -3,-3 -3,3 -3,-3 -3,3 -3,-3 -3,3 z"
       style="fill:#bebebe;fill-opacity:1;stroke:none" />
    <path
       style="fill:#bebebe;fill-opacity:1;stroke:none"
       d="m -21,13 3,-3 3,3 3,-3 3,3 3,-3 3,3 0,2 -3,-3 -3,3 -3,-3 -3,3 -3,-3 -3,3 z"
       id="path3113"
       inkscape:connector-curvature="0"
       sodipodi:nodetypes="ccccccccccccccc" />
    <path
       style="fill:#bebebe;fill-opacity:1;stroke:none"
       d="m 22,2 -2,2 0,2 2,-2 2,2 2,-2 2,2 2,-2 2,2 2,-2 2,2 L 36,4 34,2 32,4 30,2 28,4 26,2 24,4 22,2 z"
       id="path3883"
       inkscape:connector-curvature="0" />
    <path
       id="path3894"
       d="m 22,6 -2,2 0,2 2,-2 2,2 2,-2 2,2 2,-2 2,2 2,-2 2,2 L 36,8 34,6 32,8 30,6 28,8 26,6 24,8 22,6 z"
       style="fill:#bebebe;fill-opacity:1;stroke:none"
       inkscape:connector-curvature="0" />
    <path
       inkscape:connector-curvature="0"
       style="fill:#bebebe;fill-opacity:1;stroke:none"
       d="m 22,10 -2,2 0,2 2,-2 2,2 2,-2 2,2 2,-2 2,2 2,-2 2,2 0,-2 -2,-2 -2,2 -2,-2 -2,2 -2,-2 -2,2 -2,-2 z"
       id="path3896" />
    <rect
       style="color:#000000;fill:#bebebe;fill-opacity:1;fill-rule:nonzero;stroke:none;stroke-width:2;marker:none;visibility:visible;display:inline;overflow:visible;enable-background:accumulate"
       id="rect3904"
       width="11.999991"
       height="1.9999987"
       x="4"
       y="5"
       rx="0.5" />
    <rect
       rx="0.5"
       y="8"
       x="0"
       height="2"
       width="13"
       id="rect3906"
       style="color:#000000;fill:#bebebe;fill-opacity:1;fill-rule:nonzero;stroke:none;stroke-width:2;marker:none;visibility:visible;display:inline;overflow:visible;enable-background:accumulate" />
    <rect
       style="color:#000000;fill:#bebebe;fill-opacity:1;fill-rule:nonzero;stroke:none;stroke-width:2;marker:none;visibility:visible;display:inline;overflow:visible;enable-background:accumulate"
       id="rect3908"
       width="12.999995"
       height="1.9999971"
       x="2"
       y="11"
       rx="0.5" />
  </g>
</svg>
