<?xml version="1.0" encoding="UTF-8" standalone="no"?>
<!-- Created with Inkscape (http://www.inkscape.org/) -->

<svg
   xmlns:dc="http://purl.org/dc/elements/1.1/"
   xmlns:cc="http://creativecommons.org/ns#"
   xmlns:rdf="http://www.w3.org/1999/02/22-rdf-syntax-ns#"
   xmlns:svg="http://www.w3.org/2000/svg"
   xmlns="http://www.w3.org/2000/svg"
   xmlns:sodipodi="http://sodipodi.sourceforge.net/DTD/sodipodi-0.dtd"
   xmlns:inkscape="http://www.inkscape.org/namespaces/inkscape"
   sodipodi:docname="indicator-messages-new.svg"
   height="22"
   id="svg6530"
   version="1.1"
   inkscape:version="0.91 r13725"
   viewBox="0 0 22 22"
   width="22">
  <defs
     id="defs6532" />
  <sodipodi:namedview
     inkscape:bbox-nodes="true"
     bordercolor="#666666"
     borderopacity="1.0"
     inkscape:current-layer="layer1"
     inkscape:cx="-32.436356"
     inkscape:cy="3.1850284"
     inkscape:document-units="px"
     id="base"
     inkscape:object-nodes="true"
     inkscape:object-paths="true"
     pagecolor="#dddddd"
     inkscape:pageopacity="0"
     inkscape:pageshadow="2"
     showgrid="false"
     inkscape:snap-bbox="true"
     inkscape:snap-bbox-edge-midpoints="true"
     inkscape:snap-bbox-midpoints="true"
     inkscape:snap-smooth-nodes="true"
     units="px"
     inkscape:window-height="709"
     inkscape:window-maximized="1"
     inkscape:window-width="1366"
     inkscape:window-x="0"
     inkscape:window-y="29"
     inkscape:zoom="5.6568542">
    <inkscape:grid
       empspacing="4"
       id="grid8845"
       originx="-56.000227"
       originy="-192.00162"
       type="xygrid" />
  </sodipodi:namedview>
  <metadata
     id="metadata6535">
    <rdf:RDF>
      <cc:Work
         rdf:about="">
        <dc:format>image/svg+xml</dc:format>
        <dc:type
           rdf:resource="http://purl.org/dc/dcmitype/StillImage" />
        <dc:title></dc:title>
      </cc:Work>
    </rdf:RDF>
  </metadata>
  <g
     inkscape:groupmode="layer"
     id="layer1"
     inkscape:label="panel"
     transform="translate(-56.000227,-838.36054)">
    <path
       inkscape:connector-curvature="0"
       d="m 67.000507,841.36355 c 0.55228,0 1,0.44772 1,1 -2.9e-4,0.0333 -0.002,0.0665 -0.006,0.0996 2.29032,0.45883 4.00603,2.47123 4.00586,4.90039 l -1.4e-4,1.99999 0,2.5 2,2 0,0.5 -2,0 -10,0 -2,0 0,-0.5 2,-2 1.4e-4,-4.49999 c 8e-5,-2.42916 1.71568,-4.44157 4.00586,-4.90039 -0.004,-0.0331 -0.006,-0.0663 -0.006,-0.0996 0,-0.55228 0.44772,-1 1,-1 z m 1.72838,13.99999 c -0.35663,0.61771 -1.01525,0.99874 -1.72852,1 -0.71397,-5.6e-4 -1.37349,-0.38169 -1.73047,-1 z"
       id="path10987"
       sodipodi:nodetypes="sccscccccccccscssscccc"
       style="opacity:1;fill:#5294e2;fill-opacity:1;stroke:none;stroke-width:3;stroke-linecap:round;stroke-miterlimit:4;stroke-dasharray:none;stroke-opacity:1" />
  </g>
</svg>
