<?xml version="1.0" encoding="UTF-8" standalone="no"?>
<!-- Created with Inkscape (http://www.inkscape.org/) -->

<svg
   xmlns:dc="http://purl.org/dc/elements/1.1/"
   xmlns:cc="http://creativecommons.org/ns#"
   xmlns:rdf="http://www.w3.org/1999/02/22-rdf-syntax-ns#"
   xmlns:svg="http://www.w3.org/2000/svg"
   xmlns="http://www.w3.org/2000/svg"
   xmlns:sodipodi="http://sodipodi.sourceforge.net/DTD/sodipodi-0.dtd"
   xmlns:inkscape="http://www.inkscape.org/namespaces/inkscape"
   width="22"
   height="22"
   viewBox="0 0 22 22"
   id="svg4149"
   version="1.1"
   inkscape:version="0.91 r13725"
   sodipodi:docname="network-error.svg">
  <defs
     id="defs4151" />
  <sodipodi:namedview
     id="base"
     pagecolor="#ffffff"
     bordercolor="#666666"
     borderopacity="1.0"
     inkscape:pageopacity="0.0"
     inkscape:pageshadow="2"
     inkscape:zoom="16"
     inkscape:cx="2.6108722"
     inkscape:cy="3.7235012"
     inkscape:document-units="px"
     inkscape:current-layer="layer1"
     showgrid="true"
     units="px"
     inkscape:snap-bbox="true"
     inkscape:object-paths="false"
     inkscape:object-nodes="true">
    <inkscape:grid
       type="xygrid"
       id="grid4697" />
  </sodipodi:namedview>
  <metadata
     id="metadata4154">
    <rdf:RDF>
      <cc:Work
         rdf:about="">
        <dc:format>image/svg+xml</dc:format>
        <dc:type
           rdf:resource="http://purl.org/dc/dcmitype/StillImage" />
        <dc:title></dc:title>
      </cc:Work>
    </rdf:RDF>
  </metadata>
  <g
     inkscape:label="Ebene 1"
     inkscape:groupmode="layer"
     id="layer1"
     transform="translate(0,-1030.3622)">
    <path
       style="opacity:1;fill:#ececec;fill-opacity:1;stroke:none;stroke-width:2;stroke-linecap:butt;stroke-linejoin:round;stroke-miterlimit:4;stroke-dasharray:none;stroke-dashoffset:0;stroke-opacity:1"
       d="m 6,1035.3622 c -1.108,0 -2,0.892 -2,2 l 0,7 c 0,1.108 0.892,2 2,2 l 1,0 1,1 3.263672,0 a 4.5,4.5 0 0 1 -0.263672,-1.5 4.5,4.5 0 0 1 0.03125,-0.5 l -2.03125,0 -1,-1 -2,0 0,-7 10,0 0,4.0313 a 4.5,4.5 0 0 1 2,0.7285 l 0,-4.7598 c 0,-1.108 -0.892,-2 -2,-2 l -10,0 z"
       id="rect4699"
       inkscape:connector-curvature="0" />
    <path
       class="error"
       inkscape:connector-curvature="0"
       d="m 15.5,1042.3622 c -1.93299,0 -3.5,1.567 -3.5,3.5 0,1.933 1.56701,3.5 3.5,3.5 1.93299,0 3.5,-1.567 3.5,-3.5 0,-1.933 -1.56701,-3.5 -3.5,-3.5 z m -2.5,2.9688 5,0 0,1.0312 -5,0 0,-1.0312 z"
       id="path16215"
       style="color:#bebebe;display:inline;overflow:visible;visibility:visible;fill:#ef2929;fill-opacity:1;fill-rule:nonzero;stroke:none;stroke-width:1.90939796;marker:none;enable-background:accumulate" />
  </g>
</svg>
