<?xml version="1.0" encoding="UTF-8" standalone="no"?>
<!-- Created with Inkscape (http://www.inkscape.org/) -->

<svg
   xmlns:dc="http://purl.org/dc/elements/1.1/"
   xmlns:cc="http://creativecommons.org/ns#"
   xmlns:rdf="http://www.w3.org/1999/02/22-rdf-syntax-ns#"
   xmlns:svg="http://www.w3.org/2000/svg"
   xmlns="http://www.w3.org/2000/svg"
   xmlns:sodipodi="http://sodipodi.sourceforge.net/DTD/sodipodi-0.dtd"
   xmlns:inkscape="http://www.inkscape.org/namespaces/inkscape"
   width="22"
   height="22"
   viewBox="0 0 22 22"
   id="svg4149"
   version="1.1"
   inkscape:version="0.91 r13725"
   sodipodi:docname="network-wired-offline.svg">
  <defs
     id="defs4151" />
  <sodipodi:namedview
     id="base"
     pagecolor="#ffffff"
     bordercolor="#666666"
     borderopacity="1.0"
     inkscape:pageopacity="0.0"
     inkscape:pageshadow="2"
     inkscape:zoom="22.627417"
     inkscape:cx="2.6758451"
     inkscape:cy="6.5611204"
     inkscape:document-units="px"
     inkscape:current-layer="layer1"
     showgrid="true"
     units="px"
     inkscape:snap-bbox="true"
     inkscape:object-paths="false"
     inkscape:object-nodes="true"
     inkscape:snap-bbox-midpoints="true">
    <inkscape:grid
       type="xygrid"
       id="grid4697" />
  </sodipodi:namedview>
  <metadata
     id="metadata4154">
    <rdf:RDF>
      <cc:Work
         rdf:about="">
        <dc:format>image/svg+xml</dc:format>
        <dc:type
           rdf:resource="http://purl.org/dc/dcmitype/StillImage" />
        <dc:title></dc:title>
      </cc:Work>
    </rdf:RDF>
  </metadata>
  <g
     inkscape:label="Ebene 1"
     inkscape:groupmode="layer"
     id="layer1"
     transform="translate(0,-1030.3622)">
    <path
       style="opacity:0.35;fill:#ececec;fill-opacity:1;stroke:none;stroke-width:2;stroke-linecap:butt;stroke-linejoin:round;stroke-miterlimit:4;stroke-dasharray:none;stroke-dashoffset:0;stroke-opacity:1"
       d="m 6,1035.3622 c -1.108,0 -2,0.892 -2,2 l 0,7 c 0,1.108 0.892,2 2,2 l 1,0 1,1 5,0 0,-2 -4,0 -1,-1 -2,0 0,-7 10,0 0,6 2,0 0,-6 c 0,-1.108 -0.892,-2 -2,-2 l -10,0 z"
       id="rect4699"
       inkscape:connector-curvature="0" />
    <path
       inkscape:connector-curvature="0"
       d="m 14,1044.3622 0,1 c 0,0.2761 0.10029,0.5378 0.28125,0.7188 l 0.78125,0.7812 -0.78125,0.7813 C 14.10029,1047.8244 14,1048.0861 14,1048.3622 l 0,1 1,0 c 0.27614,0 0.53779,-0.1003 0.71875,-0.2812 l 0.78125,-0.7813 0.78125,0.7813 c 0.18096,0.1809 0.44261,0.2812 0.71875,0.2812 l 1,0 0,-1 c 0,-0.2761 -0.10029,-0.5378 -0.28125,-0.7187 l -0.78125,-0.7813 0.78125,-0.7812 C 18.89971,1045.9 19,1045.6383 19,1045.3622 l 0,-1 -1,0 c -0.27614,0 -0.53779,0.1003 -0.71875,0.2813 l -0.78125,0.7812 -0.78125,-0.7812 c -0.18096,-0.181 -0.44261,-0.2813 -0.71875,-0.2813 l -1,0 z"
       id="path5898-0"
       style="display:inline;fill:#ececec;fill-opacity:1;stroke:none;enable-background:new" />
  </g>
</svg>
