<?xml version="1.0" encoding="UTF-8" standalone="no"?>
<!-- Created with Inkscape (http://www.inkscape.org/) -->

<svg
   xmlns:dc="http://purl.org/dc/elements/1.1/"
   xmlns:cc="http://creativecommons.org/ns#"
   xmlns:rdf="http://www.w3.org/1999/02/22-rdf-syntax-ns#"
   xmlns:svg="http://www.w3.org/2000/svg"
   xmlns="http://www.w3.org/2000/svg"
   xmlns:sodipodi="http://sodipodi.sourceforge.net/DTD/sodipodi-0.dtd"
   xmlns:inkscape="http://www.inkscape.org/namespaces/inkscape"
   width="16px"
   height="16px"
   id="svg3173"
   version="1.1"
   inkscape:version="0.91 r13725"
   sodipodi:docname="brightness-display-symbolic.svg">
  <defs
     id="defs3175" />
  <sodipodi:namedview
     id="base"
     pagecolor="#ffffff"
     bordercolor="#666666"
     borderopacity="1.0"
     inkscape:pageopacity="0.0"
     inkscape:pageshadow="2"
     inkscape:zoom="11.098901"
     inkscape:cx="8"
     inkscape:cy="8"
     inkscape:current-layer="layer1"
     showgrid="true"
     inkscape:grid-bbox="true"
     inkscape:document-units="px"
     inkscape:window-width="591"
     inkscape:window-height="430"
     inkscape:window-x="0"
     inkscape:window-y="46"
     inkscape:window-maximized="0" />
  <metadata
     id="metadata3178">
    <rdf:RDF>
      <cc:Work
         rdf:about="">
        <dc:format>image/svg+xml</dc:format>
        <dc:type
           rdf:resource="http://purl.org/dc/dcmitype/StillImage" />
        <dc:title />
      </cc:Work>
    </rdf:RDF>
  </metadata>
  <g
     id="layer1"
     inkscape:label="Layer 1"
     inkscape:groupmode="layer">
    <path
       inkscape:connector-curvature="0"
       style="color:#000000;fill:#bebebe;fill-opacity:1;fill-rule:nonzero;stroke:none;stroke-width:1;marker:none;visibility:visible;display:inline;overflow:visible;enable-background:new"
       d="M 7.75,2 C 7.6115,2 7.5,2.1115 7.5,2.25 l 0,1.5 C 7.5,3.8885 7.6115,4 7.75,4 l 0.5,0 C 8.3885,4 8.5,3.8885 8.5,3.75 l 0,-1.5 C 8.5,2.1115 8.3885,2 8.25,2 L 7.75,2 z M 4.125,3.5 C 4.061095,3.5 3.9864671,3.544783 3.9375,3.59375 L 3.59375,3.9375 c -0.097934,0.097934 -0.097934,0.2458157 0,0.34375 l 1.0625,1.0625 C 4.754184,5.441684 4.9020657,5.441684 5,5.34375 L 5.34375,5 c 0.097934,-0.097934 0.097934,-0.2458157 0,-0.34375 L 4.28125,3.59375 C 4.2322829,3.5447829 4.1889048,3.5 4.125,3.5 z m 7.75,0 c -0.06391,0 -0.107283,0.044783 -0.15625,0.09375 l -1.0625,1.0625 c -0.09793,0.097934 -0.09793,0.2458157 0,0.34375 L 11,5.34375 c 0.09793,0.097934 0.245816,0.097934 0.34375,0 l 1.0625,-1.0625 c 0.09793,-0.097934 0.09793,-0.2458157 0,-0.34375 L 12.0625,3.59375 C 12.013533,3.5447829 11.938905,3.5 11.875,3.5 z M 8,5 C 6.3431457,5 5,6.3431457 5,8 5,9.6568543 6.3431457,11 8,11 9.6568543,11 11,9.6568543 11,8 11,6.3431457 9.6568543,5 8,5 z m 0,1 c 1.1045695,0 2,0.8954305 2,2 0,1.1045695 -0.8954305,2 -2,2 C 6.8954305,10 6,9.1045695 6,8 6,6.8954305 6.8954305,6 8,6 z M 2.25,7.5 C 2.1115,7.5 2,7.6115 2,7.75 l 0,0.5 C 2,8.3885 2.1115,8.5 2.25,8.5 l 1.5,0 C 3.8885,8.5 4,8.3885 4,8.25 L 4,7.75 C 4,7.6115 3.8885,7.5 3.75,7.5 l -1.5,0 z m 10,0 C 12.1115,7.5 12,7.6115 12,7.75 l 0,0.5 c 0,0.1385 0.1115,0.25 0.25,0.25 l 1.5,0 C 13.8885,8.5 14,8.3885 14,8.25 l 0,-0.5 C 14,7.6115 13.8885,7.5 13.75,7.5 l -1.5,0 z m -7.4375,3.09375 c -0.063905,0 -0.1072829,0.01353 -0.15625,0.0625 l -1.0625,1.0625 c -0.097934,0.09793 -0.097934,0.245816 0,0.34375 l 0.34375,0.34375 c 0.097934,0.09793 0.2458157,0.09793 0.34375,0 l 1.0625,-1.0625 C 5.441684,11.24582 5.441684,11.097934 5.34375,11 L 5,10.65625 C 4.951033,10.60728 4.8764048,10.59375 4.8125,10.59375 z m 6.375,0 c -0.06391,0 -0.138533,0.01353 -0.1875,0.0625 L 10.65625,11 c -0.09793,0.09793 -0.09793,0.245816 0,0.34375 l 1.0625,1.0625 c 0.09793,0.09793 0.245816,0.09793 0.34375,0 l 0.34375,-0.34375 c 0.09793,-0.09793 0.09793,-0.245816 0,-0.34375 l -1.0625,-1.0625 c -0.04897,-0.04897 -0.09234,-0.0625 -0.15625,-0.0625 z M 7.75,12 C 7.6115,12 7.5,12.1115 7.5,12.25 l 0,1.5 C 7.5,13.8885 7.6115,14 7.75,14 l 0.5,0 C 8.3885,14 8.5,13.8885 8.5,13.75 l 0,-1.5 C 8.5,12.1115 8.3885,12 8.25,12 l -0.5,0 z"
       id="rect2988-8" />
  </g>
</svg>
