<?xml version="1.0" encoding="UTF-8" standalone="no"?>
<!-- Created with Inkscape (http://www.inkscape.org/) -->

<svg
   xmlns:dc="http://purl.org/dc/elements/1.1/"
   xmlns:cc="http://creativecommons.org/ns#"
   xmlns:rdf="http://www.w3.org/1999/02/22-rdf-syntax-ns#"
   xmlns:svg="http://www.w3.org/2000/svg"
   xmlns="http://www.w3.org/2000/svg"
   xmlns:sodipodi="http://sodipodi.sourceforge.net/DTD/sodipodi-0.dtd"
   xmlns:inkscape="http://www.inkscape.org/namespaces/inkscape"
   width="16"
   height="16"
   viewBox="0 0 16 16"
   id="svg4148"
   version="1.1"
   inkscape:version="0.91 r13725"
   sodipodi:docname="network-wireless-no-route-symbolic.svg">
  <defs
     id="defs4150" />
  <sodipodi:namedview
     id="base"
     pagecolor="#ffffff"
     bordercolor="#666666"
     borderopacity="1.0"
     inkscape:pageopacity="0.0"
     inkscape:pageshadow="2"
     inkscape:zoom="1"
     inkscape:cx="12.686958"
     inkscape:cy="7.1200344"
     inkscape:document-units="px"
     inkscape:current-layer="layer1"
     showgrid="false"
     units="px"
     inkscape:snap-bbox="true"
     inkscape:snap-bbox-midpoints="true">
    <inkscape:grid
       type="xygrid"
       id="grid4696" />
  </sodipodi:namedview>
  <metadata
     id="metadata4153">
    <rdf:RDF>
      <cc:Work
         rdf:about="">
        <dc:format>image/svg+xml</dc:format>
        <dc:type
           rdf:resource="http://purl.org/dc/dcmitype/StillImage" />
        <dc:title></dc:title>
      </cc:Work>
    </rdf:RDF>
  </metadata>
  <g
     inkscape:label="Ebene 1"
     inkscape:groupmode="layer"
     id="layer1"
     transform="translate(0,-1036.3622)">
    <path
       style="opacity:1;fill:#bebebe;fill-opacity:1;stroke:none;stroke-width:2;stroke-linecap:butt;stroke-linejoin:round;stroke-miterlimit:4;stroke-dasharray:none;stroke-dashoffset:0;stroke-opacity:1"
       d="M 7.8339844 1.9882812 A 11.313713 12.02742 0 0 0 0 5.5097656 L 8 14.013672 L 16 5.5097656 A 11.313713 12.02742 0 0 0 7.8339844 1.9882812 z M 7.9511719 3.7636719 C 8.2516778 3.7636719 8.5220887 3.7993935 8.7636719 3.8730469 C 9.0052551 3.9437542 9.2109765 4.0490316 9.3789062 4.1875 C 9.546836 4.3259684 9.6752878 4.4940151 9.7636719 4.6914062 C 9.8550021 4.8887974 9.9003906 5.1138197 9.9003906 5.3671875 C 9.9003906 5.5527941 9.8791365 5.7198807 9.8378906 5.8671875 C 9.7966447 6.0115482 9.7348356 6.1467536 9.6523438 6.2734375 C 9.5727981 6.3971752 9.471394 6.5169202 9.3476562 6.6347656 C 9.2268646 6.749665 9.0858657 6.8723231 8.9238281 7.0019531 C 8.8000904 7.0991756 8.6986863 7.1841591 8.6191406 7.2578125 C 8.5425411 7.3285198 8.4816921 7.3961225 8.4375 7.4609375 C 8.3933079 7.5257525 8.3614268 7.5953083 8.34375 7.6660156 C 8.3290193 7.7337768 8.3222656 7.8139267 8.3222656 7.9082031 L 8.3222656 8.1738281 L 7.15625 8.1738281 L 7.15625 7.8457031 C 7.15625 7.6954501 7.1697574 7.5602447 7.1992188 7.4394531 C 7.2316263 7.3157154 7.279928 7.1988508 7.3417969 7.0898438 C 7.4066119 6.9778906 7.4896751 6.8706929 7.5898438 6.7675781 C 7.6900124 6.6615172 7.8097573 6.5533594 7.9511719 6.4414062 C 8.0749096 6.3441837 8.180187 6.2562871 8.265625 6.1796875 C 8.351063 6.1030879 8.4196258 6.0287315 8.4726562 5.9550781 C 8.5256867 5.8784786 8.5643215 5.7992887 8.5878906 5.7167969 C 8.6114597 5.634305 8.6230469 5.5386946 8.6230469 5.4296875 C 8.6230469 5.2617577 8.5660712 5.1226789 8.4511719 5.0136719 C 8.3392187 4.9046648 8.1663386 4.8496094 7.9335938 4.8496094 C 7.7303103 4.8496094 7.5110816 4.8930777 7.2753906 4.9785156 C 7.0426458 5.0639536 6.8012029 5.169231 6.5507812 5.2929688 L 6.0996094 4.3144531 C 6.2262933 4.2407997 6.3624588 4.1722369 6.5097656 4.1074219 C 6.6600186 4.0396607 6.815518 3.981725 6.9746094 3.9316406 C 7.1366469 3.8786102 7.2998601 3.836102 7.4648438 3.8066406 C 7.6298274 3.7771793 7.7920805 3.7636719 7.9511719 3.7636719 z M 7.7929688 8.9335938 C 7.8960835 8.9335938 7.9926541 8.946141 8.0839844 8.9726562 C 8.1782608 8.9991715 8.261324 9.0426398 8.3320312 9.1015625 C 8.4027385 9.1604852 8.4587541 9.238715 8.5 9.3359375 C 8.5412459 9.4302139 8.5605469 9.5470784 8.5605469 9.6855469 C 8.5605469 9.818123 8.5412459 9.9311142 8.5 10.025391 C 8.4587541 10.119667 8.4027385 10.197897 8.3320312 10.259766 C 8.261324 10.321634 8.1782608 10.366063 8.0839844 10.392578 C 7.9926541 10.422039 7.8960835 10.435547 7.7929688 10.435547 C 7.6839617 10.435547 7.5796444 10.422039 7.4824219 10.392578 C 7.3881455 10.366063 7.3070354 10.321634 7.2363281 10.259766 C 7.1656208 10.197897 7.1096053 10.119667 7.0683594 10.025391 C 7.0300596 9.9311142 7.0097656 9.818123 7.0097656 9.6855469 C 7.0097656 9.5470784 7.0300596 9.4302139 7.0683594 9.3359375 C 7.1096053 9.238715 7.1656208 9.1604852 7.2363281 9.1015625 C 7.3070354 9.0426398 7.3881455 8.9991715 7.4824219 8.9726562 C 7.5796444 8.946141 7.6839617 8.9335938 7.7929688 8.9335938 z "
       transform="translate(0,1036.3622)"
       id="path4700" />
  </g>
</svg>
