<?xml version="1.0" encoding="UTF-8" standalone="no"?>
<!-- Created with Inkscape (http://www.inkscape.org/) -->

<svg
   xmlns:dc="http://purl.org/dc/elements/1.1/"
   xmlns:cc="http://creativecommons.org/ns#"
   xmlns:rdf="http://www.w3.org/1999/02/22-rdf-syntax-ns#"
   xmlns:svg="http://www.w3.org/2000/svg"
   xmlns="http://www.w3.org/2000/svg"
   xmlns:sodipodi="http://sodipodi.sourceforge.net/DTD/sodipodi-0.dtd"
   xmlns:inkscape="http://www.inkscape.org/namespaces/inkscape"
   sodipodi:docname="preferences-desktop-locale-symbolic.svg"
   height="16"
   id="svg7384"
   inkscape:version="0.91 r13725"
   version="1.1"
   width="16">
  <metadata
     id="metadata90">
    <rdf:RDF>
      <cc:Work
         rdf:about="">
        <dc:format>image/svg+xml</dc:format>
        <dc:type
           rdf:resource="http://purl.org/dc/dcmitype/StillImage" />
        <dc:title>Gnome Symbolic Icon Theme</dc:title>
      </cc:Work>
    </rdf:RDF>
  </metadata>
  <sodipodi:namedview
     inkscape:bbox-nodes="false"
     inkscape:bbox-paths="true"
     bordercolor="#666666"
     borderopacity="1"
     inkscape:current-layer="layer11"
     inkscape:cx="13.593311"
     inkscape:cy="7.90316"
     gridtolerance="10"
     inkscape:guide-bbox="true"
     guidetolerance="10"
     id="namedview88"
     inkscape:object-nodes="false"
     inkscape:object-paths="false"
     objecttolerance="10"
     pagecolor="#3a3b39"
     inkscape:pageopacity="1"
     inkscape:pageshadow="2"
     showborder="false"
     showgrid="false"
     showguides="true"
     inkscape:snap-bbox="true"
     inkscape:snap-bbox-midpoints="false"
     inkscape:snap-global="true"
     inkscape:snap-grids="true"
     inkscape:snap-nodes="false"
     inkscape:snap-others="false"
     inkscape:snap-to-guides="true"
     inkscape:window-height="1376"
     inkscape:window-maximized="1"
     inkscape:window-width="2560"
     inkscape:window-x="1600"
     inkscape:window-y="27"
     inkscape:zoom="1">
    <inkscape:grid
       empspacing="2"
       enabled="true"
       id="grid4866"
       originx="-62.02888px"
       originy="432.02581px"
       snapvisiblegridlinesonly="true"
       spacingx="1px"
       spacingy="1px"
       type="xygrid"
       visible="true" />
  </sodipodi:namedview>
  <title
     id="title9167">Gnome Symbolic Icon Theme</title>
  <defs
     id="defs7386" />
  <g
     inkscape:groupmode="layer"
     id="layer9"
     inkscape:label="status"
     style="display:inline"
     transform="translate(-303.02908,-649.02581)" />
  <g
     inkscape:groupmode="layer"
     id="layer10"
     inkscape:label="devices"
     transform="translate(-303.02908,-649.02581)" />
  <g
     inkscape:groupmode="layer"
     id="layer11"
     inkscape:label="apps"
     transform="translate(-303.02908,-649.02581)">
    <path
       inkscape:connector-curvature="0"
       d="m 307.725,651.25977 c -3.58218,0 -4.66582,1.39975 -4.66582,1.39975 l 0,10.04946 c 0,0 1.08364,-1.07673 4.66582,-1.07673 2.9161,0 4.47225,1.07673 7.17818,1.07673 2.08923,0 3.19429,-1.39975 3.19429,-1.39975 l 0,-10.04946 c 0,0 -1.14095,1.04084 -3.23018,1.04084 -3.3734,0 -3.97619,-1.04084 -7.14229,-1.04084 z m 2.93145,2.77148 c 1.32876,0 2.375,1.08037 2.375,2.4375 0,1.35713 -1.04624,2.46875 -2.375,2.46875 -1.32876,0 -2.40625,-1.11162 -2.40625,-2.46875 0,-1.35713 1.07749,-2.4375 2.40625,-2.4375 z m -4.5625,0.96875 0.96875,1.03125 -0.9375,-0.0312 0.9375,1 -0.96875,-0.0312 0.96875,1.03125 -1,-0.0312 0.0312,-1 -0.0312,0 0.0312,-0.9688 -0.0312,0 z m 4.5625,0 c -0.794,0 -1.46875,0.6578 -1.46875,1.46875 0,0.81095 0.67475,1.46875 1.46875,1.46875 0.79399,0 1.4375,-0.6578 1.4375,-1.46875 0,-0.81095 -0.64351,-1.46875 -1.4375,-1.46875 z m 4.375,0 0,1 0.0312,0.96875 -0.0312,0 0.0312,1 -1,0.0312 0.96875,-1.03125 -0.96875,0.0312 0.9375,-1 -0.9375,0.0312 z m -7.9375,2.96875 0.96875,1.03125 -1,-0.0312 z m 6.9375,0 0.0312,1 -1,0.0312 z m -5.9375,1 0.96875,1.03125 -1,-0.0312 z m 4.9375,0 0.0312,1 -1,0.0312 z"
       id="rect7213"
       sodipodi:nodetypes="sccssccsssssssccccccccccccsssssccccccccccccccccccccccccccc"
       style="fill:#bebebe;fill-opacity:1;stroke:none" />
  </g>
  <g
     inkscape:groupmode="layer"
     id="layer13"
     inkscape:label="places"
     transform="translate(-303.02908,-649.02581)" />
  <g
     inkscape:groupmode="layer"
     id="layer14"
     inkscape:label="mimetypes"
     transform="translate(-303.02908,-649.02581)" />
  <g
     inkscape:groupmode="layer"
     id="layer15"
     inkscape:label="emblems"
     style="display:inline"
     transform="translate(-303.02908,-649.02581)" />
  <g
     inkscape:groupmode="layer"
     id="g71291"
     inkscape:label="emotes"
     style="display:inline"
     transform="translate(-303.02908,-649.02581)" />
  <g
     inkscape:groupmode="layer"
     id="g4953"
     inkscape:label="categories"
     style="display:inline"
     transform="translate(-303.02908,-649.02581)" />
  <g
     inkscape:groupmode="layer"
     id="layer12"
     inkscape:label="actions"
     style="display:inline"
     transform="translate(-303.02908,-649.02581)" />
</svg>
