<?xml version="1.0" encoding="UTF-8" standalone="no"?>
<!-- Created with Inkscape (http://www.inkscape.org/) -->

<svg
   xmlns:dc="http://purl.org/dc/elements/1.1/"
   xmlns:cc="http://creativecommons.org/ns#"
   xmlns:rdf="http://www.w3.org/1999/02/22-rdf-syntax-ns#"
   xmlns:svg="http://www.w3.org/2000/svg"
   xmlns="http://www.w3.org/2000/svg"
   xmlns:xlink="http://www.w3.org/1999/xlink"
   xmlns:sodipodi="http://sodipodi.sourceforge.net/DTD/sodipodi-0.dtd"
   xmlns:inkscape="http://www.inkscape.org/namespaces/inkscape"
   width="16"
   height="16"
   id="svg2"
   sodipodi:version="0.32"
   inkscape:version="0.48.1 r9760"
   version="1.0"
   sodipodi:docname="document-save-as-symbolic.svg"
   inkscape:output_extension="org.inkscape.output.svg.inkscape"
   inkscape:export-filename="/home/matt/.icons/Sirocco/scalable/mimetypes/text-plain.png"
   inkscape:export-xdpi="90"
   inkscape:export-ydpi="90"
   sodipodi:modified="true"
   style="display:inline">
  <sodipodi:namedview
     id="base"
     pagecolor="#ffffff"
     bordercolor="#666666"
     borderopacity="1.0"
     inkscape:pageopacity="0.0"
     inkscape:pageshadow="2"
     inkscape:zoom="24.859835"
     inkscape:cx="-11.667127"
     inkscape:cy="5.1778783"
     inkscape:document-units="px"
     inkscape:current-layer="layer1"
     width="128px"
     height="128px"
     inkscape:showpageshadow="false"
     inkscape:window-width="1920"
     inkscape:window-height="1028"
     inkscape:window-x="0"
     inkscape:window-y="25"
     showguides="true"
     inkscape:guide-bbox="true"
     showgrid="true"
     inkscape:window-maximized="1">
    <sodipodi:guide
       id="guide2226"
       position="32.637397,117.99844"
       orientation="horizontal" />
    <sodipodi:guide
       id="guide2230"
       position="110,57.402344"
       orientation="vertical" />
    <sodipodi:guide
       id="guide2232"
       position="33.760911"
       orientation="horizontal" />
    <sodipodi:guide
       id="guide2231"
       position="46.774696"
       orientation="horizontal" />
    <inkscape:grid
       enabled="true"
       visible="true"
       id="grid3231"
       type="xygrid" />
    <sodipodi:guide
       orientation="1,0"
       position="100,67.625"
       id="guide2713" />
  </sodipodi:namedview>
  <defs
     id="defs4">
    <radialGradient
       inkscape:collect="always"
       xlink:href="#StandardGradient"
       id="radialGradient3897"
       gradientUnits="userSpaceOnUse"
       gradientTransform="matrix(1.1,0,0,0.79164213,-6.4223406,-4.2704531)"
       cx="14.020309"
       cy="18.026394"
       fx="14.020309"
       fy="18.026394"
       r="10" />
    <linearGradient
       id="StandardGradient"
       gradientTransform="scale(0.9219544,1.0846523)"
       x1="11.998966"
       y1="0.92195445"
       x2="11.998966"
       y2="19.387045"
       gradientUnits="userSpaceOnUse">
      <stop
         style="stop-color:#000000;stop-opacity:0.23529412;"
         offset="0"
         id="stop3283" />
      <stop
         style="stop-color:#000000;stop-opacity:0.54901963;"
         offset="1"
         id="stop2651" />
    </linearGradient>
  </defs>
  <metadata
     id="metadata7">
    <rdf:RDF>
      <cc:Work
         rdf:about="">
        <dc:format>image/svg+xml</dc:format>
        <dc:type
           rdf:resource="http://purl.org/dc/dcmitype/StillImage" />
      </cc:Work>
    </rdf:RDF>
  </metadata>
  <g
     style="display:inline"
     inkscape:label="Calque 1"
     id="layer1"
     inkscape:groupmode="layer">
    <path
       inkscape:connector-curvature="0"
       style="fill:#bebebe;fill-opacity:1;stroke:none;display:inline"
       d="m 6,1.03125 0,1 4,0 0,-1 -4,0 z m 0,2 0,1 4,0 0,-1 -4,0 z m 0,2 L 6,7 3,7 l 5,6 5,-6 -3,0 0,-1.96875 -4,0 z M 8,13 c -0.5522847,0 -1,0.447715 -1,1 0,0.552285 0.4477153,1 1,1 0.5522847,0 1,-0.447715 1,-1 0,-0.552285 -0.4477153,-1 -1,-1 z m -3,0 c -0.5522847,0 -1,0.447715 -1,1 0,0.552285 0.4477153,1 1,1 0.5522847,0 1,-0.447715 1,-1 0,-0.552285 -0.4477153,-1 -1,-1 z m 6,0 c -0.552285,0 -1,0.447715 -1,1 0,0.552285 0.447715,1 1,1 0.552285,0 1,-0.447715 1,-1 0,-0.552285 -0.447715,-1 -1,-1 z"
       id="path3048" />
  </g>
</svg>
