<?xml version="1.0" encoding="UTF-8" standalone="no"?>
<!-- Created with Inkscape (http://www.inkscape.org/) -->

<svg
   xmlns:dc="http://purl.org/dc/elements/1.1/"
   xmlns:cc="http://creativecommons.org/ns#"
   xmlns:rdf="http://www.w3.org/1999/02/22-rdf-syntax-ns#"
   xmlns:svg="http://www.w3.org/2000/svg"
   xmlns="http://www.w3.org/2000/svg"
   xmlns:sodipodi="http://sodipodi.sourceforge.net/DTD/sodipodi-0.dtd"
   xmlns:inkscape="http://www.inkscape.org/namespaces/inkscape"
   width="16"
   height="16"
   id="svg2"
   sodipodi:version="0.32"
   inkscape:version="0.91 r13725"
   version="1.0"
   sodipodi:docname="edit-paste-symbolic.svg"
   inkscape:output_extension="org.inkscape.output.svg.inkscape"
   inkscape:export-filename="/home/matt/.icons/Sirocco/scalable/mimetypes/text-plain.png"
   inkscape:export-xdpi="90"
   inkscape:export-ydpi="90"
   sodipodi:modified="true"
   style="display:inline">
  <sodipodi:namedview
     id="base"
     pagecolor="#ffffff"
     bordercolor="#666666"
     borderopacity="1.0"
     inkscape:pageopacity="0.0"
     inkscape:pageshadow="2"
     inkscape:zoom="23.252798"
     inkscape:cx="2.640983"
     inkscape:cy="7.8251948"
     inkscape:document-units="px"
     inkscape:current-layer="layer1"
     width="128px"
     height="128px"
     inkscape:showpageshadow="false"
     inkscape:window-width="1920"
     inkscape:window-height="1028"
     inkscape:window-x="0"
     inkscape:window-y="25"
     showguides="true"
     inkscape:guide-bbox="true"
     showgrid="true"
     inkscape:window-maximized="1">
    <sodipodi:guide
       id="guide2226"
       position="32.637397,117.99844"
       orientation="horizontal" />
    <sodipodi:guide
       id="guide2230"
       position="110,57.402344"
       orientation="vertical" />
    <sodipodi:guide
       id="guide2232"
       position="33.760911"
       orientation="horizontal" />
    <sodipodi:guide
       id="guide2231"
       position="46.774696"
       orientation="horizontal" />
    <inkscape:grid
       enabled="true"
       visible="true"
       id="grid3231"
       type="xygrid" />
    <sodipodi:guide
       orientation="1,0"
       position="100,67.625"
       id="guide2713" />
  </sodipodi:namedview>
  <defs
     id="defs4" />
  <metadata
     id="metadata7">
    <rdf:RDF>
      <cc:Work
         rdf:about="">
        <dc:format>image/svg+xml</dc:format>
        <dc:type
           rdf:resource="http://purl.org/dc/dcmitype/StillImage" />
      </cc:Work>
    </rdf:RDF>
  </metadata>
  <g
     style="display:inline"
     inkscape:label="Calque 1"
     id="layer1"
     inkscape:groupmode="layer">
    <g
       id="edit-paste_16"
       transform="translate(-38,-204.36217)"
       inkscape:label="#g7915">
      <g
         transform="translate(37.984375,204.36217)"
         id="g4742"
         style="display:inline">
        <g
           style="display:inline"
           inkscape:label="Calque 1"
           id="layer1-88">
          <path
             inkscape:connector-curvature="0"
             style="display:inline;fill:#bebebe;fill-opacity:1;stroke:none"
             d="m 5,0.9999996 0,0.96875 -1.46875,0 c -0.8309999,0 -1.5,0.669 -1.5,1.5 l 0,8.0312504 c 0,0.810431 0.6351935,1.468004 1.4375,1.5 0.020363,8.12e-4 0.041931,0 0.0625,0 L 4,13 5,13 5,13.5 C 5,14.331 5.669,15 6.5,15 l 6,0 c 0.831,0 1.5,-0.669 1.5,-1.5 l 0,-7.0000004 c 0,-0.657875 -0.412983,-1.2029937 -1,-1.40625 l 0,-1.625 c 0,-0.8309999 -0.669,-1.5 -1.5,-1.5 l -1.5,0 0,-0.96875 z m 1,1 3,0 0,1 -3,0 z m 1.5,5 4,0 c 0.277,0 0.5,0.223 0.5,0.5 L 12,12.5 c 0,0.277 -0.223,0.5 -0.5,0.5 l -4,0 C 7.223,13 7,12.777 7,12.5 L 7,7.4999996 c 0,-0.277 0.223,-0.5 0.5,-0.5 z"
             id="Symbol-6"
             sodipodi:nodetypes="ccsssssccssssscssccccccccsssssssss" />
        </g>
      </g>
    </g>
  </g>
</svg>
