<?xml version="1.0" encoding="UTF-8" standalone="no"?>
<!-- Created with Inkscape (http://www.inkscape.org/) -->

<svg
   xmlns:dc="http://purl.org/dc/elements/1.1/"
   xmlns:cc="http://creativecommons.org/ns#"
   xmlns:rdf="http://www.w3.org/1999/02/22-rdf-syntax-ns#"
   xmlns:svg="http://www.w3.org/2000/svg"
   xmlns="http://www.w3.org/2000/svg"
   xmlns:sodipodi="http://sodipodi.sourceforge.net/DTD/sodipodi-0.dtd"
   xmlns:inkscape="http://www.inkscape.org/namespaces/inkscape"
   width="16"
   height="16"
   id="svg2"
   sodipodi:version="0.32"
   inkscape:version="0.91 r13725"
   version="1.0"
   sodipodi:docname="edit-copy-symbolic.svg"
   inkscape:output_extension="org.inkscape.output.svg.inkscape"
   inkscape:export-filename="/home/matt/.icons/Sirocco/scalable/mimetypes/text-plain.png"
   inkscape:export-xdpi="90"
   inkscape:export-ydpi="90"
   sodipodi:modified="true"
   style="display:inline">
  <sodipodi:namedview
     id="base"
     pagecolor="#ffffff"
     bordercolor="#666666"
     borderopacity="1.0"
     inkscape:pageopacity="0.0"
     inkscape:pageshadow="2"
     inkscape:zoom="17.473965"
     inkscape:cx="-1.6771753"
     inkscape:cy="8.3031113"
     inkscape:document-units="px"
     inkscape:current-layer="layer1"
     width="128px"
     height="128px"
     inkscape:showpageshadow="false"
     inkscape:window-width="1920"
     inkscape:window-height="1028"
     inkscape:window-x="0"
     inkscape:window-y="25"
     showguides="true"
     inkscape:guide-bbox="true"
     showgrid="true"
     inkscape:window-maximized="1">
    <sodipodi:guide
       id="guide2226"
       position="32.637397,117.99844"
       orientation="horizontal" />
    <sodipodi:guide
       id="guide2230"
       position="110,57.402344"
       orientation="vertical" />
    <sodipodi:guide
       id="guide2232"
       position="33.760911"
       orientation="horizontal" />
    <sodipodi:guide
       id="guide2231"
       position="46.774696"
       orientation="horizontal" />
    <inkscape:grid
       enabled="true"
       visible="true"
       id="grid3231"
       type="xygrid" />
    <sodipodi:guide
       orientation="1,0"
       position="100,67.625"
       id="guide2713" />
  </sodipodi:namedview>
  <defs
     id="defs4" />
  <metadata
     id="metadata7">
    <rdf:RDF>
      <cc:Work
         rdf:about="">
        <dc:format>image/svg+xml</dc:format>
        <dc:type
           rdf:resource="http://purl.org/dc/dcmitype/StillImage" />
      </cc:Work>
    </rdf:RDF>
  </metadata>
  <g
     style="display:inline"
     inkscape:label="Calque 1"
     id="layer1"
     inkscape:groupmode="layer">
    <g
       id="edit-copy_16"
       transform="translate(-19,-185.36217)"
       inkscape:label="#g7903">
      <g
         transform="translate(19,185.36217)"
         id="g4670"
         style="display:inline">
        <g
           style="display:inline"
           inkscape:label="Calque 1"
           id="layer1-11">
          <path
             inkscape:connector-curvature="0"
             style="display:inline;fill:#bebebe;fill-opacity:1;stroke:none"
             d="M 6.5,1 C 5.669,1 5,1.669 5,2.5 l 0,8 C 5,11.331 5.669,12 6.5,12 l 6,0 c 0.831,0 1.5,-0.669 1.5,-1.5 l 0,-8 C 14,1.669 13.331,1 12.5,1 l -6,0 z m 1,2 4,0 C 11.777,3 12,3.223 12,3.5 l 0,6 C 12,9.777 11.777,10 11.5,10 l -4,0 C 7.223,10 7,9.777 7,9.5 l 0,-6 C 7,3.223 7.223,3 7.5,3 Z m -4,1 C 2.669,4 2,4.669 2,5.5 l 0,8 C 2,14.331 2.669,15 3.5,15 l 6,0 c 0.831,0 1.5,-0.669 1.5,-1.5 l 0,-0.5 -2.5,0 -4,0 C 4.223,13 4,12.777 4,12.5 L 4,6.5 4,4 3.5,4 Z"
             id="Symbol-1"
             sodipodi:nodetypes="ccccccccccccccccccccccccccccccc" />
        </g>
      </g>
    </g>
  </g>
</svg>
