<?xml version="1.0" encoding="UTF-8" standalone="no"?>
<!-- Created with Inkscape (http://www.inkscape.org/) -->

<svg
   xmlns:dc="http://purl.org/dc/elements/1.1/"
   xmlns:cc="http://creativecommons.org/ns#"
   xmlns:rdf="http://www.w3.org/1999/02/22-rdf-syntax-ns#"
   xmlns:svg="http://www.w3.org/2000/svg"
   xmlns="http://www.w3.org/2000/svg"
   xmlns:sodipodi="http://sodipodi.sourceforge.net/DTD/sodipodi-0.dtd"
   xmlns:inkscape="http://www.inkscape.org/namespaces/inkscape"
   width="16"
   height="16"
   id="svg2"
   sodipodi:version="0.32"
   inkscape:version="0.91 r13725"
   version="1.0"
   sodipodi:docname="edit-find-replace-symbolic.svg"
   inkscape:output_extension="org.inkscape.output.svg.inkscape"
   inkscape:export-filename="/home/matt/.icons/Sirocco/scalable/mimetypes/text-plain.png"
   inkscape:export-xdpi="90"
   inkscape:export-ydpi="90"
   sodipodi:modified="true"
   style="display:inline">
  <sodipodi:namedview
     id="base"
     pagecolor="#ffffff"
     bordercolor="#666666"
     borderopacity="1.0"
     inkscape:pageopacity="0.0"
     inkscape:pageshadow="2"
     inkscape:zoom="24.859835"
     inkscape:cx="-0.71795622"
     inkscape:cy="13.227528"
     inkscape:document-units="px"
     inkscape:current-layer="layer1"
     width="128px"
     height="128px"
     inkscape:showpageshadow="false"
     inkscape:window-width="1920"
     inkscape:window-height="1028"
     inkscape:window-x="0"
     inkscape:window-y="25"
     showguides="true"
     inkscape:guide-bbox="true"
     showgrid="true"
     inkscape:window-maximized="1">
    <sodipodi:guide
       id="guide2226"
       position="32.637397,117.99844"
       orientation="horizontal" />
    <sodipodi:guide
       id="guide2230"
       position="110,57.402344"
       orientation="vertical" />
    <sodipodi:guide
       id="guide2232"
       position="33.760911"
       orientation="horizontal" />
    <sodipodi:guide
       id="guide2231"
       position="46.774696"
       orientation="horizontal" />
    <inkscape:grid
       enabled="true"
       visible="true"
       id="grid3231"
       type="xygrid" />
    <sodipodi:guide
       orientation="1,0"
       position="100,67.625"
       id="guide2713" />
  </sodipodi:namedview>
  <defs
     id="defs4" />
  <metadata
     id="metadata7">
    <rdf:RDF>
      <cc:Work
         rdf:about="">
        <dc:format>image/svg+xml</dc:format>
        <dc:type
           rdf:resource="http://purl.org/dc/dcmitype/StillImage" />
        <dc:title />
      </cc:Work>
    </rdf:RDF>
  </metadata>
  <g
     style="display:inline"
     inkscape:label="Calque 1"
     id="layer1"
     inkscape:groupmode="layer">
    <g
       id="edit-find-replace_16"
       transform="translate(-19,-204.36217)"
       inkscape:label="#g7921">
      <g
         transform="translate(18.999882,204.35802)"
         id="g4724"
         style="display:inline">
        <g
           style="display:inline"
           inkscape:label="Calque 1"
           id="layer1-78">
          <path
             inkscape:connector-curvature="0"
             style="display:inline;fill:#bebebe;fill-opacity:1;stroke:none"
             d="m 5.9375,1 c -1.2651705,0 -2.5353948,0.4764293 -3.5,1.4375 -1.9292101,1.9221417 -1.92921008,5.046609 0,6.96875 1.6818403,1.675679 4.2713406,1.902205 6.1875,0.65625 0.3257053,0.01628 0.875865,0.0703 1.0625,0.28125 0.2541228,0.287232 -0.112362,0.937235 0.375,1.375 l 3.03125,3.09375 c 0,0 0.561748,0.591294 1.4375,-0.28125 0.875752,-0.872543 0.28125,-1.4375 0.28125,-1.4375 l -3.03125,-3.0625 C 11.341874,9.5456737 10.663287,9.90944 10.375,9.65625 10.163271,9.470299 10.110088,8.918263 10.09375,8.59375 11.344287,6.684612 11.119341,4.1131779 9.4375,2.4375 8.4728947,1.4764293 7.2026705,0.99999999 5.9375,1 Z M 5.96875,2.65625 C 7.7876271,2.65625 9.25,4.1252875 9.25,5.9375 9.2499998,7.7497133 7.7876277,9.21875 5.96875,9.21875 4.1498744,9.2187515 2.65625,7.7497134 2.65625,5.9375 2.6562502,5.0313938 3.0285928,4.1879721 3.625,3.59375 4.2214074,2.9995279 5.0593116,2.6562501 5.96875,2.65625 Z M 2,13 c -0.552,0 -1,0.448 -1,1 0,0.552 0.4480001,1 1,1 0.552,0 1.0000001,-0.448 1,-1 0,-0.552 -0.4479999,-1 -1,-1 z m 3,0 c -0.552,0 -0.9999999,0.448 -1,1 0,0.552 0.4480001,1 1,1 0.552,0 1.0000001,-0.448 1,-1 0,-0.552 -0.4479999,-1 -1,-1 z m 3,0 c -0.552,0 -0.9999999,0.448 -1,1 0,0.552 0.4480001,1 1,1 0.552,0 1.0000001,-0.448 1,-1 0,-0.552 -0.4479999,-1 -1,-1 z"
             id="Symbol-7" />
        </g>
      </g>
    </g>
  </g>
</svg>
