<?xml version="1.0" encoding="UTF-8" standalone="no"?>
<!-- Created with Inkscape (http://www.inkscape.org/) -->

<svg
   xmlns:dc="http://purl.org/dc/elements/1.1/"
   xmlns:cc="http://creativecommons.org/ns#"
   xmlns:rdf="http://www.w3.org/1999/02/22-rdf-syntax-ns#"
   xmlns:svg="http://www.w3.org/2000/svg"
   xmlns="http://www.w3.org/2000/svg"
   xmlns:inkscape="http://www.inkscape.org/namespaces/inkscape"
   version="1.1"
   width="16"
   height="16"
   id="svg3862">
  <defs
     id="defs3864" />
  <metadata
     id="metadata3867">
    <rdf:RDF>
      <cc:Work
         rdf:about="">
        <dc:format>image/svg+xml</dc:format>
        <dc:type
           rdf:resource="http://purl.org/dc/dcmitype/StillImage" />
        <dc:title />
      </cc:Work>
    </rdf:RDF>
  </metadata>
  <g
     id="layer1">
    <path
       d="M 8,1.03125 C 4.1467,1.03125 1.03125,4.1467 1.03125,8 1.03125,11.8533 4.1467,14.96875 8,14.96875 11.8533,14.96875 14.96875,11.8533 14.96875,8 14.96875,4.1467 11.8533,1.03125 8,1.03125 z m 1.0625,1.375 C 9.455871,2.3771392 9.83629,2.6745924 9.90625,3.0625 10.111679,3.8045762 9.35693,4.5830844 8.625,4.3125 7.720903,3.9302388 8.126467,2.3938405 9.0625,2.40625 z m -0.25,3.375 c 0.4527831,0.019325 0.7135542,0.6479392 0.5,1.1875 -0.279123,1.5508259 -0.774227,3.063965 -1,4.625 C 8.475132,12.199877 9.196022,11.421181 9.53125,11.25 9.779208,10.933043 9.865416,11.26952 9.96875,11.5 9.298364,12.018605 8.646635,12.577314 7.875,12.9375 7.157017,13.478528 6.407129,12.798527 6.6875,12 6.928706,10.552619 7.267702,9.1313732 7.53125,7.6875 7.600765,6.9101725 6.63483,7.7452966 6.34375,7.9375 6.115328,8.2540924 5.986215,8.0227632 5.875,7.75 6.650938,7.1249067 7.38172,6.4419315 8.28125,6 8.4665315,5.8460924 8.6615723,5.7748082 8.8125,5.78125 z"
       inkscape:connector-curvature="0"
       id="path10839-3"
       style="text-indent:0;text-transform:none;block-progression:tb;opacity:0.9;color:#bebebe;fill:#bebebe;fill-opacity:1;fill-rule:nonzero;stroke:none;stroke-width:1;marker:none;visibility:visible;display:inline;overflow:visible;enable-background:accumulate" />
  </g>
</svg>
