<?xml version="1.0" encoding="UTF-8" standalone="no"?>
<!-- Created with Inkscape (http://www.inkscape.org/) -->

<svg
   xmlns:dc="http://purl.org/dc/elements/1.1/"
   xmlns:cc="http://creativecommons.org/ns#"
   xmlns:rdf="http://www.w3.org/1999/02/22-rdf-syntax-ns#"
   xmlns:svg="http://www.w3.org/2000/svg"
   xmlns="http://www.w3.org/2000/svg"
   xmlns:sodipodi="http://sodipodi.sourceforge.net/DTD/sodipodi-0.dtd"
   xmlns:inkscape="http://www.inkscape.org/namespaces/inkscape"
   sodipodi:docname="preferences-color-symbolic.svg"
   height="16"
   id="svg7384"
   inkscape:version="0.91 r13725"
   version="1.1"
   width="16">
  <metadata
     id="metadata90">
    <rdf:RDF>
      <cc:Work
         rdf:about="">
        <dc:format>image/svg+xml</dc:format>
        <dc:type
           rdf:resource="http://purl.org/dc/dcmitype/StillImage" />
        <dc:title>Gnome Symbolic Icon Theme</dc:title>
      </cc:Work>
    </rdf:RDF>
  </metadata>
  <sodipodi:namedview
     inkscape:bbox-paths="false"
     bordercolor="#666666"
     borderopacity="1"
     inkscape:current-layer="layer11"
     inkscape:cx="11.52612"
     inkscape:cy="1.67408"
     gridtolerance="10"
     inkscape:guide-bbox="true"
     guidetolerance="10"
     id="namedview88"
     inkscape:object-nodes="false"
     inkscape:object-paths="false"
     objecttolerance="10"
     pagecolor="#555753"
     inkscape:pageopacity="1"
     inkscape:pageshadow="2"
     showborder="false"
     showgrid="true"
     showguides="true"
     inkscape:snap-bbox="true"
     inkscape:snap-bbox-midpoints="false"
     inkscape:snap-global="true"
     inkscape:snap-grids="true"
     inkscape:snap-nodes="false"
     inkscape:snap-others="false"
     inkscape:snap-to-guides="true"
     inkscape:window-height="1381"
     inkscape:window-maximized="1"
     inkscape:window-width="2560"
     inkscape:window-x="1600"
     inkscape:window-y="27"
     inkscape:zoom="1">
    <inkscape:grid
       empspacing="2"
       enabled="true"
       id="grid4866"
       snapvisiblegridlinesonly="true"
       spacingx="1px"
       spacingy="1px"
       type="xygrid"
       visible="true" />
  </sodipodi:namedview>
  <title
     id="title9167">Gnome Symbolic Icon Theme</title>
  <defs
     id="defs7386" />
  <g
     inkscape:groupmode="layer"
     id="layer9"
     inkscape:label="status"
     style="display:inline"
     transform="translate(-283,-649)" />
  <g
     inkscape:groupmode="layer"
     id="layer10"
     inkscape:label="devices"
     transform="translate(-283,-649)" />
  <g
     inkscape:groupmode="layer"
     id="layer11"
     inkscape:label="apps"
     transform="translate(-283,-649)">
    <path
       inkscape:connector-curvature="0"
       d="m 291.0002,650.00714 c -2.20283,0 -3.99286,1.79004 -3.99286,3.99286 0,2.20282 1.79003,3.99286 3.99286,3.99286 2.20282,0 3.99285,-1.79004 3.99285,-3.99286 0,-2.20282 -1.79003,-3.99286 -3.99285,-3.99286 z m 0,1.05238 c 1.62635,0 2.94047,1.31413 2.94047,2.94048 0,1.62635 -1.31412,2.94048 -2.94047,2.94048 -1.62636,0 -2.94048,-1.31413 -2.94048,-2.94048 0,-1.62635 1.31412,-2.94048 2.94048,-2.94048 z"
       id="path8587"
       style="font-size:medium;font-style:normal;font-variant:normal;font-weight:normal;font-stretch:normal;text-indent:0;text-align:start;text-decoration:none;line-height:normal;letter-spacing:normal;word-spacing:normal;text-transform:none;direction:ltr;block-progression:tb;writing-mode:lr-tb;text-anchor:start;baseline-shift:baseline;color:#000000;fill:#bebebe;fill-opacity:1;stroke:none;stroke-width:2.15384626;marker:none;visibility:visible;display:inline;overflow:visible;enable-background:new;font-family:Sans;-inkscape-font-specification:Sans" />
    <path
       inkscape:connector-curvature="0"
       d="m 287.0002,657.00714 c -2.20283,0 -3.99286,1.79004 -3.99286,3.99286 0,2.20282 1.79003,3.99286 3.99286,3.99286 2.20282,0 3.99285,-1.79004 3.99285,-3.99286 0,-2.20282 -1.79003,-3.99286 -3.99285,-3.99286 z m 0,1.05238 c 1.62635,0 2.94047,1.31413 2.94047,2.94048 0,1.62635 -1.31412,2.94048 -2.94047,2.94048 -1.62636,0 -2.94048,-1.31413 -2.94048,-2.94048 0,-1.62635 1.31412,-2.94048 2.94048,-2.94048 z"
       id="path8591"
       style="font-size:medium;font-style:normal;font-variant:normal;font-weight:normal;font-stretch:normal;text-indent:0;text-align:start;text-decoration:none;line-height:normal;letter-spacing:normal;word-spacing:normal;text-transform:none;direction:ltr;block-progression:tb;writing-mode:lr-tb;text-anchor:start;baseline-shift:baseline;color:#000000;fill:#bebebe;fill-opacity:1;stroke:none;stroke-width:2.15384626;marker:none;visibility:visible;display:inline;overflow:visible;enable-background:new;font-family:Sans;-inkscape-font-specification:Sans" />
    <path
       sodipodi:cx="-9"
       sodipodi:cy="321"
       d="m -2,321 a 7,7 0 1 1 -14,0 7,7 0 1 1 14,0 z"
       id="path8593"
       sodipodi:rx="7"
       sodipodi:ry="7"
       style="color:#000000;fill:#bebebe;fill-opacity:1;stroke:none;stroke-width:2.15384626;marker:none;visibility:visible;display:inline;overflow:visible;enable-background:new"
       transform="matrix(0.57130665,0,0,0.57130665,300.14111,477.61056)"
       sodipodi:type="arc" />
    <path
       sodipodi:cx="-9"
       sodipodi:cy="321"
       d="m -2,321 a 7,7 0 1 1 -14,0 7,7 0 1 1 14,0 z"
       id="path8595"
       sodipodi:rx="7"
       sodipodi:ry="7"
       style="color:#000000;fill:#bebebe;fill-opacity:0.36403509;stroke:none;stroke-width:2.15384626;marker:none;visibility:visible;display:inline;overflow:visible;enable-background:new"
       transform="matrix(0.49523816,0,0,0.49523816,291.45734,502.02855)"
       sodipodi:type="arc" />
  </g>
  <g
     inkscape:groupmode="layer"
     id="layer13"
     inkscape:label="places"
     transform="translate(-283,-649)" />
  <g
     inkscape:groupmode="layer"
     id="layer14"
     inkscape:label="mimetypes"
     transform="translate(-283,-649)" />
  <g
     inkscape:groupmode="layer"
     id="layer15"
     inkscape:label="emblems"
     style="display:inline"
     transform="translate(-283,-649)" />
  <g
     inkscape:groupmode="layer"
     id="g71291"
     inkscape:label="emotes"
     style="display:inline"
     transform="translate(-283,-649)" />
  <g
     inkscape:groupmode="layer"
     id="g4953"
     inkscape:label="categories"
     style="display:inline"
     transform="translate(-283,-649)" />
  <g
     inkscape:groupmode="layer"
     id="layer12"
     inkscape:label="actions"
     style="display:inline"
     transform="translate(-283,-649)" />
</svg>
