<?xml version="1.0" encoding="UTF-8" standalone="no"?>
<!-- Created with Inkscape (http://www.inkscape.org/) -->

<svg
   xmlns:dc="http://purl.org/dc/elements/1.1/"
   xmlns:cc="http://creativecommons.org/ns#"
   xmlns:rdf="http://www.w3.org/1999/02/22-rdf-syntax-ns#"
   xmlns:svg="http://www.w3.org/2000/svg"
   xmlns="http://www.w3.org/2000/svg"
   xmlns:sodipodi="http://sodipodi.sourceforge.net/DTD/sodipodi-0.dtd"
   xmlns:inkscape="http://www.inkscape.org/namespaces/inkscape"
   sodipodi:docname="preferences-system-notifications-symbolic.svg"
   height="16"
   id="svg7384"
   inkscape:version="0.91 r13725"
   version="1.1"
   width="16">
  <metadata
     id="metadata90">
    <rdf:RDF>
      <cc:Work
         rdf:about="">
        <dc:format>image/svg+xml</dc:format>
        <dc:type
           rdf:resource="http://purl.org/dc/dcmitype/StillImage" />
        <dc:title>Gnome Symbolic Icon Theme</dc:title>
      </cc:Work>
    </rdf:RDF>
  </metadata>
  <sodipodi:namedview
     inkscape:bbox-nodes="false"
     inkscape:bbox-paths="true"
     bordercolor="#666666"
     borderopacity="1"
     inkscape:current-layer="layer11"
     inkscape:cx="9.181632"
     inkscape:cy="10.61789"
     gridtolerance="10"
     inkscape:guide-bbox="true"
     guidetolerance="10"
     id="namedview88"
     inkscape:object-nodes="false"
     inkscape:object-paths="false"
     objecttolerance="10"
     pagecolor="#3a3b39"
     inkscape:pageopacity="1"
     inkscape:pageshadow="2"
     showborder="false"
     showgrid="false"
     showguides="true"
     inkscape:snap-bbox="true"
     inkscape:snap-bbox-midpoints="false"
     inkscape:snap-global="true"
     inkscape:snap-grids="true"
     inkscape:snap-nodes="false"
     inkscape:snap-others="false"
     inkscape:snap-to-guides="true"
     inkscape:window-height="1014"
     inkscape:window-maximized="0"
     inkscape:window-width="1320"
     inkscape:window-x="3478"
     inkscape:window-y="143"
     inkscape:zoom="1">
    <inkscape:grid
       empspacing="2"
       enabled="true"
       id="grid4866"
       originx="-82.02888px"
       originy="432.02581px"
       snapvisiblegridlinesonly="true"
       spacingx="1px"
       spacingy="1px"
       type="xygrid"
       visible="true" />
  </sodipodi:namedview>
  <title
     id="title9167">Gnome Symbolic Icon Theme</title>
  <defs
     id="defs7386" />
  <g
     inkscape:groupmode="layer"
     id="layer9"
     inkscape:label="status"
     style="display:inline"
     transform="translate(-323.02908,-649.02581)" />
  <g
     inkscape:groupmode="layer"
     id="layer10"
     inkscape:label="devices"
     transform="translate(-323.02908,-649.02581)" />
  <g
     inkscape:groupmode="layer"
     id="layer11"
     inkscape:label="apps"
     transform="translate(-323.02908,-649.02581)">
    <path
       inkscape:connector-curvature="0"
       d="m 331.9377,653 c 0.0187,0.16677 0.0625,0.32822 0.0625,0.5 0,2.48528 -2.01472,4.5 -4.5,4.5 -0.11769,0 -0.22834,-0.0224 -0.34375,-0.0312 l 0,2.21875 c 0,1.00412 0.80838,1.8125 1.8125,1.8125 l 1.54511,-5e-5 2,2.04688 2.0625,-2.04688 1.61114,0 c 1.00413,0 1.8125,-0.80838 1.8125,-1.8125 l 0,-5.375 c 0,-1.00412 -0.80837,-1.8125 -1.8125,-1.8125 z"
       id="rect68948"
       sodipodi:nodetypes="csscsscccssssc"
       style="opacity:0.5;color:#000000;fill:#c3c3c3;fill-opacity:1;fill-rule:nonzero;stroke:none;stroke-width:2;marker:none;visibility:visible;display:inline;overflow:visible;enable-background:accumulate" />
    <path
       inkscape:connector-curvature="0"
       d="m 327.5002,650 c -1.933,0 -3.5,1.567 -3.5,3.5 0,1.933 1.567,3.5 3.5,3.5 1.933,0 3.5,-1.567 3.5,-3.5 0,-1.933 -1.567,-3.5 -3.5,-3.5 z m -0.53125,1 1.03125,0 -0.0625,1.375 a 0.19951718,0.19951718 0 0 0 0,0.0625 0.19951718,0.19951718 0 0 0 0,0.0312 0.19951718,0.19951718 0 0 0 0.125,0.125 0.19951718,0.19951718 0 0 0 0.0312,0 0.19951718,0.19951718 0 0 0 0.0625,0 0.19951718,0.19951718 0 0 0 0.0625,0 0.19951718,0.19951718 0 0 0 0.0312,-0.0312 l 1.15625,-0.75 0.5,0.90625 -1.21875,0.625 a 0.19951718,0.19951718 0 0 0 -0.0312,0 0.19951718,0.19951718 0 0 0 -0.0312,0.0312 0.19951718,0.19951718 0 0 0 -0.0312,0.0937 0.19951718,0.19951718 0 0 0 0,0.0625 0.19951718,0.19951718 0 0 0 0,0.0312 0.19951718,0.19951718 0 0 0 0.0312,0.0625 0.19951718,0.19951718 0 0 0 0.0312,0.0312 0.19951718,0.19951718 0 0 0 0.0312,0.0312 l 1.25,0.625 -0.53125,0.90625 -1.15625,-0.781 a 0.19951718,0.19951718 0 0 0 -0.0312,0 0.19951718,0.19951718 0 0 0 -0.0625,-0.0312 0.19951718,0.19951718 0 0 0 -0.0625,0 0.19951718,0.19951718 0 0 0 -0.125,0.0937 0.19951718,0.19951718 0 0 0 -0.0312,0.0312 0.19951718,0.19951718 0 0 0 0,0.0312 0.19951718,0.19951718 0 0 0 0,0.0625 l 0.0625,1.3751 -1.03125,0 0.0937,-1.375 a 0.19951718,0.19951718 0 0 0 -0.0312,-0.0937 0.19951718,0.19951718 0 0 0 -0.0312,-0.0625 0.19951718,0.19951718 0 0 0 -0.0625,-0.0312 0.19951718,0.19951718 0 0 0 -0.0625,-0.0312 0.19951718,0.19951718 0 0 0 -0.0312,0 0.19951718,0.19951718 0 0 0 -0.0937,0.0312 l -1.1875,0.78125 -0.5,-0.90625 1.25,-0.625 a 0.19951718,0.19951718 0 0 0 0.0312,-0.0312 0.19951718,0.19951718 0 0 0 0.0312,-0.0312 0.19951718,0.19951718 0 0 0 0.0312,-0.0625 0.19951718,0.19951718 0 0 0 0,-0.0312 0.19951718,0.19951718 0 0 0 0,-0.0625 0.19951718,0.19951718 0 0 0 0,-0.0312 0.19951718,0.19951718 0 0 0 -0.0312,-0.0625 0.19951718,0.19951718 0 0 0 -0.0312,-0.0312 0.19951718,0.19951718 0 0 0 -0.0312,0 l -1.25,-0.625 0.5,-0.90625 1.1875,0.75 a 0.19951718,0.19951718 0 0 0 0.0312,0.0312 0.19951718,0.19951718 0 0 0 0.0625,0 0.19951718,0.19951718 0 0 0 0.0625,0 0.19951718,0.19951718 0 0 0 0.0312,0 0.19951718,0.19951718 0 0 0 0.0312,-0.0312 0.19951718,0.19951718 0 0 0 0.0312,-0.0312 0.19951718,0.19951718 0 0 0 0.0312,-0.0312 0.19951718,0.19951718 0 0 0 0,-0.0312 0.19951718,0.19951718 0 0 0 0.0312,-0.0625 0.19951718,0.19951718 0 0 0 0,-0.0312 L 326.96895,651 z"
       id="path68953"
       style="color:#000000;fill:#bebebe;fill-opacity:1;fill-rule:nonzero;stroke:none;marker:none;visibility:visible;display:inline;overflow:visible;enable-background:accumulate" />
  </g>
  <g
     inkscape:groupmode="layer"
     id="layer13"
     inkscape:label="places"
     transform="translate(-323.02908,-649.02581)" />
  <g
     inkscape:groupmode="layer"
     id="layer14"
     inkscape:label="mimetypes"
     transform="translate(-323.02908,-649.02581)" />
  <g
     inkscape:groupmode="layer"
     id="layer15"
     inkscape:label="emblems"
     style="display:inline"
     transform="translate(-323.02908,-649.02581)" />
  <g
     inkscape:groupmode="layer"
     id="g71291"
     inkscape:label="emotes"
     style="display:inline"
     transform="translate(-323.02908,-649.02581)" />
  <g
     inkscape:groupmode="layer"
     id="g4953"
     inkscape:label="categories"
     style="display:inline"
     transform="translate(-323.02908,-649.02581)" />
  <g
     inkscape:groupmode="layer"
     id="layer12"
     inkscape:label="actions"
     style="display:inline"
     transform="translate(-323.02908,-649.02581)" />
</svg>
