<?xml version="1.0" encoding="UTF-8" standalone="no"?>
<!-- Created with Inkscape (http://www.inkscape.org/) -->

<svg
   xmlns:dc="http://purl.org/dc/elements/1.1/"
   xmlns:cc="http://creativecommons.org/ns#"
   xmlns:rdf="http://www.w3.org/1999/02/22-rdf-syntax-ns#"
   xmlns:svg="http://www.w3.org/2000/svg"
   xmlns="http://www.w3.org/2000/svg"
   xmlns:sodipodi="http://sodipodi.sourceforge.net/DTD/sodipodi-0.dtd"
   xmlns:inkscape="http://www.inkscape.org/namespaces/inkscape"
   sodipodi:docname="microphone-sensitivity-muted.svg"
   height="22"
   id="svg7384"
   inkscape:version="0.91 r13725"
   version="1.1"
   width="22">
  <metadata
     id="metadata90">
    <rdf:RDF>
      <cc:Work
         rdf:about="">
        <dc:format>image/svg+xml</dc:format>
        <dc:type
           rdf:resource="http://purl.org/dc/dcmitype/StillImage" />
        <dc:title>Gnome Symbolic Icon Theme</dc:title>
      </cc:Work>
    </rdf:RDF>
  </metadata>
  <sodipodi:namedview
     inkscape:bbox-nodes="false"
     inkscape:bbox-paths="true"
     bordercolor="#666666"
     borderopacity="1"
     inkscape:current-layer="layer9"
     inkscape:cx="-51.241469"
     inkscape:cy="15.707792"
     gridtolerance="10"
     inkscape:guide-bbox="true"
     guidetolerance="10"
     id="namedview88"
     inkscape:object-nodes="false"
     inkscape:object-paths="false"
     objecttolerance="10"
     pagecolor="#3a3b39"
     inkscape:pageopacity="1"
     inkscape:pageshadow="2"
     showborder="false"
     showgrid="false"
     showguides="true"
     inkscape:snap-bbox="true"
     inkscape:snap-bbox-midpoints="false"
     inkscape:snap-global="true"
     inkscape:snap-grids="true"
     inkscape:snap-nodes="true"
     inkscape:snap-others="false"
     inkscape:snap-to-guides="true"
     inkscape:window-height="702"
     inkscape:window-maximized="1"
     inkscape:window-width="1366"
     inkscape:window-x="0"
     inkscape:window-y="27"
     inkscape:zoom="4">
    <inkscape:grid
       empspacing="2"
       enabled="true"
       id="grid4866"
       originx="120.0002px"
       originy="-19.998902px"
       snapvisiblegridlinesonly="true"
       spacingx="1px"
       spacingy="1px"
       type="xygrid"
       visible="true" />
    <inkscape:grid
       color="#000000"
       empcolor="#000000"
       empopacity="0"
       empspacing="4"
       enabled="true"
       id="grid5968"
       opacity="0.1254902"
       originx="120.0002px"
       originy="-19.998902px"
       snapvisiblegridlinesonly="true"
       spacingx="0.5px"
       spacingy="0.5px"
       type="xygrid"
       visible="true" />
  </sodipodi:namedview>
  <title
     id="title9167">Gnome Symbolic Icon Theme</title>
  <defs
     id="defs7386">
    <clipPath
       clipPathUnits="userSpaceOnUse"
       id="clipPath6810-7-87">
      <rect
         height="11"
         id="rect6812-2-4"
         style="color:#bebebe;display:inline;overflow:visible;visibility:visible;fill:none;stroke:#ffffff;stroke-width:2;stroke-linecap:round;stroke-linejoin:round;stroke-miterlimit:4;stroke-dasharray:none;stroke-dashoffset:0;stroke-opacity:1;marker:none"
         width="14"
         x="21"
         y="281" />
    </clipPath>
  </defs>
  <g
     inkscape:groupmode="layer"
     id="layer9"
     inkscape:label="status"
     style="display:inline"
     transform="translate(-121,-191.0011)">
    <rect
       height="10.012877"
       id="rect12235"
       rx="2.5"
       ry="2.5"
       style="color:#bebebe;display:inline;overflow:visible;visibility:visible;fill:#ececec;fill-opacity:1;fill-rule:nonzero;stroke:none;stroke-width:2;marker:none"
       width="5"
       x="126.99997"
       y="194.98705" />
    <path
       clip-path="url(#clipPath6810-7-87)"
       inkscape:connector-curvature="0"
       d="m 27.96875,273.625 c -2.502477,0 -4.53125,2.02877 -4.53125,4.53125 l 0,5.8125 c 0,2.50248 2.028773,4.53125 4.53125,4.53125 2.502477,0 4.53125,-2.02877 4.53125,-4.53125 l 0,-5.8125 c 0,-2.50248 -2.028773,-4.53125 -4.53125,-4.53125 z m 0,1 c 1.964148,0 3.53125,1.5671 3.53125,3.53125 l 0,5.8125 c 0,1.96415 -1.567102,3.53125 -3.53125,3.53125 -1.964148,0 -3.53125,-1.5671 -3.53125,-3.53125 l 0,-5.8125 c 0,-1.96415 1.567102,-3.53125 3.53125,-3.53125 z"
       id="rect12237"
       style="color:#bebebe;font-style:normal;font-variant:normal;font-weight:normal;font-stretch:normal;font-size:medium;line-height:normal;font-family:Sans;-inkscape-font-specification:Sans;text-indent:0;text-align:start;text-decoration:none;text-decoration-line:none;letter-spacing:normal;word-spacing:normal;text-transform:none;direction:ltr;block-progression:tb;writing-mode:lr-tb;baseline-shift:baseline;text-anchor:start;display:inline;overflow:visible;visibility:visible;fill:#ececec;fill-opacity:1;stroke:none;stroke-width:1.00302994;marker:none;enable-background:accumulate"
       transform="matrix(0.993968,0,0,1,101.70687,-81.486204)" />
    <circle
       id="path12239"
       style="color:#bebebe;display:inline;overflow:visible;visibility:visible;fill:#ececec;fill-opacity:1;stroke:none;stroke-width:2;marker:none"
       cx="125.49997"
       cy="199.49992"
       r="0.5" />
    <circle
       id="path12241"
       style="color:#bebebe;display:inline;overflow:visible;visibility:visible;fill:#ececec;fill-opacity:1;stroke:none;stroke-width:2;marker:none"
       cx="133.49997"
       cy="199.49992"
       r="0.5" />
    <path
       inkscape:connector-curvature="0"
       d="m 125.90622,207.99993 a 1.001098,1.001098 0 1 0 0.0937,2 l 7,0 a 1.0001,1.0001 0 1 0 0,-2 l -7,0 a 1.0001,1.0001 0 0 0 -0.0937,0 z"
       id="path12243"
       style="color:#bebebe;font-style:normal;font-variant:normal;font-weight:normal;font-stretch:normal;font-size:medium;line-height:normal;font-family:Sans;-inkscape-font-specification:Sans;text-indent:0;text-align:start;text-decoration:none;text-decoration-line:none;letter-spacing:normal;word-spacing:normal;text-transform:none;direction:ltr;block-progression:tb;writing-mode:lr-tb;baseline-shift:baseline;text-anchor:start;display:inline;overflow:visible;visibility:visible;fill:#ececec;fill-opacity:1;stroke:none;stroke-width:2;marker:none;enable-background:accumulate" />
    <rect
       height="1"
       id="rect12245"
       style="color:#bebebe;display:inline;overflow:visible;visibility:visible;fill:#ececec;fill-opacity:1;stroke:none;stroke-width:1;marker:none"
       width="9.0002003"
       x="124.99997"
       y="208.99992" />
    <rect
       height="4"
       id="rect12247"
       style="color:#bebebe;display:inline;overflow:visible;visibility:visible;fill:#ececec;fill-opacity:1;stroke:none;stroke-width:1;marker:none"
       width="3"
       x="127.99997"
       y="205.99992" />
    <path
       inkscape:connector-curvature="0"
       d="m 137.00017,194.99186 c -1.09865,0 -2.00806,0.90942 -2.00806,2.00807 0,1.09865 0.90941,2.00806 2.00806,2.00806 1.09865,0 2.00806,-0.90941 2.00806,-2.00806 0,-1.09865 -0.90941,-2.00807 -2.00806,-2.00807 z m 0,1.01613 c 0.55821,0 0.99193,0.43373 0.99193,0.99194 0,0.55821 -0.43372,0.99193 -0.99193,0.99193 -0.55821,0 -0.99193,-0.43372 -0.99193,-0.99193 0,-0.55821 0.43372,-0.99194 0.99193,-0.99194 z"
       id="path12249"
       style="color:#000000;font-style:normal;font-variant:normal;font-weight:normal;font-stretch:normal;font-size:medium;line-height:normal;font-family:Sans;-inkscape-font-specification:Sans;text-indent:0;text-align:start;text-decoration:none;text-decoration-line:none;letter-spacing:normal;word-spacing:normal;text-transform:none;direction:ltr;block-progression:tb;writing-mode:lr-tb;baseline-shift:baseline;text-anchor:start;display:inline;overflow:visible;visibility:visible;opacity:0.5;fill:#ececec;fill-opacity:1;stroke:none;stroke-width:1.29166746;marker:none;enable-background:accumulate" />
    <path
       inkscape:connector-curvature="0"
       d="m 137.00016,199.99186 c -1.09865,0 -2.00806,0.90941 -2.00806,2.00806 0,1.09865 0.90941,2.00807 2.00806,2.00807 1.09865,0 2.00807,-0.90942 2.00807,-2.00807 0,-1.09865 -0.90942,-2.00806 -2.00807,-2.00806 z m 0,1.01613 c 0.55821,0 0.99194,0.43373 0.99194,0.99193 0,0.55821 -0.43373,0.99194 -0.99194,0.99194 -0.55821,0 -0.99193,-0.43373 -0.99193,-0.99194 0,-0.5582 0.43372,-0.99193 0.99193,-0.99193 z"
       id="path12253"
       style="color:#000000;font-style:normal;font-variant:normal;font-weight:normal;font-stretch:normal;font-size:medium;line-height:normal;font-family:Sans;-inkscape-font-specification:Sans;text-indent:0;text-align:start;text-decoration:none;text-decoration-line:none;letter-spacing:normal;word-spacing:normal;text-transform:none;direction:ltr;block-progression:tb;writing-mode:lr-tb;baseline-shift:baseline;text-anchor:start;display:inline;overflow:visible;visibility:visible;opacity:0.5;fill:#ececec;fill-opacity:1;stroke:none;stroke-width:1.29166651;marker:none;enable-background:accumulate" />
    <path
       inkscape:connector-curvature="0"
       d="m 135.00017,204.99993 1.375,0 1.125,1.09375 1.09375,-1.09375 1.40625,0 0,1.46875 -1.09375,1.0625 1.09375,1.0625 0,1.40625 -1.4375,0 -1.0625,-1.0625 -1.0625,1.0625 -1.4375,0 0,-1.40625 1.0625,-1.0625 -1.0625,-1.0625 0,-1.46875 z"
       id="path3761-2-3-5-4-8-9-8-0-9-0-4"
       sodipodi:nodetypes="ccccccccccccccccc"
       style="color:#bebebe;display:inline;overflow:visible;visibility:visible;fill:#ececec;fill-opacity:1;stroke:none;stroke-width:2;marker:none" />
  </g>
  <g
     inkscape:groupmode="layer"
     id="layer10"
     inkscape:label="devices"
     style="display:inline"
     transform="translate(-121,-191.0011)" />
  <g
     inkscape:groupmode="layer"
     id="layer11"
     inkscape:label="apps"
     transform="translate(-121,-191.0011)" />
  <g
     inkscape:groupmode="layer"
     id="layer13"
     inkscape:label="places"
     style="display:inline"
     transform="translate(-121,-191.0011)" />
  <g
     inkscape:groupmode="layer"
     id="layer14"
     inkscape:label="mimetypes"
     transform="translate(-121,-191.0011)" />
  <g
     inkscape:groupmode="layer"
     id="layer15"
     inkscape:label="emblems"
     style="display:inline"
     transform="translate(-121,-191.0011)" />
  <g
     inkscape:groupmode="layer"
     id="g71291"
     inkscape:label="emotes"
     style="display:inline"
     transform="translate(-121,-191.0011)" />
  <g
     inkscape:groupmode="layer"
     id="g4953"
     inkscape:label="categories"
     style="display:inline"
     transform="translate(-121,-191.0011)" />
  <g
     inkscape:groupmode="layer"
     id="layer12"
     inkscape:label="actions"
     style="display:inline"
     transform="translate(-121,-191.0011)" />
</svg>
