<?xml version="1.0" encoding="UTF-8" standalone="no"?>
<!-- Created with Inkscape (http://www.inkscape.org/) -->

<svg
   xmlns:dc="http://purl.org/dc/elements/1.1/"
   xmlns:cc="http://creativecommons.org/ns#"
   xmlns:rdf="http://www.w3.org/1999/02/22-rdf-syntax-ns#"
   xmlns:svg="http://www.w3.org/2000/svg"
   xmlns="http://www.w3.org/2000/svg"
   xmlns:sodipodi="http://sodipodi.sourceforge.net/DTD/sodipodi-0.dtd"
   xmlns:inkscape="http://www.inkscape.org/namespaces/inkscape"
   width="22"
   height="22"
   viewBox="0 0 22 22"
   id="svg4148"
   version="1.1"
   inkscape:version="0.91 r13725"
   sodipodi:docname="network-wireless-no-route.svg">
  <defs
     id="defs4150" />
  <sodipodi:namedview
     id="base"
     pagecolor="#ffffff"
     bordercolor="#666666"
     borderopacity="1.0"
     inkscape:pageopacity="0.0"
     inkscape:pageshadow="2"
     inkscape:zoom="1"
     inkscape:cx="-342.31304"
     inkscape:cy="3.1200344"
     inkscape:document-units="px"
     inkscape:current-layer="layer1"
     showgrid="false"
     units="px"
     inkscape:snap-bbox="true"
     inkscape:snap-bbox-midpoints="true">
    <inkscape:grid
       type="xygrid"
       id="grid4696" />
  </sodipodi:namedview>
  <metadata
     id="metadata4153">
    <rdf:RDF>
      <cc:Work
         rdf:about="">
        <dc:format>image/svg+xml</dc:format>
        <dc:type
           rdf:resource="http://purl.org/dc/dcmitype/StillImage" />
        <dc:title></dc:title>
      </cc:Work>
    </rdf:RDF>
  </metadata>
  <g
     inkscape:label="Ebene 1"
     inkscape:groupmode="layer"
     id="layer1"
     transform="translate(0,-1030.3622)">
    <path
       style="opacity:1;fill:#ececec;fill-opacity:1;stroke:none;stroke-width:2;stroke-linecap:butt;stroke-linejoin:round;stroke-miterlimit:4;stroke-dasharray:none;stroke-dashoffset:0;stroke-opacity:1"
       d="M 10.833984,1035.3508 A 11.313713,12.02742 0 0 0 3,1038.8723 l 8,8.5039 8,-8.5039 a 11.313713,12.02742 0 0 0 -8.166016,-3.5215 z m 0.117188,1.7754 c 0.300506,0 0.570917,0.036 0.8125,0.1093 0.241583,0.071 0.447305,0.176 0.615234,0.3145 0.16793,0.1385 0.296382,0.3065 0.384766,0.5039 0.09133,0.1974 0.136719,0.4224 0.136719,0.6758 0,0.1856 -0.02125,0.3527 -0.0625,0.5 -0.04125,0.1443 -0.103055,0.2796 -0.185547,0.4062 -0.07955,0.1238 -0.18095,0.2435 -0.304688,0.3614 -0.120791,0.1149 -0.26179,0.2375 -0.423828,0.3672 -0.123738,0.097 -0.225142,0.1822 -0.304687,0.2558 -0.0766,0.071 -0.137449,0.1383 -0.181641,0.2031 -0.04419,0.065 -0.07607,0.1344 -0.09375,0.2051 -0.01473,0.068 -0.02148,0.1479 -0.02148,0.2422 l 0,0.2656 -1.166016,0 0,-0.3281 c 0,-0.1502 0.01351,-0.2855 0.04297,-0.4062 0.03241,-0.1238 0.08071,-0.2406 0.142578,-0.3497 0.06482,-0.1119 0.147878,-0.2191 0.248047,-0.3222 0.100168,-0.1061 0.219913,-0.2142 0.361328,-0.3262 0.123738,-0.097 0.229015,-0.1851 0.314453,-0.2617 0.08544,-0.077 0.154001,-0.151 0.207031,-0.2246 0.05303,-0.077 0.09166,-0.1558 0.115235,-0.2383 0.02357,-0.082 0.03516,-0.1781 0.03516,-0.2871 0,-0.1679 -0.05698,-0.307 -0.171875,-0.416 -0.111953,-0.109 -0.284833,-0.1641 -0.517578,-0.1641 -0.203284,0 -0.422512,0.043 -0.658203,0.1289 -0.232745,0.086 -0.4741881,0.1907 -0.7246098,0.3145 l -0.4511718,-0.9785 c 0.1266839,-0.074 0.2628494,-0.1423 0.4101562,-0.2071 0.150253,-0.068 0.3057524,-0.1257 0.4648438,-0.1758 0.1620376,-0.053 0.3252506,-0.095 0.4902346,-0.125 0.164983,-0.029 0.327237,-0.043 0.486328,-0.043 z m -0.158203,5.1699 c 0.103115,0 0.199685,0.012 0.291015,0.039 0.09428,0.026 0.17734,0.07 0.248047,0.1289 0.07071,0.059 0.126723,0.1371 0.167969,0.2343 0.04125,0.094 0.06055,0.2112 0.06055,0.3496 0,0.1326 -0.0193,0.2456 -0.06055,0.3399 -0.04125,0.094 -0.09726,0.1725 -0.167969,0.2344 -0.07071,0.062 -0.15377,0.1063 -0.248047,0.1328 -0.09133,0.029 -0.1879,0.043 -0.291015,0.043 -0.109007,0 -0.213325,-0.014 -0.310547,-0.043 -0.09428,-0.026 -0.175387,-0.071 -0.246094,-0.1328 -0.07071,-0.062 -0.126723,-0.1401 -0.167969,-0.2344 -0.0383,-0.094 -0.05859,-0.2073 -0.05859,-0.3399 0,-0.1384 0.02029,-0.2553 0.05859,-0.3496 0.04125,-0.097 0.09726,-0.1754 0.167969,-0.2343 0.07071,-0.059 0.151817,-0.1024 0.246094,-0.1289 0.09722,-0.027 0.20154,-0.039 0.310547,-0.039 z"
       id="path4700"
       inkscape:connector-curvature="0" />
  </g>
</svg>
