<?xml version="1.0" encoding="UTF-8" standalone="no"?>
<!-- Created with Inkscape (http://www.inkscape.org/) -->

<svg
   xmlns:dc="http://purl.org/dc/elements/1.1/"
   xmlns:cc="http://creativecommons.org/ns#"
   xmlns:rdf="http://www.w3.org/1999/02/22-rdf-syntax-ns#"
   xmlns:svg="http://www.w3.org/2000/svg"
   xmlns="http://www.w3.org/2000/svg"
   xmlns:sodipodi="http://sodipodi.sourceforge.net/DTD/sodipodi-0.dtd"
   xmlns:inkscape="http://www.inkscape.org/namespaces/inkscape"
   id="svg7384"
   version="1.1"
   height="22"
   width="22"
   inkscape:version="0.91 r13725"
   sodipodi:docname="network-cellular-edge.svg">
  <sodipodi:namedview
     pagecolor="#ffffff"
     bordercolor="#666666"
     borderopacity="1"
     objecttolerance="10"
     gridtolerance="10"
     guidetolerance="10"
     inkscape:pageopacity="0"
     inkscape:pageshadow="2"
     inkscape:window-width="640"
     inkscape:window-height="480"
     id="namedview14"
     showgrid="false"
     inkscape:zoom="21.9375"
     inkscape:cx="-8.1821865"
     inkscape:cy="7.8176638"
     inkscape:current-layer="svg7384" />
  <title
     id="title9167">Gnome Symbolic Icon Theme</title>
  <metadata
     id="metadata90">
    <rdf:RDF>
      <cc:Work
         rdf:about="">
        <dc:format>image/svg+xml</dc:format>
        <dc:type
           rdf:resource="http://purl.org/dc/dcmitype/StillImage" />
        <dc:title>Gnome Symbolic Icon Theme</dc:title>
      </cc:Work>
    </rdf:RDF>
  </metadata>
  <defs
     id="defs7386" />
  <g
     transform="translate(-97.9999,-234)"
     id="layer9"
     style="display:inline">
    <path
       inkscape:connector-curvature="0"
       d="m 103.0624,237 c -1.15073,0 -2.0625,0.91177 -2.0625,2.0625 l 0,11.875 c 0,1.15073 0.91177,2.0625 2.0625,2.0625 l 11.875,0 c 1.15073,0 2.0625,-0.91177 2.0625,-2.0625 l 0,-11.875 c 0,-1.15073 -0.91177,-2.0625 -2.0625,-2.0625 l -11.875,0 z m 3.9375,3 0.0937,0 5.90625,0 0,2 -6,0 0,2 6,0 0,2 -6,0 0,2 c -3.6e-4,-4.5e-4 0.0315,1e-4 0.0313,0 l 5.96875,0 0,2 -6,0 c -0.6248,0 -0.99413,-0.24118 -1.34375,-0.5625 -0.33108,-0.30424 -0.64399,-0.78976 -0.625,-1.4375 l -0.0313,0 0,-0.0937 0,-5.84375 0,-0.0625 0.0313,0 c -0.013,-0.4751 0.11013,-0.99964 0.46875,-1.40625 0.35357,-0.40089 0.93419,-0.583 1.5,-0.5625 l 0,-0.0313 z"
       id="rect7047"
       style="color:#bebebe;display:inline;overflow:visible;visibility:visible;fill:#ececec;fill-opacity:1;stroke:none;stroke-width:2;marker:none" />
  </g>
  <g
     transform="translate(-97.9999,-234)"
     id="layer10" />
  <g
     transform="translate(-97.9999,-234)"
     id="layer11" />
  <g
     transform="translate(-97.9999,-234)"
     id="layer12" />
  <g
     transform="translate(-97.9999,-234)"
     id="layer13" />
  <g
     transform="translate(-97.9999,-234)"
     id="layer14" />
  <g
     transform="translate(-97.9999,-234)"
     id="layer15" />
</svg>
