<?xml version="1.0" encoding="UTF-8" standalone="no"?>
<!-- Created with Inkscape (http://www.inkscape.org/) -->

<svg
   xmlns:dc="http://purl.org/dc/elements/1.1/"
   xmlns:cc="http://creativecommons.org/ns#"
   xmlns:rdf="http://www.w3.org/1999/02/22-rdf-syntax-ns#"
   xmlns:svg="http://www.w3.org/2000/svg"
   xmlns="http://www.w3.org/2000/svg"
   xmlns:sodipodi="http://sodipodi.sourceforge.net/DTD/sodipodi-0.dtd"
   xmlns:inkscape="http://www.inkscape.org/namespaces/inkscape"
   width="22"
   height="22"
   viewBox="0 0 22 22"
   id="svg4149"
   version="1.1"
   inkscape:version="0.91 r13725"
   sodipodi:docname="nm-device-wired.svg">
  <defs
     id="defs4151" />
  <sodipodi:namedview
     id="base"
     pagecolor="#ffffff"
     bordercolor="#666666"
     borderopacity="1.0"
     inkscape:pageopacity="0.0"
     inkscape:pageshadow="2"
     inkscape:zoom="16"
     inkscape:cx="-5.53532"
     inkscape:cy="9.329934"
     inkscape:document-units="px"
     inkscape:current-layer="layer1"
     showgrid="false"
     units="px"
     inkscape:snap-bbox="true"
     inkscape:object-paths="false"
     inkscape:object-nodes="true">
    <inkscape:grid
       type="xygrid"
       id="grid4697" />
  </sodipodi:namedview>
  <metadata
     id="metadata4154">
    <rdf:RDF>
      <cc:Work
         rdf:about="">
        <dc:format>image/svg+xml</dc:format>
        <dc:type
           rdf:resource="http://purl.org/dc/dcmitype/StillImage" />
        <dc:title></dc:title>
      </cc:Work>
    </rdf:RDF>
  </metadata>
  <g
     inkscape:label="Ebene 1"
     inkscape:groupmode="layer"
     id="layer1"
     transform="translate(0,-1030.3622)">
    <path
       style="opacity:1;fill:#ececec;fill-opacity:1;stroke:none;stroke-width:2;stroke-linecap:butt;stroke-linejoin:round;stroke-miterlimit:4;stroke-dasharray:none;stroke-dashoffset:0;stroke-opacity:1"
       d="m 6,1035.3622 c -1.108,0 -2,0.892 -2,2 l 0,7 c 0,1.108 0.892,2 2,2 l 1,0 1,1 6,0 1,-1 1,0 c 1.108,0 2,-0.892 2,-2 l 0,-7 c 0,-1.108 -0.892,-2 -2,-2 z m 0,2 10,0 0,7 -2,0 -1,1 -4,0 -1,-1 -2,0 z"
       id="rect4699"
       inkscape:connector-curvature="0"
       sodipodi:nodetypes="ssssccccsssssccccccccc" />
  </g>
</svg>
