<?xml version="1.0" encoding="UTF-8" standalone="no"?>
<!-- Created with Inkscape (http://www.inkscape.org/) -->

<svg
   xmlns:dc="http://purl.org/dc/elements/1.1/"
   xmlns:cc="http://creativecommons.org/ns#"
   xmlns:rdf="http://www.w3.org/1999/02/22-rdf-syntax-ns#"
   xmlns:svg="http://www.w3.org/2000/svg"
   xmlns="http://www.w3.org/2000/svg"
   xmlns:sodipodi="http://sodipodi.sourceforge.net/DTD/sodipodi-0.dtd"
   xmlns:inkscape="http://www.inkscape.org/namespaces/inkscape"
   inkscape:version="0.91 r13725"
   version="1.1"
   width="16"
   height="16"
   sodipodi:docname="applications-science-symbolic.svg"
   id="svg7384">
  <metadata
     id="metadata90">
    <rdf:RDF>
      <cc:Work
         rdf:about="">
        <dc:format>image/svg+xml</dc:format>
        <dc:type
           rdf:resource="http://purl.org/dc/dcmitype/StillImage" />
        <dc:title>Gnome Symbolic Icon Theme</dc:title>
      </cc:Work>
    </rdf:RDF>
  </metadata>
  <sodipodi:namedview
     inkscape:window-x="0"
     inkscape:window-y="26"
     inkscape:window-maximized="0"
     pagecolor="#555753"
     showborder="false"
     inkscape:pageshadow="2"
     bordercolor="#666666"
     inkscape:snap-bbox="true"
     inkscape:current-layer="g4953"
     inkscape:snap-grids="true"
     inkscape:bbox-paths="false"
     inkscape:snap-others="false"
     inkscape:window-height="1020"
     inkscape:snap-nodes="true"
     borderopacity="1"
     showguides="true"
     inkscape:snap-global="true"
     inkscape:pageopacity="1"
     inkscape:object-paths="false"
     objecttolerance="10"
     gridtolerance="10"
     showgrid="false"
     inkscape:zoom="1"
     inkscape:snap-to-guides="true"
     inkscape:object-nodes="false"
     id="namedview88"
     inkscape:snap-bbox-midpoints="false"
     inkscape:guide-bbox="true"
     inkscape:window-width="1598"
     inkscape:cx="-112.94399"
     inkscape:cy="-144.55805"
     guidetolerance="10">
    <inkscape:grid
       visible="true"
       spacingx="1px"
       spacingy="1px"
       empspacing="2"
       enabled="true"
       id="grid4866"
       snapvisiblegridlinesonly="true"
       type="xygrid" />
  </sodipodi:namedview>
  <title
     id="title9167">Gnome Symbolic Icon Theme</title>
  <defs
     id="defs7386" />
  <g
     inkscape:label="status"
     style="display:inline"
     inkscape:groupmode="layer"
     id="layer9"
     transform="translate(-501.0002,-461.99974)" />
  <g
     inkscape:label="devices"
     inkscape:groupmode="layer"
     id="layer10"
     transform="translate(-501.0002,-461.99974)" />
  <g
     inkscape:label="apps"
     inkscape:groupmode="layer"
     id="layer11"
     transform="translate(-501.0002,-461.99974)" />
  <g
     inkscape:label="places"
     inkscape:groupmode="layer"
     id="layer13"
     transform="translate(-501.0002,-461.99974)" />
  <g
     inkscape:label="mimetypes"
     inkscape:groupmode="layer"
     id="layer14"
     transform="translate(-501.0002,-461.99974)" />
  <g
     inkscape:label="emblems"
     style="display:inline"
     inkscape:groupmode="layer"
     id="layer15"
     transform="translate(-501.0002,-461.99974)" />
  <g
     inkscape:label="emotes"
     style="display:inline"
     inkscape:groupmode="layer"
     transform="translate(-501.0002,-461.99974)"
     id="g71291" />
  <g
     inkscape:label="categories"
     style="display:inline"
     inkscape:groupmode="layer"
     id="g4953"
     transform="translate(-501.0002,-461.99974)">
    <path
       d="m 505.90625,462.09375 a 1.0001,1.0001 0 0 0 -0.375,1.875 l 0.46875,0.25 0,2.75 c -0.12616,0.19922 -0.25575,0.37424 -0.4375,0.6875 -0.27262,0.46989 -0.60717,1.04052 -0.96875,1.6875 -0.72316,1.29395 -1.54045,2.81614 -2.1875,4 -0.57062,1.044 -0.56219,2.44139 0.28125,3.5 0.01,0.0131 0.0215,0.0184 0.0312,0.0312 0.67388,0.8899 1.71652,1.125 2.59375,1.125 l 7.375,0 c 0.87723,0 1.91987,-0.2351 2.59375,-1.125 0.009,-0.0115 0.0221,-0.0197 0.0312,-0.0312 0.83629,-1.04963 0.83721,-2.42762 0.28125,-3.46875 -0.004,-0.009 0.004,-0.0224 0,-0.0312 -1.16773,-2.37787 -2.47179,-4.21786 -3.5625,-6.40625 l 0,-2.6875 0.5,-0.28125 a 1.0001,1.0001 0 0 0 -0.5,-1.875 l -6.03125,0 a 1.0001,1.0001 0 0 0 -0.0937,0 z m 2.09375,2 2.03125,0 0,3.125 a 1.0001,1.0001 0 0 0 0.0937,0.4375 c 1.20164,2.45716 2.57567,4.32021 3.6875,6.59375 a 1.0001,1.0001 0 0 0 0.0312,0.0625 c 0.23971,0.43859 0.25996,0.88106 -0.0937,1.3125 a 1.0001,1.0001 0 0 0 -0.0625,0.0312 c -0.14445,0.19822 -0.45965,0.34375 -1,0.34375 l -7.375,0 c -0.54035,0 -0.85555,-0.14553 -1,-0.34375 A 1.0001,1.0001 0 0 0 504.25,475.625 c -0.35372,-0.43145 -0.33346,-0.87393 -0.0937,-1.3125 0.64576,-1.18148 1.47031,-2.71674 2.1875,-4 0.35859,-0.64163 0.70549,-1.20248 0.96875,-1.65625 0.26326,-0.45377 0.47348,-0.83862 0.5,-0.875 A 1.0001,1.0001 0 0 0 508,467.21875 l 0,-3.125 z"
       inkscape:connector-curvature="0"
       style="font-size:medium;font-style:normal;font-variant:normal;font-weight:normal;font-stretch:normal;text-indent:0;text-align:start;text-decoration:none;line-height:normal;letter-spacing:normal;word-spacing:normal;text-transform:none;direction:ltr;block-progression:tb;writing-mode:lr-tb;text-anchor:start;baseline-shift:baseline;color:#000000;fill:#bebebe;fill-opacity:1;stroke:none;stroke-width:2;marker:none;visibility:visible;display:inline;overflow:visible;enable-background:accumulate;font-family:Sans;-inkscape-font-specification:Sans"
       id="path29274-9-1" />
    <path
       d="m 507.21891,471.00142 -2.21875,3.99904 8,0 -2.21875,-3.99904 -3.5625,0 z"
       inkscape:connector-curvature="0"
       style="opacity:0.25;color:#000000;fill:#bebebe;fill-opacity:1;fill-rule:nonzero;stroke:none;stroke-width:2;marker:none;visibility:visible;display:inline;overflow:visible;enable-background:accumulate"
       id="rect5725" />
  </g>
  <g
     inkscape:label="actions"
     style="display:inline"
     inkscape:groupmode="layer"
     id="layer12"
     transform="translate(-501.0002,-461.99974)" />
</svg>
