<?xml version="1.0" encoding="UTF-8" standalone="no"?>
<!-- Created with Inkscape (http://www.inkscape.org/) -->

<svg
   xmlns:dc="http://purl.org/dc/elements/1.1/"
   xmlns:cc="http://creativecommons.org/ns#"
   xmlns:rdf="http://www.w3.org/1999/02/22-rdf-syntax-ns#"
   xmlns:svg="http://www.w3.org/2000/svg"
   xmlns="http://www.w3.org/2000/svg"
   xmlns:sodipodi="http://sodipodi.sourceforge.net/DTD/sodipodi-0.dtd"
   xmlns:inkscape="http://www.inkscape.org/namespaces/inkscape"
   sodipodi:docname="applications-graphics-symbolic.svg"
   height="16.000008"
   id="svg7384"
   inkscape:version="0.91 r13725"
   version="1.1"
   width="16.000002">
  <metadata
     id="metadata90">
    <rdf:RDF>
      <cc:Work
         rdf:about="">
        <dc:format>image/svg+xml</dc:format>
        <dc:type
           rdf:resource="http://purl.org/dc/dcmitype/StillImage" />
        <dc:title>Gnome Symbolic Icon Theme</dc:title>
      </cc:Work>
    </rdf:RDF>
  </metadata>
  <sodipodi:namedview
     inkscape:bbox-paths="false"
     bordercolor="#666666"
     borderopacity="1"
     inkscape:current-layer="g4953"
     inkscape:cx="-12.507085"
     inkscape:cy="6.9647405"
     gridtolerance="10"
     inkscape:guide-bbox="true"
     guidetolerance="10"
     id="namedview88"
     inkscape:object-nodes="false"
     inkscape:object-paths="false"
     objecttolerance="10"
     pagecolor="#555753"
     inkscape:pageopacity="1"
     inkscape:pageshadow="2"
     showborder="false"
     showgrid="false"
     showguides="true"
     inkscape:snap-bbox="true"
     inkscape:snap-bbox-midpoints="false"
     inkscape:snap-global="true"
     inkscape:snap-grids="true"
     inkscape:snap-nodes="false"
     inkscape:snap-others="false"
     inkscape:snap-to-guides="true"
     inkscape:window-height="1381"
     inkscape:window-maximized="1"
     inkscape:window-width="2560"
     inkscape:window-x="1600"
     inkscape:window-y="27"
     inkscape:zoom="1">
    <inkscape:grid
       empspacing="2"
       enabled="true"
       id="grid4866"
       snapvisiblegridlinesonly="true"
       spacingx="1px"
       spacingy="1px"
       type="xygrid"
       visible="true" />
  </sodipodi:namedview>
  <title
     id="title9167">Gnome Symbolic Icon Theme</title>
  <defs
     id="defs7386" />
  <g
     inkscape:groupmode="layer"
     id="layer9"
     inkscape:label="status"
     style="display:inline"
     transform="translate(-581.00019,-461)" />
  <g
     inkscape:groupmode="layer"
     id="layer10"
     inkscape:label="devices"
     transform="translate(-581.00019,-461)" />
  <g
     inkscape:groupmode="layer"
     id="layer11"
     inkscape:label="apps"
     transform="translate(-581.00019,-461)" />
  <g
     inkscape:groupmode="layer"
     id="layer13"
     inkscape:label="places"
     transform="translate(-581.00019,-461)" />
  <g
     inkscape:groupmode="layer"
     id="layer14"
     inkscape:label="mimetypes"
     transform="translate(-581.00019,-461)" />
  <g
     inkscape:groupmode="layer"
     id="layer15"
     inkscape:label="emblems"
     style="display:inline"
     transform="translate(-581.00019,-461)" />
  <g
     inkscape:groupmode="layer"
     id="g71291"
     inkscape:label="emotes"
     style="display:inline"
     transform="translate(-581.00019,-461)" />
  <g
     inkscape:groupmode="layer"
     id="g4953"
     inkscape:label="categories"
     style="display:inline"
     transform="translate(-581.00019,-461)">
    <path
       inkscape:connector-curvature="0"
       d="m 588.89213,461.00274 c -2.10985,0.0296 -4.94513,0.80221 -4.89737,3.28068 0.0499,2.58608 2.91741,1.66126 3.15054,2.71829 0.0353,-0.045 0.0883,-0.0821 0.12477,-0.12498 0.19744,-0.2135 0.39517,-0.38769 0.59267,-0.59365 0.31248,-0.35256 0.63627,-0.67899 0.967,-1.03107 1.10674,-1.17814 1.15415,-1.24979 3.79604,-3.24945 -1.03459,-0.62096 -2.25793,-0.96565 -3.29695,-0.99982 -0.1332,-0.005 -0.29604,-0.002 -0.4367,0 z m -1.9028,1.53098 c 0.82692,0 1.49728,0.67146 1.49728,1.49975 0,0.82829 -0.67036,1.49974 -1.49728,1.49974 -0.82693,0 -1.49728,-0.67145 -1.49728,-1.49974 0,-0.82829 0.67035,-1.49975 1.49728,-1.49975 z m 7.26873,0.66156 c -1.41828,2.23337 -2.36679,3.55601 -3.36956,4.58755 -0.63925,0.65758 -1.1631,1.31156 -1.62205,1.78094 -0.83899,0.89023 -1.93776,1.94077 -3.15054,3.09322 0.0633,1.46884 0.81094,2.74635 3.24412,3.2182 3.89808,0.75593 8.02683,-1.82423 7.61118,-7.06129 -0.17842,-2.24796 -1.4052,-4.28134 -2.71315,-5.61862 z m 0.34245,3.80643 c 0.5488,0 0.99819,0.44764 0.99819,0.99983 0,0.55218 -0.44939,0.99983 -0.99819,0.99983 -0.54879,0 -0.99818,-0.44765 -0.99818,-0.99983 0,-0.55219 0.44939,-0.99983 0.99818,-0.99983 z m -0.62386,2.99949 c 0.54879,0 0.99818,0.44764 0.99818,0.99983 0,0.55218 -0.44939,0.99982 -0.99818,0.99982 -0.5488,0 -0.99819,-0.44764 -0.99819,-0.99982 0,-0.55219 0.44939,-0.99983 0.99819,-0.99983 z m -4.99094,1.99965 c 0.54879,0 0.99818,0.44765 0.99818,0.99983 0,0.55219 -0.44939,0.99983 -0.99818,0.99983 -0.5488,0 -0.99819,-0.44764 -0.99819,-0.99983 0,-0.55218 0.44939,-0.99983 0.99819,-0.99983 z m 2.99456,0 c 0.5488,0 0.99819,0.44765 0.99819,0.99983 0,0.55219 -0.44939,0.99983 -0.99819,0.99983 -0.5488,0 -0.99819,-0.44764 -0.99819,-0.99983 0,-0.55218 0.44939,-0.99983 0.99819,-0.99983 z"
       id="path9234"
       sodipodi:nodetypes="cccccccccssssscsccsscssssssssssssssssssss"
       style="fill:#bebebe;fill-opacity:1;stroke:none" />
    <path
       inkscape:connector-curvature="0"
       d="m 581.00019,474.49915 c 1.55209,6e-4 1.39367,-1.78749 2.14726,-2.28535 0.87328,-0.57692 1.63857,0.13795 1.79136,0.72627 0.19279,0.74234 -0.11685,1.63129 -1.12998,1.8846 -1.07336,0.26836 -2.66168,0.27633 -2.80864,-0.32552 z"
       id="path9274"
       sodipodi:nodetypes="csssc"
       style="fill:#bebebe;fill-opacity:1;stroke:none" />
    <path
       inkscape:connector-curvature="0"
       d="m 595.03722,461.00274 c -1.79965,1.2988 -4.20634,3.30184 -6.11488,5.3335 -0.17324,0.18442 -0.34065,0.36235 -0.50432,0.54703 -0.10346,0.10788 -0.21177,0.19588 -0.3152,0.30771 -0.0653,0.0767 -0.12585,0.16279 -0.18912,0.23932 -1.87306,2.07016 -3.71972,4.68066 -4.91712,6.6327 2.97729,-2.29737 4.91603,-4.16475 6.1464,-5.47026 0.2404,-0.24587 0.52929,-0.56636 0.85103,-0.92311 1.20361,-1.33456 2.92519,-3.43748 5.04321,-6.66689 z"
       id="path9264"
       style="fill:#bebebe;fill-opacity:1;stroke:none" />
  </g>
  <g
     inkscape:groupmode="layer"
     id="layer12"
     inkscape:label="actions"
     style="display:inline"
     transform="translate(-581.00019,-461)" />
</svg>
