<?xml version="1.0" encoding="UTF-8" standalone="no"?>
<!-- Created with Inkscape (http://www.inkscape.org/) -->

<svg
   xmlns:dc="http://purl.org/dc/elements/1.1/"
   xmlns:cc="http://creativecommons.org/ns#"
   xmlns:rdf="http://www.w3.org/1999/02/22-rdf-syntax-ns#"
   xmlns:svg="http://www.w3.org/2000/svg"
   xmlns="http://www.w3.org/2000/svg"
   xmlns:sodipodi="http://sodipodi.sourceforge.net/DTD/sodipodi-0.dtd"
   xmlns:inkscape="http://www.inkscape.org/namespaces/inkscape"
   width="16"
   height="16"
   viewBox="0 0 16 16"
   id="svg4149"
   version="1.1"
   inkscape:version="0.91 r13725"
   sodipodi:docname="network-wired-offline-symbolic.svg">
  <defs
     id="defs4151" />
  <sodipodi:namedview
     id="base"
     pagecolor="#ffffff"
     bordercolor="#666666"
     borderopacity="1.0"
     inkscape:pageopacity="0.0"
     inkscape:pageshadow="2"
     inkscape:zoom="22.627417"
     inkscape:cx="3.4492431"
     inkscape:cy="6.6495087"
     inkscape:document-units="px"
     inkscape:current-layer="layer1"
     showgrid="true"
     units="px"
     inkscape:snap-bbox="true"
     inkscape:object-paths="false"
     inkscape:object-nodes="true"
     inkscape:snap-bbox-midpoints="true">
    <inkscape:grid
       type="xygrid"
       id="grid4697" />
  </sodipodi:namedview>
  <metadata
     id="metadata4154">
    <rdf:RDF>
      <cc:Work
         rdf:about="">
        <dc:format>image/svg+xml</dc:format>
        <dc:type
           rdf:resource="http://purl.org/dc/dcmitype/StillImage" />
        <dc:title />
      </cc:Work>
    </rdf:RDF>
  </metadata>
  <g
     inkscape:label="Ebene 1"
     inkscape:groupmode="layer"
     id="layer1"
     transform="translate(0,-1036.3622)">
    <path
       style="opacity:0.35;fill:#ececec;fill-opacity:1;stroke:none;stroke-width:2;stroke-linecap:butt;stroke-linejoin:round;stroke-miterlimit:4;stroke-dasharray:none;stroke-dashoffset:0;stroke-opacity:1"
       d="M 3 2 C 1.892 2 1 2.8919904 1 4 L 1 11 C 1 12.10801 1.892 13 3 13 L 4 13 L 5 14 L 10 14 L 10 12 L 6 12 L 5 11 L 3 11 L 3 4 L 13 4 L 13 10 L 15 10 L 15 4 C 15 2.8919904 14.108 2 13 2 L 3 2 z "
       transform="translate(0,1036.3622)"
       id="rect4699" />
    <path
       inkscape:connector-curvature="0"
       d="m 11,1047.3622 0,1 c 0,0.2761 0.10029,0.5378 0.28125,0.7188 l 0.78125,0.7812 -0.78125,0.7813 C 11.10029,1050.8244 11,1051.0861 11,1051.3622 l 0,1 1,0 c 0.27614,0 0.53779,-0.1003 0.71875,-0.2812 l 0.78125,-0.7813 0.78125,0.7813 c 0.18096,0.1809 0.44261,0.2812 0.71875,0.2812 l 1,0 0,-1 c 0,-0.2761 -0.10029,-0.5378 -0.28125,-0.7187 l -0.78125,-0.7813 0.78125,-0.7812 C 15.89971,1048.9 16,1048.6383 16,1048.3622 l 0,-1 -1,0 c -0.27614,0 -0.53779,0.1003 -0.71875,0.2813 l -0.78125,0.7812 -0.78125,-0.7812 c -0.18096,-0.181 -0.44261,-0.2813 -0.71875,-0.2813 l -1,0 z"
       id="path5898-0"
       style="display:inline;fill:#ececec;fill-opacity:1;stroke:none;enable-background:new" />
  </g>
</svg>
