<?xml version="1.0" encoding="UTF-8" standalone="no"?>
<!-- Created with Inkscape (http://www.inkscape.org/) -->

<svg
   xmlns:dc="http://purl.org/dc/elements/1.1/"
   xmlns:cc="http://creativecommons.org/ns#"
   xmlns:rdf="http://www.w3.org/1999/02/22-rdf-syntax-ns#"
   xmlns:svg="http://www.w3.org/2000/svg"
   xmlns="http://www.w3.org/2000/svg"
   xmlns:sodipodi="http://sodipodi.sourceforge.net/DTD/sodipodi-0.dtd"
   xmlns:inkscape="http://www.inkscape.org/namespaces/inkscape"
   id="svg7384"
   sodipodi:docname="preferences-system-symbolic.svg"
   version="1.1"
   inkscape:version="0.91 r13725"
   height="16.000008"
   width="16">
  <metadata
     id="metadata90">
    <rdf:RDF>
      <cc:Work
         rdf:about="">
        <dc:format>image/svg+xml</dc:format>
        <dc:type
           rdf:resource="http://purl.org/dc/dcmitype/StillImage" />
        <dc:title>Gnome Symbolic Icon Theme</dc:title>
      </cc:Work>
    </rdf:RDF>
  </metadata>
  <sodipodi:namedview
     inkscape:cy="7.8662795"
     pagecolor="#555753"
     borderopacity="1"
     showborder="false"
     inkscape:bbox-paths="false"
     guidetolerance="10"
     inkscape:object-paths="true"
     inkscape:window-width="1600"
     showguides="true"
     inkscape:object-nodes="true"
     inkscape:snap-bbox="true"
     inkscape:pageshadow="2"
     inkscape:guide-bbox="true"
     inkscape:snap-nodes="true"
     bordercolor="#666666"
     objecttolerance="10"
     id="namedview88"
     showgrid="false"
     inkscape:window-maximized="1"
     inkscape:window-x="0"
     inkscape:snap-global="true"
     inkscape:window-y="0"
     gridtolerance="10"
     inkscape:window-height="1168"
     inkscape:snap-others="false"
     inkscape:snap-to-guides="true"
     inkscape:current-layer="g4953"
     inkscape:snap-bbox-midpoints="false"
     inkscape:zoom="1"
     inkscape:cx="13.631831"
     inkscape:snap-grids="true"
     inkscape:pageopacity="1">
    <inkscape:grid
       spacingx="1px"
       spacingy="1px"
       id="grid4866"
       empspacing="2"
       enabled="true"
       type="xygrid"
       snapvisiblegridlinesonly="true"
       visible="true" />
  </sodipodi:namedview>
  <title
     id="title9167">Gnome Symbolic Icon Theme</title>
  <defs
     id="defs7386" />
  <g
     inkscape:label="status"
     transform="translate(-442.0002,-462)"
     inkscape:groupmode="layer"
     id="layer9"
     style="display:inline" />
  <g
     inkscape:label="devices"
     transform="translate(-442.0002,-462)"
     inkscape:groupmode="layer"
     id="layer10" />
  <g
     inkscape:label="apps"
     transform="translate(-442.0002,-462)"
     inkscape:groupmode="layer"
     id="layer11" />
  <g
     inkscape:label="places"
     transform="translate(-442.0002,-462)"
     inkscape:groupmode="layer"
     id="layer13" />
  <g
     inkscape:label="mimetypes"
     transform="translate(-442.0002,-462)"
     inkscape:groupmode="layer"
     id="layer14" />
  <g
     inkscape:label="emblems"
     transform="translate(-442.0002,-462)"
     inkscape:groupmode="layer"
     id="layer15"
     style="display:inline" />
  <g
     inkscape:label="emotes"
     transform="translate(-442.0002,-462)"
     inkscape:groupmode="layer"
     id="g71291"
     style="display:inline" />
  <g
     inkscape:label="categories"
     transform="translate(-442.0002,-462)"
     inkscape:groupmode="layer"
     id="g4953"
     style="display:inline">
    <path
       inkscape:connector-curvature="0"
       d="m 445.54914,462.09056 c -0.39933,0 -0.78638,0.0916 -1.14329,0.21572 l 1.88488,1.87971 c 0.38735,0.38627 0.38735,1.00037 0,1.38667 l -0.71069,0.70874 c -0.38735,0.38628 -1.00314,0.38628 -1.39049,0 l -1.88488,-1.87971 c -0.12444,0.35591 -0.2163,0.74191 -0.2163,1.14015 0,1.90608 1.54944,3.45126 3.46077,3.45126 0.39933,0 0.78638,-0.0916 1.14329,-0.2157 l 1.17419,1.17097 a 2.4722239,2.4654407 0 0 1 0.0618,0 l 2.07028,-2.0646 -1.20509,-1.20178 c 0.12444,-0.35592 0.2163,-0.74191 0.2163,-1.14015 0,-1.90609 -1.54944,-3.45128 -3.46077,-3.45128 z m 6.55074,7.88863 -2.07029,2.06459 a 2.4722239,2.4654407 0 0 1 0.0309,0.0924 l 1.14329,1.14015 c -0.12444,0.35596 -0.2163,0.74196 -0.2163,1.14019 0,1.90609 1.54944,3.45129 3.46077,3.45129 0.43346,0 0.8536,-0.10141 1.23599,-0.24653 l -2.00848,-2.00297 c -0.38735,-0.38629 -0.38735,-1.03119 0,-1.41749 l 0.67979,-0.67792 c 0.19367,-0.19315 0.45794,-0.30816 0.71069,-0.30816 0.25276,0 0.51702,0.11501 0.7107,0.30816 l 1.94668,1.94133 c 0.10485,-0.32958 0.1854,-0.68351 0.1854,-1.04771 0,-1.90608 -1.54944,-3.45126 -3.46077,-3.45126 -0.39933,0 -0.78639,0.0916 -1.14329,0.2157 l -1.20509,-1.20179 z"
       id="path3908"
       style="font-size:medium;font-style:normal;font-variant:normal;font-weight:normal;font-stretch:normal;text-indent:0;text-align:start;text-decoration:none;line-height:normal;letter-spacing:normal;word-spacing:normal;text-transform:none;direction:ltr;block-progression:tb;writing-mode:lr-tb;text-anchor:start;color:#000000;fill:#bebebe;fill-opacity:1;fill-rule:nonzero;stroke:none;stroke-width:3;marker:none;visibility:visible;display:inline;overflow:visible;enable-background:accumulate;font-family:Sans;-inkscape-font-specification:Sans" />
    <path
       inkscape:connector-curvature="0"
       d="m 455.85825,462 -1.54246,1.43753 c -0.45151,0.42079 -0.5292,1.14883 -0.2663,1.70647 l -5.88822,5.99575 a 1.4916729,1.4875773 0 0 0 -0.0311,2.5e-4 1.4916729,1.4875773 0 0 0 -0.84016,-0.1484 1.4916729,1.4875773 0 0 0 -0.86663,0.44059 l -3.9462,3.99734 a 1.4941171,1.4900149 0 1 0 2.12943,2.09068 l 3.9462,-3.99734 a 1.4916729,1.4875773 0 0 0 0.29713,-1.73771 l 5.88846,-5.96477 c 0.55782,0.24837 1.27325,0.14697 1.70681,-0.2922 L 457.86242,463.9677 455.85824,462 z"
       id="path3910"
       style="font-size:medium;font-style:normal;font-variant:normal;font-weight:normal;font-stretch:normal;text-indent:0;text-align:start;text-decoration:none;line-height:normal;letter-spacing:normal;word-spacing:normal;text-transform:none;direction:ltr;block-progression:tb;writing-mode:lr-tb;text-anchor:start;color:#000000;fill:#bebebe;fill-opacity:1;fill-rule:nonzero;stroke:none;stroke-width:3;marker:none;visibility:visible;display:inline;overflow:visible;enable-background:accumulate;font-family:Sans;-inkscape-font-specification:Sans" />
  </g>
  <g
     inkscape:label="actions"
     transform="translate(-442.0002,-462)"
     inkscape:groupmode="layer"
     id="layer12"
     style="display:inline" />
</svg>
