<?xml version="1.0" encoding="UTF-8" standalone="no"?>
<!-- Created with Inkscape (http://www.inkscape.org/) -->

<svg
   xmlns:dc="http://purl.org/dc/elements/1.1/"
   xmlns:cc="http://creativecommons.org/ns#"
   xmlns:rdf="http://www.w3.org/1999/02/22-rdf-syntax-ns#"
   xmlns:svg="http://www.w3.org/2000/svg"
   xmlns="http://www.w3.org/2000/svg"
   xmlns:sodipodi="http://sodipodi.sourceforge.net/DTD/sodipodi-0.dtd"
   xmlns:inkscape="http://www.inkscape.org/namespaces/inkscape"
   version="1.1"
   width="16"
   height="16"
   id="svg2996"
   inkscape:version="0.91 r13725"
   sodipodi:docname="image-x-generic-symbolic.svg">
  <sodipodi:namedview
     pagecolor="#ffffff"
     bordercolor="#666666"
     borderopacity="1"
     objecttolerance="10"
     gridtolerance="10"
     guidetolerance="10"
     inkscape:pageopacity="0"
     inkscape:pageshadow="2"
     inkscape:window-width="640"
     inkscape:window-height="480"
     id="namedview8"
     showgrid="false"
     inkscape:zoom="14.75"
     inkscape:cx="8"
     inkscape:cy="8"
     inkscape:window-x="0"
     inkscape:window-y="24"
     inkscape:window-maximized="0"
     inkscape:current-layer="svg2996" />
  <defs
     id="defs2998" />
  <metadata
     id="metadata3001">
    <rdf:RDF>
      <cc:Work
         rdf:about="">
        <dc:format>image/svg+xml</dc:format>
        <dc:type
           rdf:resource="http://purl.org/dc/dcmitype/StillImage" />
        <dc:title />
      </cc:Work>
    </rdf:RDF>
  </metadata>
  <path
     style="color:#000000;fill:#bebebe;fill-opacity:1;fill-rule:nonzero;stroke:none;stroke-width:1;marker:none;visibility:visible;display:inline;overflow:visible;enable-background:accumulate"
     d="m 9.9412957,0 c -0.0645,0.008 -0.12753,0.0279 -0.1875,0.0625 L 4.6912957,3 8.6600457,3 9.4725457,2.53125 9.7537957,3 12.035046,3 10.441296,0.25 C 10.337416,0.07008 10.134666,-0.02423 9.9412957,0 z m -6.9375,3.9687504 -2.75000003,1.59375 c -0.23989,0.1385 -0.326,0.44761 -0.1875,0.6875 L 3.0037957,11.3125 l 0,-3.9687496 -0.46875,-0.8125 0.46875,-0.28125 0,-2.28125 z m 1.5,0.03125 c -0.277,0 -0.5,0.223 -0.5,0.5 l 0,10.9999996 c 0,0.277 0.223,0.5 0.5,0.5 l 11.0000003,0 c 0.277,0 0.5,-0.223 0.5,-0.5 l 0,-10.9999996 c 0,-0.277 -0.223,-0.5 -0.5,-0.5 l -11.0000003,0 z m 1.5,2 8.0000003,0 0,6.9999996 -8.0000003,0 0,-6.9999996 z"
     id="rect6430"
     inkscape:connector-curvature="0" />
</svg>
