<?xml version="1.0" encoding="UTF-8" standalone="no"?>
<!-- Created with Inkscape (http://www.inkscape.org/) -->

<svg
   xmlns:dc="http://purl.org/dc/elements/1.1/"
   xmlns:cc="http://creativecommons.org/ns#"
   xmlns:rdf="http://www.w3.org/1999/02/22-rdf-syntax-ns#"
   xmlns:svg="http://www.w3.org/2000/svg"
   xmlns="http://www.w3.org/2000/svg"
   xmlns:sodipodi="http://sodipodi.sourceforge.net/DTD/sodipodi-0.dtd"
   xmlns:inkscape="http://www.inkscape.org/namespaces/inkscape"
   width="16"
   height="16"
   viewBox="0 0 16 16"
   id="svg4148"
   version="1.1"
   inkscape:version="0.91 r13725"
   sodipodi:docname="address-book-new-symbolic.svg">
  <defs
     id="defs4150" />
  <sodipodi:namedview
     id="base"
     pagecolor="#ffffff"
     bordercolor="#666666"
     borderopacity="1.0"
     inkscape:pageopacity="0.0"
     inkscape:pageshadow="2"
     inkscape:zoom="16"
     inkscape:cx="-15.406248"
     inkscape:cy="6.1074654"
     inkscape:document-units="px"
     inkscape:current-layer="layer1"
     showgrid="false"
     units="px"
     inkscape:snap-bbox="true"
     inkscape:snap-bbox-midpoints="true">
    <inkscape:grid
       type="xygrid"
       id="grid4696" />
  </sodipodi:namedview>
  <metadata
     id="metadata4153">
    <rdf:RDF>
      <cc:Work
         rdf:about="">
        <dc:format>image/svg+xml</dc:format>
        <dc:type
           rdf:resource="http://purl.org/dc/dcmitype/StillImage" />
        <dc:title></dc:title>
      </cc:Work>
    </rdf:RDF>
  </metadata>
  <g
     inkscape:label="Ebene 1"
     inkscape:groupmode="layer"
     id="layer1"
     transform="translate(0,-1036.3622)">
    <path
       style="opacity:1;fill:#c3c3c3;fill-opacity:1;stroke:none;stroke-width:2;stroke-linecap:butt;stroke-linejoin:round;stroke-miterlimit:4;stroke-dasharray:none;stroke-dashoffset:0;stroke-opacity:1"
       d="M 3 1 C 1.8919336 1 1 1.8919336 1 3 L 1 13 C 1 14.108066 1.8919336 15 3 15 L 13 15 C 14.108066 15 15 14.108066 15 13 L 15 3 C 15 1.8919336 14.108066 1 13 1 L 3 1 z M 8.4199219 2.515625 C 9.4046224 2.515625 10.284261 2.7163086 11.058594 3.1191406 C 11.832926 3.5219727 12.430827 4.0948893 12.851562 4.8378906 C 13.272298 5.5808919 13.482422 6.4369303 13.482422 7.4082031 C 13.482422 8.0527344 13.37972 8.6445312 13.173828 9.1816406 C 12.967936 9.71875 12.676758 10.137614 12.300781 10.4375 C 11.924805 10.737386 11.487061 10.886719 10.990234 10.886719 C 10.659017 10.886719 10.365072 10.809001 10.105469 10.652344 C 9.8503418 10.491211 9.6679688 10.281087 9.5605469 10.021484 L 9.453125 10.021484 C 9.2338053 10.290039 8.9676107 10.501546 8.6542969 10.658203 C 8.3409831 10.810384 7.9923503 10.886719 7.6074219 10.886719 C 6.8151855 10.886719 6.190918 10.650228 5.734375 10.175781 C 5.277832 9.6968587 5.0488281 9.0442708 5.0488281 8.2207031 C 5.0488281 7.2852376 5.3447266 6.527181 5.9355469 5.9453125 C 6.5308431 5.363444 7.3186035 5.0722656 8.2988281 5.0722656 C 8.661377 5.0722656 9.0802409 5.1080729 9.5546875 5.1796875 C 10.029134 5.2468262 10.414958 5.3339844 10.714844 5.4414062 L 10.560547 8.7246094 C 10.560547 9.351237 10.732096 9.6640625 11.072266 9.6640625 C 11.358724 9.6640625 11.585775 9.4572754 11.755859 9.0410156 C 11.925944 8.6202799 12.011719 8.072347 12.011719 7.3964844 C 12.011719 6.6758626 11.862386 6.0388184 11.5625 5.4882812 C 11.26709 4.9332682 10.844889 4.5116374 10.298828 4.2207031 C 9.7572428 3.925293 9.1363118 3.7773438 8.4335938 3.7773438 C 7.5339355 3.7773438 6.7475586 3.9658203 6.0761719 4.3417969 C 5.4047852 4.7177734 4.8926595 5.2548828 4.5390625 5.953125 C 4.1854655 6.6513672 4.0078125 7.4560547 4.0078125 8.3691406 C 4.0078125 9.6089681 4.3381348 10.560221 4.9960938 11.222656 C 5.6585286 11.880615 6.6158854 12.208984 7.8691406 12.208984 C 8.3704427 12.208984 8.9075521 12.152913 9.4804688 12.041016 C 10.053385 11.929118 10.596598 11.778402 11.111328 11.585938 L 11.111328 12.880859 C 10.162435 13.283691 9.0990397 13.484375 7.921875 13.484375 C 6.2210286 13.484375 4.8947754 13.03776 3.9414062 12.142578 C 2.992513 11.247396 2.5175781 10.003581 2.5175781 8.4101562 C 2.5175781 7.3046061 2.7621257 6.2986654 3.25 5.3945312 C 3.7423503 4.4903971 4.4382324 3.7850749 5.3378906 3.2792969 C 6.2375488 2.769043 7.2651367 2.515625 8.4199219 2.515625 z M 8.3789062 6.2949219 C 7.8194173 6.2949219 7.3836263 6.4692383 7.0703125 6.8183594 C 6.7614746 7.1674805 6.6074219 7.6437988 6.6074219 8.2480469 C 6.6074219 9.1924642 6.991862 9.6640625 7.7617188 9.6640625 C 8.1600749 9.6640625 8.4634603 9.5241699 8.6738281 9.2421875 C 8.8886719 8.9557292 9.019694 8.4902344 9.0644531 7.8457031 L 9.1523438 6.3613281 C 8.9464518 6.316569 8.6877441 6.2949219 8.3789062 6.2949219 z "
       transform="translate(0,1036.3622)"
       id="rect4698" />
  </g>
</svg>
