<?xml version="1.0" encoding="UTF-8" standalone="no"?>
<!-- Created with Inkscape (http://www.inkscape.org/) -->

<svg
   xmlns:dc="http://purl.org/dc/elements/1.1/"
   xmlns:cc="http://creativecommons.org/ns#"
   xmlns:rdf="http://www.w3.org/1999/02/22-rdf-syntax-ns#"
   xmlns:svg="http://www.w3.org/2000/svg"
   xmlns="http://www.w3.org/2000/svg"
   xmlns:sodipodi="http://sodipodi.sourceforge.net/DTD/sodipodi-0.dtd"
   xmlns:inkscape="http://www.inkscape.org/namespaces/inkscape"
   id="svg7384"
   sodipodi:docname="call-start-symbolic.svg"
   version="1.1"
   inkscape:version="0.91 r13725"
   height="16"
   width="16">
  <metadata
     id="metadata90">
    <rdf:RDF>
      <cc:Work
         rdf:about="">
        <dc:format>image/svg+xml</dc:format>
        <dc:type
           rdf:resource="http://purl.org/dc/dcmitype/StillImage" />
        <dc:title>Gnome Symbolic Icon Theme</dc:title>
      </cc:Work>
    </rdf:RDF>
  </metadata>
  <sodipodi:namedview
     inkscape:cy="7.6068938"
     pagecolor="#555753"
     borderopacity="1"
     showborder="true"
     inkscape:bbox-paths="false"
     guidetolerance="10"
     inkscape:object-paths="true"
     inkscape:window-width="1508"
     showguides="true"
     inkscape:object-nodes="true"
     inkscape:snap-bbox="true"
     inkscape:pageshadow="2"
     inkscape:guide-bbox="true"
     inkscape:snap-nodes="false"
     bordercolor="#666666"
     objecttolerance="10"
     id="namedview88"
     showgrid="false"
     inkscape:window-maximized="0"
     inkscape:window-x="1600"
     inkscape:snap-global="true"
     inkscape:window-y="26"
     gridtolerance="10"
     inkscape:window-height="1060"
     inkscape:snap-to-guides="true"
     inkscape:current-layer="layer12"
     inkscape:snap-bbox-midpoints="false"
     inkscape:zoom="22.627417"
     inkscape:cx="0.97652919"
     inkscape:snap-grids="true"
     inkscape:pageopacity="1">
    <inkscape:grid
       spacingx="1px"
       spacingy="1px"
       id="grid4866"
       empspacing="2"
       enabled="true"
       type="xygrid"
       snapvisiblegridlinesonly="true"
       visible="true" />
  </sodipodi:namedview>
  <title
     id="title9167">Gnome Symbolic Icon Theme</title>
  <defs
     id="defs7386" />
  <g
     inkscape:label="status"
     transform="translate(-80.0002,-746)"
     inkscape:groupmode="layer"
     id="layer9"
     style="display:inline" />
  <g
     inkscape:label="devices"
     transform="translate(-80.0002,-746)"
     inkscape:groupmode="layer"
     id="layer10" />
  <g
     inkscape:label="apps"
     transform="translate(-80.0002,-746)"
     inkscape:groupmode="layer"
     id="layer11" />
  <g
     inkscape:label="places"
     transform="translate(-80.0002,-746)"
     inkscape:groupmode="layer"
     id="layer13" />
  <g
     inkscape:label="mimetypes"
     transform="translate(-80.0002,-746)"
     inkscape:groupmode="layer"
     id="layer14" />
  <g
     inkscape:label="emblems"
     transform="translate(-80.0002,-746)"
     inkscape:groupmode="layer"
     id="layer15"
     style="display:inline" />
  <g
     inkscape:label="categories"
     transform="translate(-80.0002,-746)"
     inkscape:groupmode="layer"
     id="g4953"
     style="display:inline" />
  <g
     inkscape:label="actions"
     transform="translate(-80.0002,-746)"
     inkscape:groupmode="layer"
     id="layer12"
     style="display:inline">
    <g
       id="call-start_16"
       transform="translate(61.0002,655.63784)"
       inkscape:label="#g7775">
      <g
         transform="translate(18.997523,90.362161)"
         id="g4276"
         style="display:inline">
        <g
           style="display:inline"
           inkscape:label="Calque 1"
           id="layer1-8">
          <path
             inkscape:connector-curvature="0"
             style="display:inline;fill:#bebebe;fill-opacity:1"
             d="m 14.460629,5.266059 c -0.06167,0.2809159 -0.480401,1.5083339 -0.679739,1.9921264 -0.276904,0.672062 -0.901898,1.747724 -1.356568,2.334774 C 11.880973,10.294499 11.372162,10.808479 10.395824,11.64208 8.8970603,12.921735 7.4206677,13.783883 5.9100279,14.261601 5.2137875,14.481765 4.9401041,14.522483 4.373013,14.490258 3.2404798,14.426258 2.0338919,13.751547 1.6222481,12.952904 1.5054766,12.726341 1.4935681,12.63533 1.506725,12.069996 1.523461,11.350782 1.568169,11.245677 1.9207536,11.095289 2.4839457,10.855116 4.8145457,10.07914 4.9492105,10.086955 c 0.2222468,0.0129 0.7619386,0.388949 1.1927251,0.831072 0.4782506,0.490827 0.5565247,0.500053 1.2139938,0.143145 1.3425763,-0.728913 2.4039063,-1.6669706 3.2373476,-2.8613476 0.432349,-0.619571 0.89533,-1.4539525 0.905939,-1.6326585 0.01507,-0.2538739 -0.05363,-0.3548693 -0.4812,-0.7077888 C 10.515531,5.4446442 9.9693917,4.895771 9.8894797,4.7252044 c -0.08146,-0.173897 -0.0746,-0.1896497 0.5969813,-1.3738553 0.314814,-0.5551153 0.664649,-1.1753128 0.777436,-1.3782048 0.11276,-0.2029077 0.246062,-0.3987606 0.296223,-0.4352467 0.163606,-0.1190031 1.228176,0.061821 1.595462,0.2710679 0.37272,0.2122983 0.888783,0.8859684 1.094262,1.4284592 0.214022,0.5650291 0.316152,1.5480874 0.210781,2.0286635 z"
             id="path4609"
             sodipodi:nodetypes="cssssssssssssssssssssc"
             inkscape:export-filename="/home/matthieu/Interne/Communication/Site Web/Version 3.0/Accueil temporaire/images/phone_square.png"
             inkscape:export-xdpi="90"
             inkscape:export-ydpi="90" />
        </g>
      </g>
    </g>
  </g>
</svg>
