<?xml version="1.0" encoding="UTF-8" standalone="no"?>
<!-- Created with Inkscape (http://www.inkscape.org/) -->

<svg
   xmlns:dc="http://purl.org/dc/elements/1.1/"
   xmlns:cc="http://creativecommons.org/ns#"
   xmlns:rdf="http://www.w3.org/1999/02/22-rdf-syntax-ns#"
   xmlns:svg="http://www.w3.org/2000/svg"
   xmlns="http://www.w3.org/2000/svg"
   xmlns:sodipodi="http://sodipodi.sourceforge.net/DTD/sodipodi-0.dtd"
   xmlns:inkscape="http://www.inkscape.org/namespaces/inkscape"
   id="svg7384"
   sodipodi:docname="document-open-symbolic.svg"
   version="1.1"
   inkscape:version="0.91 r13725"
   height="16"
   width="16.000002">
  <metadata
     id="metadata90">
    <rdf:RDF>
      <cc:Work
         rdf:about="">
        <dc:format>image/svg+xml</dc:format>
        <dc:type
           rdf:resource="http://purl.org/dc/dcmitype/StillImage" />
        <dc:title>Gnome Symbolic Icon Theme</dc:title>
      </cc:Work>
    </rdf:RDF>
  </metadata>
  <sodipodi:namedview
     inkscape:cy="10.149996"
     pagecolor="#555753"
     borderopacity="1"
     showborder="true"
     inkscape:bbox-paths="false"
     guidetolerance="10"
     inkscape:object-paths="true"
     inkscape:window-width="1198"
     showguides="true"
     inkscape:object-nodes="true"
     inkscape:snap-bbox="true"
     inkscape:pageshadow="2"
     inkscape:guide-bbox="true"
     inkscape:snap-nodes="true"
     bordercolor="#666666"
     objecttolerance="10"
     id="namedview88"
     showgrid="false"
     inkscape:window-maximized="0"
     inkscape:window-x="1796"
     inkscape:snap-global="true"
     inkscape:window-y="96"
     gridtolerance="10"
     inkscape:window-height="1020"
     inkscape:snap-to-guides="true"
     inkscape:current-layer="layer12"
     inkscape:snap-bbox-midpoints="false"
     inkscape:zoom="11.313708"
     inkscape:cx="-10.984533"
     inkscape:snap-grids="true"
     inkscape:pageopacity="1">
    <inkscape:grid
       spacingx="1px"
       spacingy="1px"
       id="grid4866"
       empspacing="2"
       enabled="true"
       type="xygrid"
       snapvisiblegridlinesonly="true"
       visible="true" />
  </sodipodi:namedview>
  <title
     id="title9167">Gnome Symbolic Icon Theme</title>
  <defs
     id="defs7386" />
  <g
     inkscape:label="status"
     transform="translate(-160.0002,-646)"
     inkscape:groupmode="layer"
     id="layer9"
     style="display:inline" />
  <g
     inkscape:label="devices"
     transform="translate(-160.0002,-646)"
     inkscape:groupmode="layer"
     id="layer10" />
  <g
     inkscape:label="apps"
     transform="translate(-160.0002,-646)"
     inkscape:groupmode="layer"
     id="layer11" />
  <g
     inkscape:label="actions"
     transform="translate(-160.0002,-646)"
     inkscape:groupmode="layer"
     id="layer12">
    <g
       id="document-open_16"
       transform="translate(84.0002,517.63783)"
       inkscape:label="#g7806">
      <g
         transform="translate(76,128.36217)"
         id="g4432"
         style="display:inline">
        <g
           style="display:inline"
           inkscape:label="Calque 1"
           id="layer1-74">
          <path
             inkscape:connector-curvature="0"
             style="display:inline;fill:#bebebe;fill-opacity:1;stroke:none;stroke-width:1.00000024;stroke-linecap:round;stroke-linejoin:miter;stroke-miterlimit:4;stroke-dasharray:none;stroke-opacity:1"
             d="M 3,1 C 2.446,1 2,1.446 2,2 L 2,3 14,3 C 14,2.446 13.554,2 13,2 L 7,2 C 7,1.446 6.554,1 6,1 L 3,1 Z M 2.5,4 C 1.669,4 1,4.669 1,5.5 L 1,10 1,11.5 C 1,12.331 1.669,13 2.5,13 L 5,13 5,13.5 C 5,14.331 5.669,15 6.5,15 l 6,0 c 0.831,0 1.5,-0.669 1.5,-1.5 l 0,-0.4375 0.03125,0 0,-0.15625 C 14.603723,12.695291 15,12.147488 15,11.5 L 15,10 15,5.5 C 15,4.669 14.331,4 13.5,4 l -1,0 -6,0 -4,0 z m 5,2 4,0 C 11.777,6 12,6.223 12,6.5 l 0,6 c 0,0.277 -0.223,0.5 -0.5,0.5 l -4,0 C 7.223,13 7,12.777 7,12.5 l 0,-6 C 7,6.223 7.223,6 7.5,6 Z"
             id="Symbol-9" />
        </g>
      </g>
    </g>
  </g>
  <g
     inkscape:label="places"
     transform="translate(-160.0002,-646)"
     inkscape:groupmode="layer"
     id="layer13" />
  <g
     inkscape:label="mimetypes"
     transform="translate(-160.0002,-646)"
     inkscape:groupmode="layer"
     id="layer14" />
  <g
     inkscape:label="emblems"
     transform="translate(-160.0002,-646)"
     inkscape:groupmode="layer"
     id="layer15"
     style="display:inline" />
  <g
     inkscape:label="categories"
     transform="translate(-160.0002,-646)"
     inkscape:groupmode="layer"
     id="g4953"
     style="display:inline" />
</svg>
