<?xml version="1.0" encoding="UTF-8" standalone="no"?>
<!-- Created with Inkscape (http://www.inkscape.org/) -->

<svg
   xmlns:dc="http://purl.org/dc/elements/1.1/"
   xmlns:cc="http://creativecommons.org/ns#"
   xmlns:rdf="http://www.w3.org/1999/02/22-rdf-syntax-ns#"
   xmlns:svg="http://www.w3.org/2000/svg"
   xmlns="http://www.w3.org/2000/svg"
   xmlns:sodipodi="http://sodipodi.sourceforge.net/DTD/sodipodi-0.dtd"
   xmlns:inkscape="http://www.inkscape.org/namespaces/inkscape"
   width="16"
   height="16"
   id="svg2"
   sodipodi:version="0.32"
   inkscape:version="0.91 r13725"
   version="1.0"
   sodipodi:docname="edit-cut-symbolic.svg"
   inkscape:output_extension="org.inkscape.output.svg.inkscape"
   inkscape:export-filename="/home/matt/.icons/Sirocco/scalable/mimetypes/text-plain.png"
   inkscape:export-xdpi="90"
   inkscape:export-ydpi="90"
   sodipodi:modified="true"
   style="display:inline">
  <sodipodi:namedview
     id="base"
     pagecolor="#ffffff"
     bordercolor="#666666"
     borderopacity="1.0"
     inkscape:pageopacity="0.0"
     inkscape:pageshadow="2"
     inkscape:zoom="20.16507"
     inkscape:cx="-0.13774381"
     inkscape:cy="7.9632344"
     inkscape:document-units="px"
     inkscape:current-layer="layer1"
     width="128px"
     height="128px"
     inkscape:showpageshadow="false"
     inkscape:window-width="1920"
     inkscape:window-height="1028"
     inkscape:window-x="0"
     inkscape:window-y="25"
     showguides="true"
     inkscape:guide-bbox="true"
     showgrid="true"
     inkscape:window-maximized="1">
    <sodipodi:guide
       id="guide2226"
       position="32.637397,117.99844"
       orientation="horizontal" />
    <sodipodi:guide
       id="guide2230"
       position="110,57.402344"
       orientation="vertical" />
    <sodipodi:guide
       id="guide2232"
       position="33.760911"
       orientation="horizontal" />
    <sodipodi:guide
       id="guide2231"
       position="46.774696"
       orientation="horizontal" />
    <inkscape:grid
       enabled="true"
       visible="true"
       id="grid3231"
       type="xygrid" />
    <sodipodi:guide
       orientation="1,0"
       position="100,67.625"
       id="guide2713" />
  </sodipodi:namedview>
  <defs
     id="defs4" />
  <metadata
     id="metadata7">
    <rdf:RDF>
      <cc:Work
         rdf:about="">
        <dc:format>image/svg+xml</dc:format>
        <dc:type
           rdf:resource="http://purl.org/dc/dcmitype/StillImage" />
      </cc:Work>
    </rdf:RDF>
  </metadata>
  <g
     style="display:inline"
     inkscape:label="Calque 1"
     id="layer1"
     inkscape:groupmode="layer">
    <g
       id="edit-cut_16"
       transform="translate(-38,-185.36217)"
       inkscape:label="#g7909">
      <g
         transform="translate(37.999999,185.36841)"
         id="g4688"
         style="display:inline">
        <g
           style="display:inline"
           inkscape:label="Calque 1"
           id="layer1-01">
          <path
             inkscape:connector-curvature="0"
             style="display:inline;fill:#bebebe;fill-opacity:1;stroke:none"
             d="m 3.875,0.99999979 c -0.022285,0.00536 -0.044875,0.016494 -0.0625,0.03125 -0.011521,0.00867 -0.022653,0.019636 -0.03125,0.03125 0,0 -0.2700217,0.3260161 -0.5,0.78125 -0.2299782,0.4552339 -0.4120417,1.0356923 -0.15625,1.53125 0.7884499,1.5239749 2.0839251,3.7672489 3.0625,5.28125 0.1544088,-0.5124922 0.3396962,-1.0371273 0.65625,-1.5625 -1.474e-4,-0.010193 -1.472e-4,-0.021056 0,-0.03125 L 7.375,6.2187498 4.03125,1.0624998 C 4.02265,1.0508848 4.011521,1.0399168 4,1.0312498 c -0.010085,-0.00104 -0.021165,-0.00104 -0.03125,0 0.00103,-0.010168 0.00103,-0.021082 0,-0.03125 -0.010085,-0.00104 -0.021164,-0.00104 -0.03125,0 -0.010085,-0.00104 -0.021164,-0.00104 -0.03125,0 -0.010085,-0.00104 -0.021164,-0.00104 -0.03125,0 z m 8.15625,0 c -10e-4,0.010168 -10e-4,0.021082 0,0.03125 -0.01009,-0.00104 -0.02116,-0.00104 -0.03125,0 -0.01152,0.00867 -0.02265,0.019635 -0.03125,0.03125 l -4.25,6.5625 C 7.3818216,8.1841872 7.1713962,9.126518 6.90625,9.8749998 6.773677,10.249241 6.632616,10.579794 6.46875,10.78125 6.3048838,10.982706 6.1573198,11.054945 5.9375,11 5.93129,10.999083 5.910307,11.000259 5.90625,11 5.896093,11.000151 5.881498,10.999635 5.875,11 5.87062,10.999401 5.845624,11.000106 5.84375,11 5.3626321,10.86226 4.9161697,10.88365 4.53125,11.03125 4.0477735,11.216643 3.6630669,11.552098 3.375,12 3.0860242,12.449317 2.9358336,12.959398 3,13.4375 c 0.063099,0.470153 0.3425241,0.987937 0.96875,1.3125 0.6267957,0.324859 1.2688988,0.278233 1.75,0.09375 C 6.2022267,14.658358 6.5869334,14.322902 6.875,13.875 7.1344973,13.471519 7.2416509,13.02322 7.21875,12.59375 7.2188525,12.59363 7.249953,12.5314 7.25,12.53125 c 4.68e-5,-1.5e-4 1.3e-5,-0.03107 0,-0.03125 0.00103,-0.01017 0.00103,-0.02108 0,-0.03125 -7.574e-4,-0.0056 -0.030161,0.0051 -0.03125,0 -0.00327,-0.01539 0.0049,-0.02028 0,-0.03125 -5.419e-4,-0.0084 5.294e-4,-0.02262 0,-0.03125 -0.00553,-0.03035 -0.00716,-0.04147 0,-0.03125 -0.020462,-0.352009 -0.034716,-0.828513 0.15625,-1.28125 0.2005139,-0.475374 0.6186139,-0.917373 1.5,-1.1562502 0.022285,-0.00536 0.044875,-0.016494 0.0625,-0.03125 0.01152,-0.00867 0.022653,-0.019635 0.03125,-0.03125 0.8843995,-1.185979 2.854984,-4.4680334 3.90625,-6.5 0.255791,-0.4955577 0.07373,-1.0760161 -0.15625,-1.53125 -0.229978,-0.4552339 -0.5,-0.78125 -0.5,-0.78125 -0.0086,-0.011614 -0.01973,-0.022583 -0.03125,-0.03125 -0.01763,-0.014756 -0.04021,-0.025888 -0.0625,-0.03125 -0.01009,-0.00104 -0.02116,-0.00104 -0.03125,0 -0.01009,-0.00104 -0.02116,-0.00104 -0.03125,0 -0.01009,-0.00104 -0.02116,-0.00104 -0.03125,0 z M 9.5,10.75 C 9.3894228,10.82871 9.2946704,10.904198 9.15625,10.9375 8.9062562,11.00525 8.7332712,11.058735 8.625,11.125 c 0.1783292,0.444209 0.1762788,0.905437 0.15625,1.25 0.00716,-0.01022 0.00553,9e-4 0,0.03125 -5.294e-4,0.0086 5.414e-4,0.0228 0,0.03125 -0.00491,0.01097 0.00327,0.01586 0,0.03125 -0.00109,0.0051 -0.030493,-0.0056 -0.03125,0 -0.00103,0.01017 -0.00103,0.02108 0,0.03125 -1.3e-5,1.84e-4 -4.68e-5,0.0311 0,0.03125 4.68e-5,1.51e-4 0.031147,0.06238 0.03125,0.0625 -0.022901,0.42947 0.084253,0.877769 0.34375,1.28125 0.2880666,0.447902 0.6727728,0.783358 1.15625,0.96875 0.481101,0.184483 1.123205,0.231109 1.75,-0.09375 C 12.657476,14.425437 12.936901,13.907653 13,13.4375 13.06417,12.959398 12.91398,12.449317 12.625,12 12.336933,11.552098 11.952226,11.216643 11.46875,11.03125 11.08383,10.88365 10.637368,10.86226 10.15625,11 c -0.0019,1.06e-4 -0.02687,-5.99e-4 -0.03125,0 -0.0065,-3.65e-4 -0.02109,1.51e-4 -0.03125,0 -0.0041,2.59e-4 -0.02504,-9.17e-4 -0.03125,0 C 9.8426802,11.05495 9.6951161,10.98271 9.53125,10.78125 9.52318,10.77135 9.507898,10.76058 9.5,10.75 Z m -4.25,1.3125 c 0.1041762,0.0047 0.2340963,0.01938 0.3125,0.0625 0.1742344,0.09581 0.2816322,0.271981 0.3125,0.46875 0.030868,0.196769 -0.021258,0.402302 -0.15625,0.625 C 5.4509472,13.660548 4.9070917,13.876992 4.5625,13.6875 4.3906342,13.59299 4.2812498,13.39314 4.25,13.1875 4.21875,12.98186 4.271964,12.784035 4.40625,12.5625 4.6068231,12.231613 4.9430901,12.048615 5.25,12.0625 Z m 5.5,0 c 0.30691,-0.01389 0.643177,0.169113 0.84375,0.5 0.134287,0.221535 0.1875,0.41936 0.15625,0.625 -0.03125,0.20564 -0.140634,0.40549 -0.3125,0.5 -0.344592,0.189492 -0.888448,-0.02695 -1.15625,-0.46875 -0.134992,-0.222698 -0.187118,-0.428231 -0.15625,-0.625 0.03087,-0.196769 0.138266,-0.372938 0.3125,-0.46875 0.0784,-0.04312 0.208324,-0.05779 0.3125,-0.0625 z"
             id="path2397" />
        </g>
      </g>
    </g>
  </g>
</svg>
