<?xml version="1.0" encoding="UTF-8" standalone="no"?>
<!-- Created with Inkscape (http://www.inkscape.org/) -->

<svg
   xmlns:dc="http://purl.org/dc/elements/1.1/"
   xmlns:cc="http://creativecommons.org/ns#"
   xmlns:rdf="http://www.w3.org/1999/02/22-rdf-syntax-ns#"
   xmlns:svg="http://www.w3.org/2000/svg"
   xmlns="http://www.w3.org/2000/svg"
   xmlns:inkscape="http://www.inkscape.org/namespaces/inkscape"
   version="1.1"
   width="16"
   height="16"
   id="svg7384">
  <title
     id="title9167">Gnome Symbolic Icon Theme</title>
  <defs
     id="defs11" />
  <metadata
     id="metadata90">
    <rdf:RDF>
      <cc:Work
         rdf:about="">
        <dc:format>image/svg+xml</dc:format>
        <dc:type
           rdf:resource="http://purl.org/dc/dcmitype/StillImage" />
        <dc:title>Gnome Symbolic Icon Theme</dc:title>
      </cc:Work>
    </rdf:RDF>
  </metadata>
  <path
     d="m 4.8125,2.4375 c -0.157435,0 -0.3040242,0.061907 -0.4375,0.125 L 4.0625,2.75 C 2.5286546,3.7617051 1.4475702,5.3251295 1.125,7.15625 c -3.44e-4,0.00195 -0.030908,-0.00195 -0.03125,0 -0.00848,0.050431 0.00742,0.1054119 0,0.15625 C 1.0474467,7.6213331 1,7.9270704 1,8.25 1,11.977922 4.1340068,15 8,15 11.865993,15 15,11.977922 15,8.25 15,7.9632405 14.97412,7.683817 14.9375,7.40625 14.92594,7.319929 14.89,7.2413821 14.875,7.15625 14.55243,5.3251295 13.471346,3.7617051 11.9375,2.75 L 11.625,2.5625 c -0.133476,-0.063093 -0.280065,-0.125 -0.4375,-0.125 -0.569446,0 -1.03125,0.4618042 -1.03125,1.03125 0,0.3240817 0.172432,0.6234812 0.40625,0.8125 0.07431,0.060076 0.160748,0.1184998 0.25,0.15625 0.966271,0.6429777 1.682341,1.6040974 2,2.71875 0.006,0.021271 0.02545,0.041181 0.03125,0.0625 C 12.947681,7.6005574 13,7.9919366 13,8.40625 c 0,2.662802 -2.238576,4.8125 -5,4.8125 -2.7614237,0 -5,-2.149698 -5,-4.8125 C 3,7.9919366 3.052319,7.6005574 3.15625,7.21875 3.16222,7.196519 3.181201,7.178354 3.1875,7.15625 3.5051589,6.0415974 4.2212291,5.0804777 5.1875,4.4375 5.276752,4.39975 5.3631857,4.341326 5.4375,4.28125 5.6713183,4.0922312 5.84375,3.7928317 5.84375,3.46875 5.84375,2.8993042 5.3819458,2.4375 4.8125,2.4375 z M 8,0 C 8.554,0 9,0.446 9,1 L 9,7 C 9,7.554 8.554,8 8,8 7.446,8 7,7.554 7,7 L 7,1 C 7,0.446 7.446,0 8,0 z"
     inkscape:connector-curvature="0"
     id="path3782"
     style="color:#bebebe;fill:#bebebe;fill-opacity:1;fill-rule:nonzero;stroke:none;stroke-width:1;marker:none;visibility:visible;display:inline;overflow:visible;enable-background:accumulate" />
</svg>
