<?xml version="1.0" encoding="UTF-8" standalone="no"?>
<!-- Created with Inkscape (http://www.inkscape.org/) -->

<svg
   xmlns:dc="http://purl.org/dc/elements/1.1/"
   xmlns:cc="http://creativecommons.org/ns#"
   xmlns:rdf="http://www.w3.org/1999/02/22-rdf-syntax-ns#"
   xmlns:svg="http://www.w3.org/2000/svg"
   xmlns="http://www.w3.org/2000/svg"
   xmlns:sodipodi="http://sodipodi.sourceforge.net/DTD/sodipodi-0.dtd"
   xmlns:inkscape="http://www.inkscape.org/namespaces/inkscape"
   width="16"
   height="16"
   id="svg2"
   sodipodi:version="0.32"
   inkscape:version="0.91 r13725"
   version="1.0"
   sodipodi:docname="user-idle.svg"
   inkscape:output_extension="org.inkscape.output.svg.inkscape">
  <defs
     id="defs4" />
  <sodipodi:namedview
     id="base"
     pagecolor="#ffffff"
     bordercolor="#9a9a9a"
     borderopacity="1"
     inkscape:pageopacity="0.0"
     inkscape:pageshadow="2"
     inkscape:zoom="22.762856"
     inkscape:cx="-5.1580538"
     inkscape:cy="5.9216142"
     inkscape:document-units="px"
     inkscape:current-layer="layer3"
     showgrid="true"
     inkscape:showpageshadow="false"
     showguides="true"
     inkscape:guide-bbox="true"
     inkscape:window-width="1920"
     inkscape:window-height="1028"
     inkscape:window-x="0"
     inkscape:window-y="25"
     inkscape:window-maximized="1">
    <sodipodi:guide
       orientation="1,0"
       position="0,112"
       id="guide2383" />
    <sodipodi:guide
       orientation="0,1"
       position="26.278146,128"
       id="guide2385" />
    <sodipodi:guide
       orientation="1,0"
       position="128,54.082119"
       id="guide2387" />
    <sodipodi:guide
       orientation="0,1"
       position="78.156291,0"
       id="guide2389" />
    <inkscape:grid
       type="xygrid"
       id="grid3672"
       visible="true"
       enabled="true" />
  </sodipodi:namedview>
  <metadata
     id="metadata7">
    <rdf:RDF>
      <cc:Work
         rdf:about="">
        <dc:format>image/svg+xml</dc:format>
        <dc:type
           rdf:resource="http://purl.org/dc/dcmitype/StillImage" />
      </cc:Work>
    </rdf:RDF>
  </metadata>
  <g
     inkscape:groupmode="layer"
     id="layer3"
     inkscape:label="Cross"
     style="display:inline"
     transform="translate(-0.4642613,-2.999982)">
    <path
       sodipodi:type="arc"
       style="opacity:0.45;fill:#ececec;stroke:none;fill-opacity:1"
       id="path2863"
       sodipodi:cx="8"
       sodipodi:cy="8"
       sodipodi:rx="5"
       sodipodi:ry="4"
       d="M 13,8 A 5,4 0 0 1 9.9134171,11.695518 5,4 0 0 1 4.4644661,10.828427 5,4 0 0 1 3.3806024,6.4692662 5,4 0 0 1 8.0000001,4 L 8,8 Z"
       transform="translate(0.4642613,2.999982)"
       sodipodi:start="0"
       sodipodi:end="4.712389" />
    <path
       style="fill:#ececec;fill-opacity:1;stroke:none;display:inline;opacity:1"
       d="M 8 2 C 4.1340071 2 1 4.4101491 1 8 C 1 11.589851 4.1340071 14 8 14 C 9.064957 14 10.065093 13.770035 10.96875 13.375 L 15 15 L 13.5625 11.4375 C 14.465672 10.342799 15 9.485565 15 8 C 15 4.4101491 11.865993 2 8 2 z M 8 4 C 10.761424 4 13 5.7908611 13 8 C 13 10.209139 10.761424 12 8 12 C 5.2385763 12 3 10.209139 3 8 C 3 5.7908611 5.2385763 4 8 4 z "
       transform="translate(0.4642613,2.999982)"
       id="path2892" />
  </g>
</svg>
